{
.appVersion = "3219";
DisplayStrings = (
""
);
copyright = "Copyright 2023 The Hedvig Letters Project Authors (https://github.com/KanonFoundry/HedvigLetters)";
customParameters = (
{
name = "Use Typo Metrics";
value = 1;
},
{
name = fsType;
value = (
);
},
{
name = vendorID;
value = KNON;
},
{
name = licenseURL;
value = "https://scripts.sil.org/OFL";
},
{
name = license;
value = "This Font Software is licensed under the SIL Open Font License, Version 1.1. This license is available with a FAQ at: https://scripts.sil.org/OFL";
}
);
date = "2021-12-21 15:11:59 +0000";
designer = "Alexander Örn & Tor Weibull";
designerURL = "http://www.kanonfoundry.com";
familyName = "Hedvig Letters Small";
featurePrefixes = (
{
automatic = 1;
code = "languagesystem DFLT dflt;\012\012languagesystem latn dflt;\012languagesystem latn AZE;\012languagesystem latn CRT;\012languagesystem latn KAZ;\012languagesystem latn TAT;\012languagesystem latn TRK;\012languagesystem latn ROM;\012languagesystem latn MOL;\012languagesystem latn NLD;\012languagesystem latn CAT;\012";
name = Languagesystems;
}
);
features = (
{
automatic = 1;
code = "feature locl;\012feature subs;\012feature sinf;\012feature sups;\012feature numr;\012feature dnom;\012feature frac;\012feature ordn;\012feature calt;\012feature ss01;\012feature case;\012";
name = aalt;
},
{
automatic = 1;
code = "lookup ccmp_Other_1 {\012	@CombiningTopAccents = [acutecomb brevecomb caroncomb circumflexcomb commaturnedabovecomb dieresiscomb dotaccentcomb gravecomb hungarumlautcomb macroncomb ringcomb tildecomb];\012	lookupflag UseMarkFilteringSet @CombiningTopAccents;\012	sub i' @CombiningTopAccents by idotless;\012	sub j' @CombiningTopAccents by jdotless;\012} ccmp_Other_1;\012";
name = ccmp;
},
{
automatic = 1;

glyphs = (
{
color = 6;
glyphname = A;
lastChange = "2023-09-29 09:16:19 +0000";
layers = (
{
anchors = (
{
name = bottom;
position = "{365, 0}";
},
{
name = ogonek;
position = "{660, 0}";
},
{
name = top;
position = "{363, 700}";
}
);
layerId = "CFBFE906-6BC9-42DE-B086-7F9578F7A428";
paths = (
{
closed = 1;
nodes = (
"258 0 LINE",
"258 40 LINE",
"229 42 LINE SMOOTH",
"174 46 OFFCURVE",
"153 77 OFFCURVE",
"174 131 CURVE SMOOTH",
"357 611 LINE",
"329 611 LINE",
"513 131 LINE SMOOTH",
"534 77 OFFCURVE",
"526 48 OFFCURVE",
"467 43 CURVE SMOOTH",
"434 40 LINE",
"434 0 LINE",
"729 0 LINE",
"729 40 LINE",
"706 42 LINE SMOOTH",
"653 47 OFFCURVE",
"634 77 OFFCURVE",
"613 131 CURVE SMOOTH",
"389 705 LINE",
"343 705 LINE",
"112 131 LINE SMOOTH",
"90 77 OFFCURVE",
"71 53 OFFCURVE",
"28 45 CURVE SMOOTH",
"0 40 LINE",
"0 0 LINE"
);
},
{
closed = 1;
nodes = (
"508 263 LINE",
"508 311 LINE",
"206 311 LINE",
"206 263 LINE"
);
}
);
width = 728;
}
);
leftKerningGroup = A;
rightKerningGroup = A;
unicode = 0041;
},
{
color = 6;
glyphname = AE;
lastChange = "2023-09-29 09:16:19 +0000";
layers = (
{
anchors = (
{
name = bottom;
position = "{299, 0}";
},
{
name = top;
position = "{299, 700}";
}
);
layerId = "CFBFE906-6BC9-42DE-B086-7F9578F7A428";
paths = (
{
closed = 1;
nodes = (
"921 191 LINE",
"879 191 LINE",
"854 89 OFFCURVE",
"808 49 OFFCURVE",
"715 49 CURVE SMOOTH",
"622 49 OFFCURVE",
"589 45 OFFCURVE",
"589 108 CURVE SMOOTH",
"589 334 LINE",
"788 334 LINE SMOOTH",
"836 334 OFFCURVE",
"852 317 OFFCURVE",
"855 265 CURVE SMOOTH",
"856 249 LINE",
"896 249 LINE",
"896 467 LINE",
"856 467 LINE",
"855 451 LINE SMOOTH",
"852 399 OFFCURVE",
"836 382 OFFCURVE",
"788 382 CURVE SMOOTH",
"589 382 LINE",
"589 652 LINE",
"745 652 LINE SMOOTH",
"814 652 OFFCURVE",
"850 620 OFFCURVE",
"868 544 CURVE",
"909 544 LINE",
"894 706 LINE",
"847 700 OFFCURVE",
"800 700 OFFCURVE",
"753 700 CURVE SMOOTH",
"332 700 LINE",
"332 660 LINE",
"373 656 LINE SMOOTH",
"417 652 OFFCURVE",
"432 641 OFFCURVE",
"401 590 CURVE SMOOTH",
"124 135 LINE SMOOTH",
"78 60 OFFCURVE",
"58 41 OFFCURVE",
"-8 30 CURVE",
"-8 0 LINE",
"243 0 LINE",
"243 30 LINE",
"207 33 LINE SMOOTH",
"156 37 OFFCURVE",
"151 69 OFFCURVE",
"185 127 CURVE SMOOTH",
"307 334 LINE",
"497 334 LINE",
"497 108 LINE SMOOTH",
"497 59 OFFCURVE",
"477 44 OFFCURVE",
"408 41 CURVE SMOOTH",
"387 40 LINE",
"387 0 LINE",
"751 0 LINE SMOOTH",
"784 0 OFFCURVE",
"843 -2 OFFCURVE",
"895 -6 CURVE"
);
},
{
closed = 1;
nodes = (
"445 568 LINE SMOOTH",
"464 600 OFFCURVE",
"479 629 OFFCURVE",
"492 656 CURVE",
"497 656 LINE",
"497 382 LINE",
"335 382 LINE"
);
}
);
width = 980;
}
);
rightKerningGroup = E;
unicode = 00C6;
},
{
color = 6;
glyphname = B;
lastChange = "2023-09-29 09:16:19 +0000";
layers = (
{
anchors = (
{
name = bottom;
position = "{336, 0}";
},
{
name = top;
position = "{336, 700}";
}
);
layerId = "CFBFE906-6BC9-42DE-B086-7F9578F7A428";
paths = (
{
closed = 1;
nodes = (
"371 0 LINE SMOOTH",
"527 0 OFFCURVE",
"619 72 OFFCURVE",
"619 195 CURVE SMOOTH",
"619 289 OFFCURVE",
"565 346 OFFCURVE",
"455 366 CURVE",
"556 388 OFFCURVE",
"609 445 OFFCURVE",
"609 531 CURVE SMOOTH",
"609 642 OFFCURVE",
"524 700 OFFCURVE",
"360 700 CURVE SMOOTH",
"43 700 LINE",
"43 660 LINE",
"64 659 LINE SMOOTH",
"133 656 OFFCURVE",
"153 641 OFFCURVE",
"153 592 CURVE SMOOTH",
"153 108 LINE SMOOTH",
"153 59 OFFCURVE",
"133 44 OFFCURVE",
"64 41 CURVE SMOOTH",
"43 40 LINE",
"43 0 LINE"
);
},
{
closed = 1;
nodes = (
"273 42 OFFCURVE",
"247 61 OFFCURVE",
"247 108 CURVE SMOOTH",
"247 332 LINE",
"354 332 LINE SMOOTH",
"463 332 OFFCURVE",
"521 284 OFFCURVE",
"521 193 CURVE SMOOTH",
"521 96 OFFCURVE",
"457 42 OFFCURVE",
"338 42 CURVE SMOOTH"
);
},
{
closed = 1;
nodes = (
"247 622 LINE SMOOTH",
"247 648 OFFCURVE",
"273 658 OFFCURVE",
"337 658 CURVE SMOOTH",
"454 658 OFFCURVE",
"511 614 OFFCURVE",
"511 528 CURVE SMOOTH",
"511 438 OFFCURVE",
"450 378 OFFCURVE",
"356 378 CURVE SMOOTH",
"247 378 LINE"
);
}
);
width = 682;
}
);
leftKerningGroup = H;
unicode = 0042;
},
{
color = 6;
glyphname = C;
lastChange = "2023-09-29 09:16:19 +0000";
layers = (
{
anchors = (
{
name = bottom;
position = "{411, 0}";
},
{
name = top;
position = "{401, 700}";
}
);
layerId = "CFBFE906-6BC9-42DE-B086-7F9578F7A428";
paths = (
{
closed = 1;
nodes = (
"493 -10 OFFCURVE",
"576 4 OFFCURVE",
"671 42 CURVE",
"671 201 LINE",
"629 201 LINE",
"594 71 OFFCURVE",
"536 42 OFFCURVE",
"440 42 CURVE SMOOTH",
"251 42 OFFCURVE",
"152 202 OFFCURVE",
"152 366 CURVE SMOOTH",
"152 537 OFFCURVE",
"251 658 OFFCURVE",
"425 658 CURVE SMOOTH",
"551 658 OFFCURVE",
"619 600 OFFCURVE",
"640 520 CURVE",
"681 520 LINE",
"681 654 LINE",
"619 683 OFFCURVE",
"548 710 OFFCURVE",
"441 710 CURVE SMOOTH",
"206 710 OFFCURVE",
"51 543 OFFCURVE",
"51 340 CURVE SMOOTH",
"51 138 OFFCURVE",
"196 -10 OFFCURVE",
"423 -10 CURVE SMOOTH"
);
}
);
width = 734;
}
);
leftKerningGroup = O;
rightKerningGroup = C;
unicode = 0043;
},
{
color = 6;
glyphname = D;
lastChange = "2023-09-29 09:16:19 +0000";
layers = (
{
anchors = (
{
name = bottom;
position = "{410, 0}";
},
{
name = center;
position = "{410, 350}";
},
{
name = top;
position = "{410, 700}";
}
);
layerId = "CFBFE906-6BC9-42DE-B086-7F9578F7A428";
paths = (
{
closed = 1;
nodes = (
"377 0 LINE SMOOTH",
"629 0 OFFCURVE",
"769 138 OFFCURVE",
"769 360 CURVE SMOOTH",
"769 577 OFFCURVE",
"621 700 OFFCURVE",
"377 700 CURVE SMOOTH",
"43 700 LINE",
"43 660 LINE",
"64 659 LINE SMOOTH",
"133 656 OFFCURVE",
"153 640 OFFCURVE",
"153 592 CURVE SMOOTH",
"153 108 LINE SMOOTH",
"153 60 OFFCURVE",
"133 44 OFFCURVE",
"64 41 CURVE SMOOTH",
"43 40 LINE",
"43 0 LINE"
);
},
{
closed = 1;
nodes = (
"280 48 OFFCURVE",
"247 63 OFFCURVE",
"247 119 CURVE SMOOTH",
"247 646 LINE",
"293 651 OFFCURVE",
"333 653 OFFCURVE",
"377 653 CURVE SMOOTH",
"545 653 OFFCURVE",
"668 528 OFFCURVE",
"668 332 CURVE SMOOTH",
"668 149 OFFCURVE",
"563 48 OFFCURVE",
"395 48 CURVE SMOOTH"
);
}
);
width = 822;
}
);
leftKerningGroup = H;
rightKerningGroup = D;
unicode = 0044;
},
{
color = 3;
glyphname = Eth;
lastChange = "2023-09-29 09:16:19 +0000";
layers = (
{
components = (
{
name = D;
transform = "{1, 0, 0, 1, 4, 0}";
}
);
guideLines = (
{
angle = 90;
position = "{376, 40}";
}
);
layerId = "CFBFE906-6BC9-42DE-B086-7F9578F7A428";
paths = (
{
closed = 1;
nodes = (
"375 332 LINE",
"375 380 LINE",
"50 380 LINE",
"50 332 LINE"
);
}
);
width = 826;
}
);
leftKerningGroup = H;
rightKerningGroup = D;
unicode = 00D0;
},
{
color = 6;
glyphname = E;
lastChange = "2023-09-29 09:16:19 +0000";
layers = (
{
anchors = (
{
name = bottom;
position = "{308, 0}";
},
{
name = ogonek;
position = "{456, 0}";
},
{
name = top;
position = "{321, 700}";
},
{
name = topleft;
position = "{25, 700}";
}
);
guideLines = (
{
position = "{919, 459}";
},
{
position = "{934, 544}";
},
{
position = "{934, 231}";
}
);
layerId = "CFBFE906-6BC9-42DE-B086-7F9578F7A428";
paths = (
{
closed = 1;
nodes = (
"579 191 LINE",
"537 191 LINE",
"512 89 OFFCURVE",
"466 49 OFFCURVE",
"373 49 CURVE SMOOTH",
"280 49 OFFCURVE",
"247 45 OFFCURVE",
"247 108 CURVE SMOOTH",
"247 334 LINE",
"446 334 LINE SMOOTH",
"494 334 OFFCURVE",
"510 317 OFFCURVE",
"513 265 CURVE SMOOTH",
"514 249 LINE",
"554 249 LINE",
"554 467 LINE",
"514 467 LINE",
"513 451 LINE SMOOTH",
"510 399 OFFCURVE",
"494 382 OFFCURVE",
"446 382 CURVE SMOOTH",
"247 382 LINE",
"247 652 LINE",
"403 652 LINE SMOOTH",
"472 652 OFFCURVE",
"508 620 OFFCURVE",
"526 544 CURVE",
"567 544 LINE",
"552 706 LINE",
"505 700 OFFCURVE",
"458 700 OFFCURVE",
"411 700 CURVE SMOOTH",
"43 700 LINE",
"43 660 LINE",
"64 659 LINE SMOOTH",
"133 656 OFFCURVE",
"153 641 OFFCURVE",
"153 592 CURVE SMOOTH",
"153 108 LINE SMOOTH",
"153 59 OFFCURVE",
"133 44 OFFCURVE",
"64 41 CURVE SMOOTH",
"43 40 LINE",
"43 0 LINE",
"409 0 LINE SMOOTH",
"442 0 OFFCURVE",
"501 -2 OFFCURVE",
"553 -6 CURVE"
);
}
);
width = 638;
}
);
leftKerningGroup = H;
rightKerningGroup = E;
unicode = 0045;
},
{
color = 6;
glyphname = F;
lastChange = "2023-09-29 09:16:19 +0000";
layers = (
{
anchors = (
{
name = bottom;
position = "{301, 0}";
},
{
name = top;
position = "{301, 700}";
}
);
layerId = "CFBFE906-6BC9-42DE-B086-7F9578F7A428";
paths = (
{
closed = 1;
nodes = (
"367 0 LINE",
"367 40 LINE",
"346 41 LINE SMOOTH",
"268 45 OFFCURVE",
"247 59 OFFCURVE",
"247 108 CURVE SMOOTH",
"247 321 LINE",
"437 321 LINE SMOOTH",
"485 321 OFFCURVE",
"502 304 OFFCURVE",
"504 252 CURVE SMOOTH",
"505 231 LINE",
"545 231 LINE",
"545 459 LINE",
"505 459 LINE",
"504 438 LINE SMOOTH",
"502 386 OFFCURVE",
"485 369 OFFCURVE",
"437 369 CURVE SMOOTH",
"247 369 LINE",
"247 602 LINE",
"247 652 LINE",
"394 652 LINE SMOOTH",
"463 652 OFFCURVE",
"499 620 OFFCURVE",
"517 544 CURVE",
"558 544 LINE",
"544 706 LINE",
"497 700 OFFCURVE",
"450 700 OFFCURVE",
"403 700 CURVE SMOOTH",
"43 700 LINE",
"43 660 LINE",
"64 659 LINE SMOOTH",
"133 656 OFFCURVE",
"153 641 OFFCURVE",
"153 592 CURVE SMOOTH",
"153 108 LINE SMOOTH",
"153 59 OFFCURVE",
"133 44 OFFCURVE",
"64 41 CURVE SMOOTH",
"43 40 LINE",
"43 0 LINE"
);
}
);
width = 610;
}
);
leftKerningGroup = H;
unicode = 0046;
},
{
color = 6;
glyphname = G;
lastChange = "2023-09-29 09:16:19 +0000";
layers = (
{
anchors = (
{
name = bottom;
position = "{411, 0}";
},
{
name = top;
position = "{401, 700}";
}
);
layerId = "CFBFE906-6BC9-42DE-B086-7F9578F7A428";
paths = (
{
closed = 1;
nodes = (
"206 710 OFFCURVE",
"51 543 OFFCURVE",
"51 340 CURVE SMOOTH",
"51 138 OFFCURVE",
"196 -10 OFFCURVE",
"422 -10 CURVE SMOOTH",
"518 -10 OFFCURVE",
"593 15 OFFCURVE",
"649 39 CURVE",
"649 212 LINE SMOOTH",
"649 254 OFFCURVE",
"659 274 OFFCURVE",
"698 278 CURVE SMOOTH",
"719 280 LINE",
"719 320 LINE",
"440 320 LINE",
"440 280 LINE",
"461 279 LINE SMOOTH",
"544 275 OFFCURVE",
"560 257 OFFCURVE",
"560 222 CURVE SMOOTH",
"560 108 LINE SMOOTH",
"560 49 OFFCURVE",
"503 42 OFFCURVE",
"450 42 CURVE SMOOTH",
"251 42 OFFCURVE",
"152 202 OFFCURVE",
"152 366 CURVE SMOOTH",
"152 537 OFFCURVE",
"251 658 OFFCURVE",
"425 658 CURVE SMOOTH",
"551 658 OFFCURVE",
"619 600 OFFCURVE",
"640 520 CURVE",
"681 520 LINE",
"681 654 LINE",
"619 683 OFFCURVE",
"548 710 OFFCURVE",
"442 710 CURVE SMOOTH"
);
}
);
width = 759;
}
);
leftKerningGroup = O;
rightKerningGroup = G;
unicode = 0047;
},
{
color = 6;
glyphname = H;
lastChange = "2023-09-29 09:16:19 +0000";
layers = (
{
anchors = (
{
name = bottom;
position = "{440, 0}";
},
{
name = center;
position = "{440, 350}";
},
{
name = top;
position = "{440, 700}";
},
{
name = topleft;
position = "{25, 700}";
}
);
layerId = "CFBFE906-6BC9-42DE-B086-7F9578F7A428";
paths = (
{
closed = 1;
nodes = (
"837 0 LINE",
"837 40 LINE",
"816 41 LINE SMOOTH",
"737 45 OFFCURVE",
"727 66 OFFCURVE",
"727 108 CURVE SMOOTH",
"727 592 LINE SMOOTH",
"727 634 OFFCURVE",
"737 655 OFFCURVE",
"816 659 CURVE SMOOTH",
"837 660 LINE",
"837 700 LINE",
"523 700 LINE",
"523 660 LINE",
"544 659 LINE SMOOTH",
"623 655 OFFCURVE",
"633 634 OFFCURVE",
"633 592 CURVE SMOOTH",
"633 108 LINE SMOOTH",
"633 66 OFFCURVE",
"623 45 OFFCURVE",
"544 41 CURVE SMOOTH",
"523 40 LINE",
"523 0 LINE"
);
},
{
closed = 1;
nodes = (
"357 0 LINE",
"357 40 LINE",
"336 41 LINE SMOOTH",
"257 45 OFFCURVE",
"247 66 OFFCURVE",
"247 108 CURVE SMOOTH",
"247 592 LINE SMOOTH",
"247 634 OFFCURVE",
"257 655 OFFCURVE",
"336 659 CURVE SMOOTH",
"357 660 LINE",
"357 700 LINE",
"43 700 LINE",
"43 660 LINE",
"64 659 LINE SMOOTH",
"143 655 OFFCURVE",
"153 634 OFFCURVE",
"153 592 CURVE SMOOTH",
"153 108 LINE SMOOTH",
"153 66 OFFCURVE",
"143 45 OFFCURVE",
"64 41 CURVE SMOOTH",
"43 40 LINE",
"43 0 LINE"
);
},
{
closed = 1;
nodes = (
"667 345 LINE",
"667 393 LINE",
"203 393 LINE",
"203 345 LINE"
);
}
);
width = 880;
}
);
leftKerningGroup = H;
rightKerningGroup = H;
unicode = 0048;
},
{
color = 3;
glyphname = Hbar;
lastChange = "2023-09-29 09:16:19 +0000";
layers = (
{
components = (
{
name = H;
transform = "{1, 0, 0, 1, 3, 0}";
}
);
guideLines = (
{
angle = 90;
position = "{770, 700}";
},
{
angle = 90;
position = "{373, 660}";
},
{
angle = 90;
position = "{1167, 660}";
}
);
layerId = "CFBFE906-6BC9-42DE-B086-7F9578F7A428";
paths = (
{
closed = 1;
nodes = (
"840 505 LINE",
"840 553 LINE",
"46 553 LINE",
"46 505 LINE"
);
}
);
width = 885;
}
);
leftKerningGroup = H;
rightKerningGroup = H;
unicode = 0126;
},
{
color = 6;
glyphname = I;
lastChange = "2023-09-29 09:16:19 +0000";
layers = (
{
anchors = (
{
name = bottom;
position = "{200, 0}";
},
{
name = ogonek;
position = "{278, 0}";
},
{
name = top;
position = "{200, 700}";
},
{
name = topleft;
position = "{25, 700}";
}
);
layerId = "CFBFE906-6BC9-42DE-B086-7F9578F7A428";
paths = (
{
closed = 1;
nodes = (
"357 0 LINE",
"357 40 LINE",
"336 41 LINE SMOOTH",
"257 45 OFFCURVE",
"247 66 OFFCURVE",
"247 108 CURVE SMOOTH",
"247 592 LINE SMOOTH",
"247 634 OFFCURVE",
"257 655 OFFCURVE",
"336 659 CURVE SMOOTH",
"357 660 LINE",
"357 700 LINE",
"43 700 LINE",
"43 660 LINE",
"64 659 LINE SMOOTH",
"143 655 OFFCURVE",
"153 634 OFFCURVE",
"153 592 CURVE SMOOTH",
"153 108 LINE SMOOTH",
"153 66 OFFCURVE",
"143 45 OFFCURVE",
"64 41 CURVE SMOOTH",
"43 40 LINE",
"43 0 LINE"
);
}
);
width = 400;
}
);
leftKerningGroup = H;
rightKerningGroup = H;
unicode = 0049;
},
{
color = 6;
glyphname = J;
lastChange = "2023-09-29 09:16:19 +0000";
layers = (
{
anchors = (
{
name = bottom;
position = "{233, 0}";
},
{
name = top;
position = "{282, 700}";
}
);
layerId = "CFBFE906-6BC9-42DE-B086-7F9578F7A428";
paths = (
{
closed = 1;
nodes = (
"261 -10 OFFCURVE",
"330 100 OFFCURVE",
"330 241 CURVE SMOOTH",
"330 596 LINE SMOOTH",
"330 640 OFFCURVE",
"352 655 OFFCURVE",
"419 659 CURVE SMOOTH",
"435 660 LINE",
"435 700 LINE",
"121 700 LINE",
"121 660 LINE",
"147 659 LINE SMOOTH",
"213 656 OFFCURVE",
"236 640 OFFCURVE",
"236 596 CURVE SMOOTH",
"236 202 LINE SMOOTH",
"236 121 OFFCURVE",
"230 56 OFFCURVE",
"182 56 CURVE SMOOTH",
"175 56 OFFCURVE",
"160 57 OFFCURVE",
"147 62 CURVE SMOOTH",
"77 87 LINE SMOOTH",
"44 99 OFFCURVE",
"4 83 OFFCURVE",
"4 41 CURVE SMOOTH",
"4 13 OFFCURVE",
"43 -10 OFFCURVE",
"105 -10 CURVE SMOOTH"
);
}
);
width = 463;
}
);
leftKerningGroup = J;
rightKerningGroup = J;
unicode = 004A;
},
{
color = 6;
glyphname = K;
lastChange = "2023-09-29 09:16:19 +0000";
layers = (
{
anchors = (
{
name = bottom;
position = "{380, 0}";
},
{
name = top;
position = "{380, 700}";
}
);
layerId = "CFBFE906-6BC9-42DE-B086-7F9578F7A428";
paths = (
{
closed = 1;
nodes = (
"612 608 LINE SMOOTH",
"652 645 OFFCURVE",
"688 655 OFFCURVE",
"724 658 CURVE SMOOTH",
"745 660 LINE",
"745 700 LINE",
"477 700 LINE",
"477 660 LINE",
"498 659 LINE SMOOTH",
"561 656 OFFCURVE",
"565 631 OFFCURVE",
"516 584 CURVE SMOOTH",
"230 314 LINE",
"239 257 LINE"
);
},
{
closed = 1;
nodes = (
"357 0 LINE",
"357 40 LINE",
"336 41 LINE SMOOTH",
"267 44 OFFCURVE",
"247 59 OFFCURVE",
"247 108 CURVE SMOOTH",
"247 592 LINE SMOOTH",
"247 641 OFFCURVE",
"267 656 OFFCURVE",
"326 659 CURVE SMOOTH",
"347 660 LINE",
"347 700 LINE",
"43 700 LINE",
"43 660 LINE",
"64 659 LINE SMOOTH",
"133 656 OFFCURVE",
"153 641 OFFCURVE",
"153 592 CURVE SMOOTH",
"153 108 LINE SMOOTH",
"153 59 OFFCURVE",
"133 44 OFFCURVE",
"64 41 CURVE SMOOTH",
"43 40 LINE",
"43 0 LINE"
);
},
{
closed = 1;
nodes = (
"735 0 LINE",
"735 40 LINE",
"684 46 OFFCURVE",
"653 54 OFFCURVE",
"619 101 CURVE SMOOTH",
"392 415 LINE",
"328 356 LINE",
"505 108 LINE SMOOTH",
"527 78 OFFCURVE",
"526 47 OFFCURVE",
"481 43 CURVE SMOOTH",
"448 40 LINE",
"448 0 LINE"
);
}
);
width = 763;
}
);
leftKerningGroup = H;
rightKerningGroup = K;
unicode = 004B;
},
{
color = 6;
glyphname = L;
lastChange = "2023-09-29 09:16:19 +0000";
layers = (
{
anchors = (
{
name = bottom;
position = "{307, 0}";
},
{
name = center;
position = "{307, 350}";
},
{
name = top;
position = "{202, 700}";
},
{
name = topright;
position = "{589, 700}";
}
);
layerId = "CFBFE906-6BC9-42DE-B086-7F9578F7A428";
paths = (
{
closed = 1;
nodes = (
"599 191 LINE",
"557 191 LINE",
"531 85 OFFCURVE",
"482 49 OFFCURVE",
"383 49 CURVE SMOOTH",
"290 49 OFFCURVE",
"247 45 OFFCURVE",
"247 108 CURVE SMOOTH",
"247 592 LINE",
"153 592 LINE",
"153 108 LINE SMOOTH",
"153 60 OFFCURVE",
"134 44 OFFCURVE",
"64 41 CURVE SMOOTH",
"43 40 LINE",
"43 0 LINE",
"429 0 LINE SMOOTH",
"471 0 OFFCURVE",
"534 -3 OFFCURVE",
"573 -6 CURVE"
);
},
{
closed = 1;
nodes = (
"247 592 LINE",
"247 641 OFFCURVE",
"267 656 OFFCURVE",
"336 659 CURVE SMOOTH",
"357 660 LINE",
"357 700 LINE",
"43 700 LINE",
"43 660 LINE",
"64 659 LINE SMOOTH",
"133 656 OFFCURVE",
"153 641 OFFCURVE",
"153 592 CURVE"
);
}
);
width = 616;
}
);
leftKerningGroup = H;
rightKerningGroup = L;
unicode = 004C;
},
{
color = 3;
glyphname = Lcaron;
lastChange = "2023-09-29 09:16:19 +0000";
layers = (
{
anchors = (
{
name = bottom;
position = "{310, 0}";
},
{
name = center;
position = "{310, 350}";
},
{
name = top;
position = "{310, 880}";
},
{
name = topright;
position = "{592, 700}";
}
);
components = (
{
name = L;
}
);
layerId = "CFBFE906-6BC9-42DE-B086-7F9578F7A428";
paths = (
{
closed = 1;
nodes = (
"525 530 OFFCURVE",
"563 571 OFFCURVE",
"563 632 CURVE SMOOTH",
"563 672 OFFCURVE",
"540 710 OFFCURVE",
"495 710 CURVE SMOOTH",
"461 710 OFFCURVE",
"436 686 OFFCURVE",
"436 654 CURVE SMOOTH",
"436 622 OFFCURVE",
"460 600 OFFCURVE",
"490 600 CURVE SMOOTH",
"521 600 OFFCURVE",
"544 623 OFFCURVE",
"544 655 CURVE",
"517 633 LINE",
"517 582 OFFCURVE",
"495 556 OFFCURVE",
"437 522 CURVE",
"457 494 LINE"
);
}
);
width = 624;
}
);
leftKerningGroup = H;
rightKerningGroup = L;
unicode = 013D;
},
{
color = 3;
glyphname = Lslash;
lastChange = "2023-09-29 09:16:19 +0000";
layers = (
{
components = (
{
name = L;
transform = "{1, 0, 0, 1, 16, 0}";
}
);
guideLines = (
{
angle = 90;
position = "{388, 40}";
}
);
layerId = "CFBFE906-6BC9-42DE-B086-7F9578F7A428";
paths = (
{
closed = 1;
nodes = (
"412 391 LINE",
"412 442 LINE",
"62 302 LINE",
"62 251 LINE"
);
}
);
width = 632;
}
);
rightKerningGroup = L;
unicode = 0141;
},
{
color = 6;
glyphname = M;
lastChange = "2023-09-29 09:16:19 +0000";
layers = (
{
anchors = (
{
name = bottom;
position = "{488, 0}";
},
{
name = top;
position = "{488, 700}";
}
);
layerId = "CFBFE906-6BC9-42DE-B086-7F9578F7A428";
paths = (
{
closed = 1;
nodes = (
"298 0 LINE",
"298 40 LINE",
"277 41 LINE SMOOTH",
"188 45 OFFCURVE",
"184 66 OFFCURVE",
"188 118 CURVE SMOOTH",
"223 579 LINE",
"440 0 LINE",
"479 0 LINE",
"706 621 LINE",
"692 624 LINE",
"736 131 LINE SMOOTH",
"741 74 OFFCURVE",
"736 48 OFFCURVE",
"680 43 CURVE SMOOTH",
"647 40 LINE",
"647 0 LINE",
"944 0 LINE",
"944 40 LINE",
"921 42 LINE SMOOTH",
"868 47 OFFCURVE",
"835 53 OFFCURVE",
"828 131 CURVE SMOOTH",
"787 582 LINE SMOOTH",
"782 634 OFFCURVE",
"790 651 OFFCURVE",
"864 658 CURVE SMOOTH",
"885 660 LINE",
"885 700 LINE",
"685 700 LINE",
"469 107 LINE",
"495 107 LINE",
"274 700 LINE",
"67 700 LINE",
"67 660 LINE",
"88 658 LINE SMOOTH",
"162 651 OFFCURVE",
"180 634 OFFCURVE",
"175 582 CURVE SMOOTH",
"132 118 LINE SMOOTH",
"127 66 OFFCURVE",
"122 49 OFFCURVE",
"53 42 CURVE SMOOTH",
"32 40 LINE",
"32 0 LINE"
);
}
);
width = 965;
}
);
leftKerningGroup = H;
rightKerningGroup = H;
unicode = 004D;
},
{
color = 6;
glyphname = N;
lastChange = "2023-09-29 09:16:19 +0000";
layers = (
{
anchors = (
{
name = bottom;
position = "{432, 0}";
},
{
name = top;
position = "{432, 700}";
}
);
layerId = "CFBFE906-6BC9-42DE-B086-7F9578F7A428";
paths = (
{
closed = 1;
nodes = (
"717 -8 LINE",
"690 135 LINE",
"219 700 LINE",
"174 611 LINE",
"689 -8 LINE"
);
},
{
closed = 1;
nodes = (
"314 0 LINE",
"314 40 LINE",
"293 41 LINE SMOOTH",
"214 45 OFFCURVE",
"204 66 OFFCURVE",
"204 118 CURVE SMOOTH",
"204 276 OFFCURVE",
"201 444 OFFCURVE",
"199 612 CURVE",
"151 592 LINE",
"148 118 LINE SMOOTH",
"148 66 OFFCURVE",
"138 49 OFFCURVE",
"69 42 CURVE SMOOTH",
"48 40 LINE",
"48 0 LINE"
);
},
{
closed = 1;
nodes = (
"199 612 LINE",
"222 670 LINE",
"219 700 LINE",
"43 700 LINE",
"43 660 LINE",
"64 658 LINE SMOOTH",
"138 651 OFFCURVE",
"151 634 OFFCURVE",
"151 592 CURVE"
);
},
{
closed = 1;
nodes = (
"720 582 LINE SMOOTH",
"720 634 OFFCURVE",
"730 651 OFFCURVE",
"799 658 CURVE SMOOTH",
"820 660 LINE",
"820 700 LINE",
"554 700 LINE",
"554 660 LINE",
"575 659 LINE SMOOTH",
"654 655 OFFCURVE",
"664 634 OFFCURVE",
"664 582 CURVE SMOOTH",
"664 461 OFFCURVE",
"666 320 OFFCURVE",
"668 149 CURVE",
"664 22 LINE",
"717 -8 LINE"
);
}
);
width = 856;
}
);
leftKerningGroup = N;
rightKerningGroup = N;
unicode = 004E;
},
{
color = 6;
glyphname = O;
lastChange = "2023-09-29 09:16:19 +0000";
layers = (
{
anchors = (
{
name = bottom;
position = "{423, 0}";
},
{
name = center;
position = "{423, 350}";
},
{
name = ogonek;
position = "{756, 10}";
},
{
name = top;
position = "{421, 700}";
},
{
name = topleft;
position = "{27, 700}";
},
{
name = topright;
position = "{819, 700}";
}
);
layerId = "CFBFE906-6BC9-42DE-B086-7F9578F7A428";
paths = (
{
closed = 1;
nodes = (
"641 -10 OFFCURVE",
"794 136 OFFCURVE",
"794 349 CURVE SMOOTH",
"794 567 OFFCURVE",
"649 710 OFFCURVE",
"430 710 CURVE SMOOTH",
"205 710 OFFCURVE",
"52 564 OFFCURVE",
"52 350 CURVE SMOOTH",
"52 133 OFFCURVE",
"197 -10 OFFCURVE",
"418 -10 CURVE SMOOTH"
);
},
{
closed = 1;
nodes = (
"276 47 OFFCURVE",
"153 189 OFFCURVE",
"153 386 CURVE SMOOTH",
"153 548 OFFCURVE",
"250 653 OFFCURVE",
"400 653 CURVE SMOOTH",
"570 653 OFFCURVE",
"693 511 OFFCURVE",
"693 314 CURVE SMOOTH",
"693 152 OFFCURVE",
"596 47 OFFCURVE",
"446 47 CURVE SMOOTH"
);
}
);
width = 846;
}
);
leftKerningGroup = O;
rightKerningGroup = O;
unicode = 004F;
},
{
color = 3;
glyphname = Oslash;
lastChange = "2023-09-29 09:16:19 +0000";
layers = (
{
anchors = (
{
name = bottom;
position = "{308, 0}";
},
{
name = top;
position = "{308, 700}";
}
);
components = (
{
name = O;
}
);
layerId = "CFBFE906-6BC9-42DE-B086-7F9578F7A428";
paths = (
{
closed = 1;
nodes = (
"216 -48 LINE",
"691 748 LINE",
"633 748 LINE",
"158 -48 LINE"
);
}
);
width = 846;
}
);
leftKerningGroup = O;
rightKerningGroup = O;
unicode = 00D8;
},
{
color = 6;
glyphname = OE;
lastChange = "2023-09-29 09:16:19 +0000";
layers = (
{
anchors = (
{
name = bottom;
position = "{337, 0}";
},
{
name = center;
position = "{453, 350}";
},
{
name = ogonek;
position = "{1414, 10}";
},
{
name = top;
position = "{337, 700}";
},
{
name = topleft;
position = "{889, 700}";
},
{
name = topright;
position = "{849, 700}";
}
);
layerId = "CFBFE906-6BC9-42DE-B086-7F9578F7A428";
paths = (
{
closed = 1;
nodes = (
"457 -10 OFFCURVE",
"522 0 OFFCURVE",
"577 0 CURVE SMOOTH",
"769 0 LINE SMOOTH",
"802 0 OFFCURVE",
"861 -2 OFFCURVE",
"913 -6 CURVE",
"939 191 LINE",
"897 191 LINE",
"872 89 OFFCURVE",
"826 49 OFFCURVE",
"733 49 CURVE SMOOTH",
"638 49 OFFCURVE",
"605 45 OFFCURVE",
"605 108 CURVE SMOOTH",
"605 334 LINE",
"806 334 LINE SMOOTH",
"854 334 OFFCURVE",
"870 317 OFFCURVE",
"873 265 CURVE SMOOTH",
"874 249 LINE",
"914 249 LINE",
"914 467 LINE",
"874 467 LINE",
"873 451 LINE SMOOTH",
"870 399 OFFCURVE",
"854 382 OFFCURVE",
"806 382 CURVE SMOOTH",
"605 382 LINE",
"605 652 LINE",
"763 652 LINE SMOOTH",
"832 652 OFFCURVE",
"868 620 OFFCURVE",
"886 544 CURVE",
"927 544 LINE",
"912 706 LINE",
"865 700 OFFCURVE",
"818 700 OFFCURVE",
"771 700 CURVE SMOOTH",
"643 700 LINE SMOOTH",
"544 700 OFFCURVE",
"493 710 OFFCURVE",
"430 710 CURVE SMOOTH",
"205 710 OFFCURVE",
"52 564 OFFCURVE",
"52 350 CURVE SMOOTH",
"52 133 OFFCURVE",
"197 -10 OFFCURVE",
"418 -10 CURVE SMOOTH"
);
},
{
closed = 1;
nodes = (
"276 47 OFFCURVE",
"153 189 OFFCURVE",
"153 386 CURVE SMOOTH",
"153 548 OFFCURVE",
"250 655 OFFCURVE",
"410 655 CURVE SMOOTH",
"437 655 OFFCURVE",
"461 655 OFFCURVE",
"513 644 CURVE",
"513 54 LINE",
"501 49 OFFCURVE",
"459 47 OFFCURVE",
"446 47 CURVE SMOOTH"
);
}
);
width = 998;
}
);
leftKerningGroup = O;
rightKerningGroup = E;
unicode = 0152;
},
{
color = 6;
glyphname = P;
lastChange = "2023-09-29 09:16:19 +0000";
layers = (
{
anchors = (
{
name = bottom;
position = "{309, 0}";
},
{
name = top;
position = "{309, 700}";
}
);
layerId = "CFBFE906-6BC9-42DE-B086-7F9578F7A428";
paths = (
{
closed = 1;
nodes = (
"367 0 LINE",
"367 40 LINE",
"346 41 LINE SMOOTH",
"257 45 OFFCURVE",
"247 66 OFFCURVE",
"247 108 CURVE SMOOTH",
"247 622 LINE SMOOTH",
"247 653 OFFCURVE",
"287 658 OFFCURVE",
"337 658 CURVE SMOOTH",
"437 658 OFFCURVE",
"481 602 OFFCURVE",
"481 514 CURVE SMOOTH",
"481 401 OFFCURVE",
"402 353 OFFCURVE",
"297 353 CURVE SMOOTH",
"221 353 LINE",
"221 307 LINE",
"325 308 LINE SMOOTH",
"501 309 OFFCURVE",
"583 406 OFFCURVE",
"583 524 CURVE SMOOTH",
"583 631 OFFCURVE",
"511 700 OFFCURVE",
"344 700 CURVE SMOOTH",
"43 700 LINE",
"43 660 LINE",
"64 659 LINE SMOOTH",
"143 655 OFFCURVE",
"153 634 OFFCURVE",
"153 592 CURVE SMOOTH",
"153 108 LINE SMOOTH",
"153 66 OFFCURVE",
"143 45 OFFCURVE",
"64 41 CURVE SMOOTH",
"43 40 LINE",
"43 0 LINE"
);
}
);
width = 612;
}
);
leftKerningGroup = H;
unicode = 0050;
},
{
color = 6;
glyphname = Thorn;
lastChange = "2023-09-29 09:16:19 +0000";
layers = (
{
anchors = (
{
name = bottom;
position = "{305, 0}";
},
{
name = top;
position = "{305, 700}";
}
);
layerId = "CFBFE906-6BC9-42DE-B086-7F9578F7A428";
paths = (
{
closed = 1;
nodes = (
"367 0 LINE",
"367 40 LINE",
"346 41 LINE SMOOTH",
"257 45 OFFCURVE",
"247 66 OFFCURVE",
"247 108 CURVE SMOOTH",
"247 162 LINE",
"325 163 LINE SMOOTH",
"501 165 OFFCURVE",
"583 261 OFFCURVE",
"583 379 CURVE SMOOTH",
"583 486 OFFCURVE",
"511 555 OFFCURVE",
"344 555 CURVE SMOOTH",
"247 555 LINE",
"247 592 LINE SMOOTH",
"247 634 OFFCURVE",
"257 655 OFFCURVE",
"346 659 CURVE SMOOTH",
"367 660 LINE",
"367 700 LINE",
"43 700 LINE",
"43 660 LINE",
"64 659 LINE SMOOTH",
"143 655 OFFCURVE",
"153 634 OFFCURVE",
"153 592 CURVE SMOOTH",
"153 108 LINE SMOOTH",
"153 66 OFFCURVE",
"143 45 OFFCURVE",
"64 41 CURVE SMOOTH",
"43 40 LINE",
"43 0 LINE"
);
},
{
closed = 1;
nodes = (
"247 477 LINE SMOOTH",
"247 508 OFFCURVE",
"287 513 OFFCURVE",
"337 513 CURVE SMOOTH",
"437 513 OFFCURVE",
"481 457 OFFCURVE",
"481 369 CURVE SMOOTH",
"481 255 OFFCURVE",
"402 207 OFFCURVE",
"297 207 CURVE SMOOTH",
"247 207 LINE"
);
}
);
width = 626;
}
);
leftKerningGroup = H;
unicode = 00DE;
},
{
color = 6;
glyphname = Q;
lastChange = "2023-09-29 09:16:19 +0000";
layers = (
{
anchors = (
{
name = bottom;
position = "{423, 0}";
},
{
name = top;
position = "{423, 700}";
}
);
layerId = "CFBFE906-6BC9-42DE-B086-7F9578F7A428";
paths = (
{
closed = 1;
nodes = (
"641 -10 OFFCURVE",
"794 136 OFFCURVE",
"794 349 CURVE SMOOTH",
"794 567 OFFCURVE",
"649 710 OFFCURVE",
"430 710 CURVE SMOOTH",
"205 710 OFFCURVE",
"52 564 OFFCURVE",
"52 350 CURVE SMOOTH",
"52 133 OFFCURVE",
"197 -10 OFFCURVE",
"418 -10 CURVE SMOOTH"
);
},
{
closed = 1;
nodes = (
"791 -94 LINE",
"791 10 LINE",
"463 10 LINE",
"453 -8 LINE",
"761 -94 LINE"
);
},
{
closed = 1;
nodes = (
"276 47 OFFCURVE",
"153 189 OFFCURVE",
"153 386 CURVE SMOOTH",
"153 548 OFFCURVE",
"250 653 OFFCURVE",
"400 653 CURVE SMOOTH",
"570 653 OFFCURVE",
"693 511 OFFCURVE",
"693 314 CURVE SMOOTH",
"693 152 OFFCURVE",
"596 47 OFFCURVE",
"446 47 CURVE SMOOTH"
);
}
);
width = 846;
}
);
leftKerningGroup = O;
rightKerningGroup = O;
unicode = 0051;
},
{
color = 6;
glyphname = R;
lastChange = "2023-09-29 09:16:19 +0000";
layers = (
{
anchors = (
{
name = bottom;
position = "{378, 0}";
},
{
name = top;
position = "{344, 700}";
}
);
layerId = "CFBFE906-6BC9-42DE-B086-7F9578F7A428";
paths = (
{
closed = 1;
nodes = (
"367 0 LINE",
"367 40 LINE",
"346 41 LINE SMOOTH",
"267 45 OFFCURVE",
"247 59 OFFCURVE",
"247 108 CURVE SMOOTH",
"247 331 LINE",
"310 331 LINE SMOOTH",
"414 331 OFFCURVE",
"463 235 OFFCURVE",
"489 81 CURVE SMOOTH",
"499 21 OFFCURVE",
"518 0 OFFCURVE",
"573 0 CURVE SMOOTH",
"661 0 LINE",
"661 40 LINE",
"638 41 LINE SMOOTH",
"606 42 OFFCURVE",
"593 59 OFFCURVE",
"589 83 CURVE SMOOTH",
"566 237 OFFCURVE",
"523 318 OFFCURVE",
"420 348 CURVE",
"560 372 OFFCURVE",
"603 453 OFFCURVE",
"603 527 CURVE SMOOTH",
"603 640 OFFCURVE",
"521 700 OFFCURVE",
"354 700 CURVE SMOOTH",
"43 700 LINE",
"43 660 LINE",
"64 659 LINE SMOOTH",
"133 656 OFFCURVE",
"153 641 OFFCURVE",
"153 592 CURVE SMOOTH",
"153 108 LINE SMOOTH",
"153 59 OFFCURVE",
"133 44 OFFCURVE",
"64 41 CURVE SMOOTH",
"43 40 LINE",
"43 0 LINE"
);
},
{
closed = 1;
nodes = (
"247 622 LINE SMOOTH",
"247 648 OFFCURVE",
"273 658 OFFCURVE",
"347 658 CURVE SMOOTH",
"449 658 OFFCURVE",
"501 611 OFFCURVE",
"501 524 CURVE SMOOTH",
"501 440 OFFCURVE",
"435 377 OFFCURVE",
"336 377 CURVE SMOOTH",
"247 377 LINE"
);
}
);
width = 688;
}
);
leftKerningGroup = H;
rightKerningGroup = R;
unicode = 0052;
},
{
color = 6;
glyphname = S;
lastChange = "2023-09-29 09:16:19 +0000";
layers = (
{
anchors = (
{
name = bottom;
position = "{285, 0}";
},
{
name = top;
position = "{285, 700}";
}
);
layerId = "CFBFE906-6BC9-42DE-B086-7F9578F7A428";
paths = (
{
closed = 1;
nodes = (
"394 -10 OFFCURVE",
"501 72 OFFCURVE",
"501 190 CURVE SMOOTH",
"501 280 OFFCURVE",
"457 321 OFFCURVE",
"360 374 CURVE SMOOTH",
"244 437 LINE SMOOTH",
"192 465 OFFCURVE",
"158 503 OFFCURVE",
"158 550 CURVE SMOOTH",
"158 618 OFFCURVE",
"206 660 OFFCURVE",
"292 660 CURVE SMOOTH",
"366 660 OFFCURVE",
"416 626 OFFCURVE",
"430 546 CURVE",
"471 546 LINE",
"471 672 LINE",
"421 702 OFFCURVE",
"369 710 OFFCURVE",
"312 710 CURVE SMOOTH",
"167 710 OFFCURVE",
"74 623 OFFCURVE",
"74 517 CURVE SMOOTH",
"74 441 OFFCURVE",
"119 396 OFFCURVE",
"202 350 CURVE SMOOTH",
"313 289 LINE SMOOTH",
"381 251 OFFCURVE",
"410 215 OFFCURVE",
"410 159 CURVE SMOOTH",
"410 85 OFFCURVE",
"351 41 OFFCURVE",
"278 41 CURVE SMOOTH",
"176 41 OFFCURVE",
"119 101 OFFCURVE",
"109 209 CURVE",
"68 209 LINE",
"68 42 LINE",
"140 -2 OFFCURVE",
"196 -10 OFFCURVE",
"259 -10 CURVE SMOOTH"
);
}
);
width = 558;
}
);
leftKerningGroup = S;
rightKerningGroup = S;
unicode = 0053;
},
{
color = 6;
glyphname = Germandbls;
lastChange = "2023-09-29 09:16:19 +0000";
layers = (
{
anchors = (
{
name = bottom;
position = "{325, 0}";
},
{
name = top;
position = "{325, 700}";
}
);
layerId = "CFBFE906-6BC9-42DE-B086-7F9578F7A428";
paths = (
{
closed = 1;
nodes = (
"357 0 LINE",
"357 40 LINE",
"336 41 LINE SMOOTH",
"257 45 OFFCURVE",
"247 66 OFFCURVE",
"247 108 CURVE SMOOTH",
"247 700 LINE",
"43 700 LINE",
"43 660 LINE",
"64 659 LINE SMOOTH",
"143 655 OFFCURVE",
"153 634 OFFCURVE",
"153 592 CURVE SMOOTH",
"153 108 LINE SMOOTH",
"153 66 OFFCURVE",
"143 45 OFFCURVE",
"64 41 CURVE SMOOTH",
"43 40 LINE",
"43 0 LINE"
);
},
{
closed = 1;
nodes = (
"662 -10 OFFCURVE",
"764 68 OFFCURVE",
"764 190 CURVE SMOOTH",
"764 272 OFFCURVE",
"719 331 OFFCURVE",
"601 384 CURVE SMOOTH",
"490 434 LINE",
"430 354 LINE",
"554 299 LINE SMOOTH",
"648 257 OFFCURVE",
"678 212 OFFCURVE",
"678 153 CURVE SMOOTH",
"678 87 OFFCURVE",
"621 41 OFFCURVE",
"558 41 CURVE SMOOTH",
"491 41 OFFCURVE",
"438 84 OFFCURVE",
"427 179 CURVE",
"387 179 LINE",
"387 32 LINE",
"448 -5 OFFCURVE",
"507 -10 OFFCURVE",
"549 -10 CURVE SMOOTH"
);
},
{
closed = 1;
nodes = (
"459 354 LINE",
"734 650 LINE",
"734 676 LINE",
"715 696 LINE",
"430 390 LINE",
"430 354 LINE"
);
},
{
closed = 1;
nodes = (
"734 652 LINE",
"734 700 LINE",
"163 700 LINE",
"163 652 LINE"
);
}
);
width = 815;
}
);
leftKerningGroup = H;
unicode = 1E9E;
},
{
color = 6;
glyphname = T;
lastChange = "2023-09-29 09:16:19 +0000";
layers = (
{
anchors = (
{
name = bottom;
position = "{344, 0}";
},
{
name = center;
position = "{344, 350}";
},
{
name = top;
position = "{344, 700}";
}
);
layerId = "CFBFE906-6BC9-42DE-B086-7F9578F7A428";
paths = (
{
closed = 1;
nodes = (
"297 66 OFFCURVE",
"287 45 OFFCURVE",
"203 41 CURVE SMOOTH",
"182 40 LINE",
"182 0 LINE",
"506 0 LINE",
"506 40 LINE",
"485 41 LINE SMOOTH",
"401 45 OFFCURVE",
"391 66 OFFCURVE",
"391 108 CURVE SMOOTH",
"391 655 LINE",
"487 651 LINE SMOOTH",
"599 646 OFFCURVE",
"621 570 OFFCURVE",
"624 522 CURVE",
"665 522 LINE",
"656 706 LINE",
"617 703 OFFCURVE",
"554 700 OFFCURVE",
"512 700 CURVE SMOOTH",
"176 700 LINE SMOOTH",
"134 700 OFFCURVE",
"71 703 OFFCURVE",
"32 706 CURVE",
"23 522 LINE",
"64 522 LINE",
"67 570 OFFCURVE",
"89 646 OFFCURVE",
"201 651 CURVE SMOOTH",
"297 655 LINE",
"297 108 LINE SMOOTH"
);
}
);
width = 688;
}
);
leftKerningGroup = T;
rightKerningGroup = T;
unicode = 0054;
},
{
color = 6;
glyphname = U;
lastChange = "2023-09-29 09:16:19 +0000";
layers = (
{
anchors = (
{
name = bottom;
position = "{407, 0}";
},
{
name = ogonek;
position = "{499, 0}";
},
{
name = top;
position = "{407, 700}";
},
{
name = topright;
position = "{803, 700}";
}
);
layerId = "CFBFE906-6BC9-42DE-B086-7F9578F7A428";
paths = (
{
closed = 1;
nodes = (
"597 -10 OFFCURVE",
"685 93 OFFCURVE",
"685 318 CURVE SMOOTH",
"685 592 LINE SMOOTH",
"685 640 OFFCURVE",
"704 656 OFFCURVE",
"764 659 CURVE SMOOTH",
"785 660 LINE",
"785 700 LINE",
"530 700 LINE",
"530 660 LINE",
"551 659 LINE SMOOTH",
"611 656 OFFCURVE",
"630 640 OFFCURVE",
"630 592 CURVE SMOOTH",
"630 331 LINE SMOOTH",
"630 133 OFFCURVE",
"569 47 OFFCURVE",
"432 47 CURVE SMOOTH",
"292 47 OFFCURVE",
"222 134 OFFCURVE",
"222 305 CURVE SMOOTH",
"222 592 LINE SMOOTH",
"222 640 OFFCURVE",
"241 656 OFFCURVE",
"301 659 CURVE SMOOTH",
"322 660 LINE",
"322 700 LINE",
"28 700 LINE",
"28 660 LINE",
"49 659 LINE SMOOTH",
"109 656 OFFCURVE",
"128 640 OFFCURVE",
"128 592 CURVE SMOOTH",
"128 289 LINE SMOOTH",
"128 89 OFFCURVE",
"221 -10 OFFCURVE",
"407 -10 CURVE SMOOTH"
);
}
);
width = 813;
}
);
leftKerningGroup = U;
rightKerningGroup = U;
unicode = 0055;
},
{
color = 6;
glyphname = V;
lastChange = "2023-09-29 09:16:19 +0000";
layers = (
{
anchors = (
{
name = bottom;
position = "{372, 0}";
},
{
name = top;
position = "{372, 700}";
}
);
layerId = "CFBFE906-6BC9-42DE-B086-7F9578F7A428";
paths = (
{
closed = 1;
nodes = (
"388 -5 LINE",
"619 569 LINE SMOOTH",
"641 623 OFFCURVE",
"670 650 OFFCURVE",
"713 656 CURVE SMOOTH",
"741 660 LINE",
"741 700 LINE",
"473 700 LINE",
"473 660 LINE",
"502 658 LINE SMOOTH",
"567 654 OFFCURVE",
"578 623 OFFCURVE",
"557 569 CURVE SMOOTH",
"390 131 LINE",
"220 569 LINE SMOOTH",
"199 623 OFFCURVE",
"219 652 OFFCURVE",
"275 657 CURVE SMOOTH",
"308 660 LINE",
"308 700 LINE",
"2 700 LINE",
"2 660 LINE",
"25 658 LINE SMOOTH",
"78 653 OFFCURVE",
"96 623 OFFCURVE",
"118 569 CURVE SMOOTH",
"348 -5 LINE"
);
}
);
width = 737;
}
);
leftKerningGroup = V;
rightKerningGroup = V;
unicode = 0056;
},
{
color = 6;
glyphname = W;
lastChange = "2023-09-29 09:16:19 +0000";
layers = (
{
anchors = (
{
name = bottom;
position = "{533, 0}";
},
{
name = top;
position = "{533, 700}";
}
);
layerId = "CFBFE906-6BC9-42DE-B086-7F9578F7A428";
paths = (
{
closed = 1;
nodes = (
"372 -5 LINE",
"551 513 LINE",
"528 514 LINE",
"694 -5 LINE",
"739 -5 LINE",
"942 569 LINE SMOOTH",
"961 623 OFFCURVE",
"993 650 OFFCURVE",
"1036 656 CURVE SMOOTH",
"1064 660 LINE",
"1064 700 LINE",
"799 700 LINE",
"799 660 LINE",
"828 658 LINE SMOOTH",
"893 654 OFFCURVE",
"904 624 OFFCURVE",
"885 569 CURVE SMOOTH",
"736 131 LINE",
"605 569 LINE SMOOTH",
"588 625 OFFCURVE",
"605 655 OFFCURVE",
"661 658 CURVE SMOOTH",
"694 660 LINE",
"694 700 LINE",
"404 700 LINE",
"404 660 LINE",
"427 658 LINE SMOOTH",
"480 653 OFFCURVE",
"493 623 OFFCURVE",
"513 560 CURVE",
"369 131 LINE",
"219 569 LINE SMOOTH",
"200 624 OFFCURVE",
"218 655 OFFCURVE",
"274 658 CURVE SMOOTH",
"307 660 LINE",
"307 700 LINE",
"1 700 LINE",
"1 660 LINE",
"24 658 LINE SMOOTH",
"77 653 OFFCURVE",
"97 623 OFFCURVE",
"117 569 CURVE SMOOTH",
"327 -5 LINE"
);
}
);
width = 1063;
}
);
leftKerningGroup = W;
rightKerningGroup = W;
unicode = 0057;
},
{
color = 6;
glyphname = X;
lastChange = "2023-09-29 09:16:19 +0000";
layers = (
{
anchors = (
{
name = bottom;
position = "{368, 0}";
},
{
name = top;
position = "{368, 700}";
}
);
layerId = "CFBFE906-6BC9-42DE-B086-7F9578F7A428";
paths = (
{
closed = 1;
nodes = (
"712 0 LINE",
"712 40 LINE",
"691 41 LINE SMOOTH",
"645 43 OFFCURVE",
"616 61 OFFCURVE",
"583 108 CURVE SMOOTH",
"256 592 LINE SMOOTH",
"227 634 OFFCURVE",
"242 656 OFFCURVE",
"302 659 CURVE SMOOTH",
"323 660 LINE",
"323 700 LINE",
"23 700 LINE",
"23 660 LINE",
"44 659 LINE SMOOTH",
"98 656 OFFCURVE",
"115 646 OFFCURVE",
"152 592 CURVE SMOOTH",
"479 108 LINE SMOOTH",
"508 66 OFFCURVE",
"493 44 OFFCURVE",
"433 41 CURVE SMOOTH",
"412 40 LINE",
"412 0 LINE"
);
},
{
closed = 1;
nodes = (
"284 0 LINE",
"284 40 LINE",
"263 41 LINE SMOOTH",
"202 44 OFFCURVE",
"187 66 OFFCURVE",
"217 108 CURVE SMOOTH",
"376 334 LINE",
"344 374 LINE",
"152 108 LINE SMOOTH",
"118 60 OFFCURVE",
"90 43 OFFCURVE",
"44 41 CURVE SMOOTH",
"23 40 LINE",
"23 0 LINE"
);
},
{
closed = 1;
nodes = (
"583 592 LINE SMOOTH",
"617 640 OFFCURVE",
"645 657 OFFCURVE",
"691 659 CURVE SMOOTH",
"712 660 LINE",
"712 700 LINE",
"451 700 LINE",
"451 660 LINE",
"472 659 LINE SMOOTH",
"533 656 OFFCURVE",
"548 634 OFFCURVE",
"518 592 CURVE SMOOTH",
"359 366 LINE",
"391 326 LINE"
);
}
);
width = 735;
}
);
unicode = 0058;
},
{
color = 6;
glyphname = Y;
lastChange = "2023-09-29 09:16:19 +0000";
layers = (
{
anchors = (
{
name = bottom;
position = "{333, 0}";
},
{
name = top;
position = "{333, 700}";
},
{
name = topleft;
position = "{25, 700}";
}
);
layerId = "CFBFE906-6BC9-42DE-B086-7F9578F7A428";
paths = (
{
closed = 1;
nodes = (
"500 0 LINE",
"500 40 LINE",
"479 41 LINE SMOOTH",
"395 45 OFFCURVE",
"385 66 OFFCURVE",
"385 108 CURVE SMOOTH",
"385 338 LINE",
"548 592 LINE SMOOTH",
"579 641 OFFCURVE",
"610 657 OFFCURVE",
"636 659 CURVE SMOOTH",
"657 660 LINE",
"657 700 LINE",
"416 700 LINE",
"416 660 LINE",
"437 659 LINE SMOOTH",
"498 656 OFFCURVE",
"514 633 OFFCURVE",
"486 589 CURVE SMOOTH",
"355 381 LINE",
"221 592 LINE SMOOTH",
"193 636 OFFCURVE",
"207 656 OFFCURVE",
"267 659 CURVE SMOOTH",
"288 660 LINE",
"288 700 LINE",
"8 700 LINE",
"8 660 LINE",
"29 659 LINE SMOOTH",
"63 657 OFFCURVE",
"82 646 OFFCURVE",
"117 592 CURVE SMOOTH",
"291 326 LINE",
"291 108 LINE SMOOTH",
"291 66 OFFCURVE",
"281 45 OFFCURVE",
"197 41 CURVE SMOOTH",
"176 40 LINE",
"176 0 LINE"
);
}
);
width = 669;
}
);
leftKerningGroup = Y;
rightKerningGroup = Y;
unicode = 0059;
},
{
color = 6;
glyphname = Z;
lastChange = "2023-09-29 09:16:19 +0000";
layers = (
{
anchors = (
{
name = bottom;
position = "{307, 0}";
},
{
name = center;
position = "{307, 350}";
},
{
name = top;
position = "{307, 700}";
}
);
layerId = "CFBFE906-6BC9-42DE-B086-7F9578F7A428";
paths = (
{
closed = 1;
nodes = (
"566 200 LINE",
"524 200 LINE",
"499 88 OFFCURVE",
"453 48 OFFCURVE",
"360 48 CURVE SMOOTH",
"162 48 LINE",
"564 660 LINE",
"564 700 LINE",
"206 700 LINE SMOOTH",
"173 700 OFFCURVE",
"117 702 OFFCURVE",
"65 706 CURVE",
"50 534 LINE",
"91 534 LINE",
"109 620 OFFCURVE",
"155 652 OFFCURVE",
"234 652 CURVE SMOOTH",
"449 652 LINE",
"48 40 LINE",
"48 0 LINE",
"396 0 LINE SMOOTH",
"429 0 OFFCURVE",
"488 -2 OFFCURVE",
"540 -6 CURVE"
);
}
);
width = 617;
}
);
leftKerningGroup = Z;
rightKerningGroup = Z;
unicode = 005A;
},
{
color = 6;
glyphname = T.alt;
lastChange = "2023-09-29 09:16:19 +0000";
layers = (
{
anchors = (
{
name = bottom;
position = "{341, 0}";
},
{
name = center;
position = "{341, 350}";
},
{
name = top;
position = "{341, 700}";
}
);
layerId = "CFBFE906-6BC9-42DE-B086-7F9578F7A428";
paths = (
{
closed = 1;
nodes = (
"503 0 LINE",
"503 40 LINE",
"482 41 LINE SMOOTH",
"398 45 OFFCURVE",
"388 66 OFFCURVE",
"388 108 CURVE SMOOTH",
"388 655 LINE",
"486 651 LINE SMOOTH",
"588 647 OFFCURVE",
"600 610 OFFCURVE",
"621 542 CURVE",
"662 542 LINE",
"654 706 LINE",
"615 703 OFFCURVE",
"552 700 OFFCURVE",
"510 700 CURVE",
"172 700 LINE",
"130 700 OFFCURVE",
"67 703 OFFCURVE",
"28 706 CURVE",
"20 542 LINE",
"61 542 LINE",
"82 610 OFFCURVE",
"94 647 OFFCURVE",
"196 651 CURVE SMOOTH",
"294 655 LINE",
"294 108 LINE SMOOTH",
"294 66 OFFCURVE",
"284 45 OFFCURVE",
"200 41 CURVE SMOOTH",
"179 40 LINE",
"179 0 LINE"
);
}
);
width = 682;
}
);
leftKerningGroup = T.alt;
rightKerningGroup = T.alt;
},
{
color = 6;
glyphname = a;
lastChange = "2023-09-29 09:16:19 +0000";
layers = (
{
anchors = (
{
name = bottom;
position = "{265, 0}";
},
{
name = ogonek;
position = "{440, 0}";
},
{
name = top;
position = "{246, 520}";
}
);
layerId = "CFBFE906-6BC9-42DE-B086-7F9578F7A428";
paths = (
{
closed = 1;
nodes = (
"221 -10 OFFCURVE",
"268 3 OFFCURVE",
"326 59 CURVE",
"334 59 LINE",
"338 38 OFFCURVE",
"347 -7 OFFCURVE",
"401 -7 CURVE SMOOTH",
"414 -7 OFFCURVE",
"436 -1 OFFCURVE",
"480 10 CURVE SMOOTH",
"515 19 LINE",
"515 49 LINE",
"438 54 OFFCURVE",
"415 62 OFFCURVE",
"417 114 CURVE SMOOTH",
"427 412 LINE SMOOTH",
"429 486 OFFCURVE",
"368 530 OFFCURVE",
"281 530 CURVE SMOOTH",
"189 530 OFFCURVE",
"82 466 OFFCURVE",
"51 388 CURVE SMOOTH",
"44 368 OFFCURVE",
"58 364 OFFCURVE",
"82 364 CURVE SMOOTH",
"124 364 OFFCURVE",
"155 378 OFFCURVE",
"159 393 CURVE SMOOTH",
"172 449 OFFCURVE",
"201 478 OFFCURVE",
"251 478 CURVE SMOOTH",
"303 478 OFFCURVE",
"338 441 OFFCURVE",
"337 392 CURVE SMOOTH",
"335 311 LINE",
"308 302 LINE SMOOTH",
"117 238 OFFCURVE",
"52 166 OFFCURVE",
"52 94 CURVE SMOOTH",
"52 43 OFFCURVE",
"83 -10 OFFCURVE",
"175 -10 CURVE SMOOTH"
);
},
{
closed = 1;
nodes = (
"177 63 OFFCURVE",
"151 83 OFFCURVE",
"151 119 CURVE SMOOTH",
"151 154 OFFCURVE",
"178 220 OFFCURVE",
"324 264 CURVE SMOOTH",
"334 267 LINE",
"328 99 LINE",
"303 82 OFFCURVE",
"274 63 OFFCURVE",
"226 63 CURVE SMOOTH"
);
}
);
width = 529;
}
);
leftKerningGroup = a;
rightKerningGroup = a;
unicode = 0061;
},
{
color = 6;
glyphname = ae;
lastChange = "2023-09-29 09:16:19 +0000";
layers = (
{
anchors = (
{
name = bottom;
position = "{415, 0}";
},
{
name = top;
position = "{415, 520}";
}
);
layerId = "CFBFE906-6BC9-42DE-B086-7F9578F7A428";
paths = (
{
closed = 1;
nodes = (
"245 -10 OFFCURVE",
"292 20 OFFCURVE",
"369 101 CURVE",
"376 101 LINE",
"420 32 OFFCURVE",
"493 -10 OFFCURVE",
"582 -10 CURVE SMOOTH",
"670 -10 OFFCURVE",
"727 20 OFFCURVE",
"783 94 CURVE",
"763 113 LINE",
"723 85 OFFCURVE",
"678 71 OFFCURVE",
"633 71 CURVE SMOOTH",
"506 71 OFFCURVE",
"423 161 OFFCURVE",
"423 284 CURVE SMOOTH",
"423 293 OFFCURVE",
"423 302 OFFCURVE",
"424 310 CURVE",
"766 310 LINE",
"768 324 LINE SMOOTH",
"770 338 OFFCURVE",
"770 346 OFFCURVE",
"770 354 CURVE SMOOTH",
"770 469 OFFCURVE",
"700 530 OFFCURVE",
"599 530 CURVE SMOOTH",
"529 530 OFFCURVE",
"465 504 OFFCURVE",
"418 460 CURVE",
"398 505 OFFCURVE",
"347 530 OFFCURVE",
"281 530 CURVE SMOOTH",
"189 530 OFFCURVE",
"82 466 OFFCURVE",
"51 388 CURVE SMOOTH",
"45 370 OFFCURVE",
"54 364 OFFCURVE",
"82 364 CURVE SMOOTH",
"124 364 OFFCURVE",
"155 378 OFFCURVE",
"159 393 CURVE SMOOTH",
"172 449 OFFCURVE",
"201 478 OFFCURVE",
"251 478 CURVE SMOOTH",
"302 478 OFFCURVE",
"338 441 OFFCURVE",
"337 392 CURVE SMOOTH",
"335 311 LINE",
"308 302 LINE SMOOTH",
"114 237 OFFCURVE",
"52 166 OFFCURVE",
"52 91 CURVE SMOOTH",
"52 43 OFFCURVE",
"85 -10 OFFCURVE",
"175 -10 CURVE SMOOTH"
);
},
{
closed = 1;
nodes = (
"451 430 OFFCURVE",
"505 478 OFFCURVE",
"582 478 CURVE SMOOTH",
"639 478 OFFCURVE",
"674 437 OFFCURVE",
"674 383 CURVE SMOOTH",
"674 374 OFFCURVE",
"673 364 OFFCURVE",
"671 354 CURVE",
"431 354 LINE"
);
},
{
closed = 1;
nodes = (
"177 63 OFFCURVE",
"151 83 OFFCURVE",
"151 119 CURVE SMOOTH",
"151 154 OFFCURVE",
"181 210 OFFCURVE",
"324 264 CURVE SMOOTH",
"334 267 LINE",
"328 99 LINE",
"303 82 OFFCURVE",
"274 63 OFFCURVE",
"226 63 CURVE SMOOTH"
);
}
);
width = 825;
}
);
leftKerningGroup = a;
rightKerningGroup = e;
unicode = 00E6;
},
{
color = 6;
glyphname = b;
lastChange = "2023-09-29 09:16:19 +0000";
layers = (
{
anchors = (
{
name = bottom;
position = "{314, 0}";
},
{
name = top;
position = "{314, 800}";
}
);
layerId = "CFBFE906-6BC9-42DE-B086-7F9578F7A428";
paths = (
{
closed = 1;
nodes = (
"455 -10 OFFCURVE",
"582 106 OFFCURVE",
"582 269 CURVE SMOOTH",
"582 422 OFFCURVE",
"486 530 OFFCURVE",
"351 530 CURVE SMOOTH",
"270 530 OFFCURVE",
"236 511 OFFCURVE",
"165 435 CURVE",
"166 401 LINE",
"200 435 OFFCURVE",
"235 450 OFFCURVE",
"305 450 CURVE SMOOTH",
"410 450 OFFCURVE",
"488 357 OFFCURVE",
"488 241 CURVE SMOOTH",
"488 109 OFFCURVE",
"419 42 OFFCURVE",
"310 42 CURVE SMOOTH",
"241 42 OFFCURVE",
"176 67 OFFCURVE",
"176 168 CURVE",
"110 57 LINE",
"159 14 OFFCURVE",
"207 -10 OFFCURVE",
"303 -10 CURVE SMOOTH"
);
},
{
closed = 1;
nodes = (
"126 -10 LINE",
"159 49 LINE",
"176 32 LINE",
"176 437 LINE",
"184 437 LINE",
"184 453 LINE",
"176 453 LINE",
"176 800 LINE",
"162 800 LINE",
"8 756 LINE",
"8 721 LINE",
"54 720 OFFCURVE",
"86 712 OFFCURVE",
"86 662 CURVE SMOOTH",
"86 -10 LINE"
);
}
);
width = 630;
}
);
leftKerningGroup = b;
rightKerningGroup = b;
unicode = 0062;
},
{
color = 6;
glyphname = c;
lastChange = "2023-09-29 09:16:19 +0000";
layers = (
{
anchors = (
{
name = bottom;
position = "{286, 0}";
},
{
name = top;
position = "{286, 520}";
}
);
layerId = "CFBFE906-6BC9-42DE-B086-7F9578F7A428";
paths = (
{
closed = 1;
nodes = (
"373 -10 OFFCURVE",
"436 20 OFFCURVE",
"499 94 CURVE",
"479 113 LINE",
"429 75 OFFCURVE",
"385 61 OFFCURVE",
"339 61 CURVE SMOOTH",
"222 61 OFFCURVE",
"139 156 OFFCURVE",
"139 288 CURVE SMOOTH",
"139 400 OFFCURVE",
"200 478 OFFCURVE",
"293 478 CURVE SMOOTH",
"316 478 OFFCURVE",
"339 473 OFFCURVE",
"358 455 CURVE SMOOTH",
"412 406 LINE SMOOTH",
"430 390 OFFCURVE",
"493 411 OFFCURVE",
"493 444 CURVE SMOOTH",
"493 479 OFFCURVE",
"425 530 OFFCURVE",
"321 530 CURVE SMOOTH",
"164 530 OFFCURVE",
"48 412 OFFCURVE",
"48 253 CURVE SMOOTH",
"48 103 OFFCURVE",
"152 -10 OFFCURVE",
"298 -10 CURVE SMOOTH"
);
}
);
width = 534;
}
);
leftKerningGroup = o;
rightKerningGroup = c;
unicode = 0063;
},
{
color = 6;
glyphname = d;
lastChange = "2023-09-29 09:16:19 +0000";
layers = (
{
anchors = (
{
name = bottom;
position = "{328, 0}";
},
{
name = center;
position = "{328, 260}";
},
{
name = top;
position = "{328, 800}";
},
{
name = topright;
position = "{629, 520}";
}
);
layerId = "CFBFE906-6BC9-42DE-B086-7F9578F7A428";
paths = (
{
closed = 1;
nodes = (
"360 -10 OFFCURVE",
"394 9 OFFCURVE",
"465 85 CURVE",
"464 119 LINE",
"430 85 OFFCURVE",
"395 70 OFFCURVE",
"325 70 CURVE SMOOTH",
"220 70 OFFCURVE",
"142 163 OFFCURVE",
"142 279 CURVE SMOOTH",
"142 406 OFFCURVE",
"201 478 OFFCURVE",
"310 478 CURVE SMOOTH",
"383 478 OFFCURVE",
"454 433 OFFCURVE",
"454 342 CURVE",
"480 472 LINE",
"435 513 OFFCURVE",
"383 530 OFFCURVE",
"317 530 CURVE SMOOTH",
"165 530 OFFCURVE",
"48 409 OFFCURVE",
"48 251 CURVE SMOOTH",
"48 98 OFFCURVE",
"144 -10 OFFCURVE",
"279 -10 CURVE SMOOTH"
);
},
{
closed = 1;
nodes = (
"463 67 LINE",
"463 83 LINE",
"446 83 LINE",
"444 67 LINE"
);
},
{
closed = 1;
nodes = (
"471 -2 LINE",
"624 34 LINE",
"624 67 LINE",
"608 69 LINE SMOOTH",
"554 76 OFFCURVE",
"544 93 OFFCURVE",
"544 135 CURVE SMOOTH",
"544 685 LINE",
"544 800 LINE",
"530 800 LINE",
"376 756 LINE",
"376 721 LINE",
"422 720 OFFCURVE",
"454 712 OFFCURVE",
"454 662 CURVE SMOOTH",
"454 67 LINE",
"457 67 LINE",
"457 -2 LINE"
);
}
);
width = 650;
}
);
leftKerningGroup = d;
rightKerningGroup = d;
unicode = 0064;
},
{
color = 3;
glyphname = dcaron;
lastChange = "2023-09-29 09:16:19 +0000";
layers = (
{
components = (
{
name = d;
}
);
layerId = "CFBFE906-6BC9-42DE-B086-7F9578F7A428";
paths = (
{
closed = 1;
nodes = (
"677 600 OFFCURVE",
"715 641 OFFCURVE",
"715 702 CURVE SMOOTH",
"715 742 OFFCURVE",
"692 780 OFFCURVE",
"647 780 CURVE SMOOTH",
"613 780 OFFCURVE",
"588 756 OFFCURVE",
"588 724 CURVE SMOOTH",
"588 692 OFFCURVE",
"612 670 OFFCURVE",
"642 670 CURVE SMOOTH",
"673 670 OFFCURVE",
"696 693 OFFCURVE",
"696 725 CURVE",
"669 703 LINE",
"669 652 OFFCURVE",
"647 626 OFFCURVE",
"589 592 CURVE",
"609 564 LINE"
);
}
);
width = 661;
}
);
leftKerningGroup = d;
rightKerningGroup = d;
unicode = 010F;
},
{
color = 3;
glyphname = dcroat;
lastChange = "2023-09-29 09:16:19 +0000";
layers = (
{
components = (
{
name = d;
}
);
guideLines = (
{
angle = 90;
position = "{951, 67}";
}
);
layerId = "CFBFE906-6BC9-42DE-B086-7F9578F7A428";
paths = (
{
closed = 1;
nodes = (
"626 591 LINE",
"626 635 LINE",
"310 635 LINE",
"310 591 LINE"
);
}
);
width = 651;
}
);
leftKerningGroup = d;
rightKerningGroup = d;
unicode = 0111;
},
{
color = 6;
glyphname = eth;
lastChange = "2023-09-29 09:16:19 +0000";
layers = (
{
layerId = "CFBFE906-6BC9-42DE-B086-7F9578F7A428";
paths = (
{
closed = 1;
nodes = (
"439 -10 OFFCURVE",
"537 100 OFFCURVE",
"537 278 CURVE SMOOTH",
"537 313 OFFCURVE",
"521 357 OFFCURVE",
"491 392 CURVE SMOOTH",
"481 404 OFFCURVE",
"467 378 OFFCURVE",
"455 388 CURVE",
"434 438 OFFCURVE",
"370 477 OFFCURVE",
"290 477 CURVE SMOOTH",
"146 477 OFFCURVE",
"49 371 OFFCURVE",
"49 234 CURVE SMOOTH",
"49 91 OFFCURVE",
"146 -10 OFFCURVE",
"292 -10 CURVE SMOOTH"
);
},
{
closed = 1;
nodes = (
"192 44 OFFCURVE",
"137 155 OFFCURVE",
"137 257 CURVE SMOOTH",
"137 367 OFFCURVE",
"196 427 OFFCURVE",
"279 427 CURVE SMOOTH",
"390 427 OFFCURVE",
"448 318 OFFCURVE",
"448 211 CURVE SMOOTH",
"448 105 OFFCURVE",
"388 44 OFFCURVE",
"305 44 CURVE SMOOTH"
);
},
{
closed = 1;
nodes = (
"537 498 OFFCURVE",
"415 684 OFFCURVE",
"147 800 CURVE",
"117 770 LINE",
"292 687 OFFCURVE",
"439 505 OFFCURVE",
"447 353 CURVE",
"537 278 LINE"
);
},
{
closed = 1;
nodes = (
"467 733 LINE",
"437 768 LINE",
"169 578 LINE",
"199 543 LINE"
);
}
);
width = 593;
}
);
unicode = 00F0;
},
{
color = 6;
glyphname = e;
lastChange = "2023-09-29 09:16:19 +0000";
layers = (
{
anchors = (
{
name = bottom;
position = "{286, 0}";
},
{
name = ogonek;
position = "{375, 0}";
},
{
name = top;
position = "{286, 520}";
}
);
layerId = "CFBFE906-6BC9-42DE-B086-7F9578F7A428";
paths = (
{
closed = 1;
nodes = (
"386 -10 OFFCURVE",
"443 20 OFFCURVE",
"499 94 CURVE",
"479 113 LINE",
"439 85 OFFCURVE",
"394 71 OFFCURVE",
"349 71 CURVE SMOOTH",
"222 71 OFFCURVE",
"139 161 OFFCURVE",
"139 284 CURVE SMOOTH",
"139 400 OFFCURVE",
"200 478 OFFCURVE",
"298 478 CURVE SMOOTH",
"355 478 OFFCURVE",
"390 437 OFFCURVE",
"390 383 CURVE SMOOTH",
"390 374 OFFCURVE",
"389 364 OFFCURVE",
"387 354 CURVE",
"126 354 LINE",
"126 310 LINE",
"482 310 LINE",
"484 324 LINE SMOOTH",
"486 338 OFFCURVE",
"486 346 OFFCURVE",
"486 354 CURVE SMOOTH",
"486 469 OFFCURVE",
"416 530 OFFCURVE",
"315 530 CURVE SMOOTH",
"166 530 OFFCURVE",
"48 412 OFFCURVE",
"48 261 CURVE SMOOTH",
"48 103 OFFCURVE",
"152 -10 OFFCURVE",
"298 -10 CURVE SMOOTH"
);
}
);
width = 541;
}
);
leftKerningGroup = o;
rightKerningGroup = e;
unicode = 0065;
},
{
color = 6;
glyphname = f;
lastChange = "2023-09-29 09:16:19 +0000";
layers = (
{
anchors = (
{
name = bottom;
position = "{215, 0}";
},
{
name = top;
position = "{215, 800}";
}
);
guideLines = (
{
angle = 60;
position = "{359, 477}";
}
);
layerId = "CFBFE906-6BC9-42DE-B086-7F9578F7A428";
paths = (
{
closed = 1;
nodes = (
"313 0 LINE",
"313 40 LINE",
"292 41 LINE SMOOTH",
"231 44 OFFCURVE",
"212 60 OFFCURVE",
"212 108 CURVE SMOOTH",
"212 452 LINE",
"357 452 LINE",
"382 495 LINE",
"382 520 LINE",
"212 520 LINE",
"212 563 LINE SMOOTH",
"212 680 OFFCURVE",
"286 747 OFFCURVE",
"336 747 CURVE SMOOTH",
"344 747 OFFCURVE",
"352 745 OFFCURVE",
"359 742 CURVE SMOOTH",
"431 711 LINE SMOOTH",
"457 700 OFFCURVE",
"491 721 OFFCURVE",
"491 749 CURVE SMOOTH",
"491 782 OFFCURVE",
"441 804 OFFCURVE",
"389 804 CURVE SMOOTH",
"256 804 OFFCURVE",
"122 681 OFFCURVE",
"122 526 CURVE SMOOTH",
"122 520 LINE",
"58 520 LINE",
"33 477 LINE",
"33 452 LINE",
"122 452 LINE",
"122 88 LINE SMOOTH",
"122 59 OFFCURVE",
"105 46 OFFCURVE",
"64 42 CURVE SMOOTH",
"43 40 LINE",
"43 0 LINE"
);
}
);
width = 396;
}
);
leftKerningGroup = f;
rightKerningGroup = f;
unicode = 0066;
},
{
color = 6;
glyphname = g;
lastChange = "2023-09-29 09:16:19 +0000";
layers = (
{
anchors = (
{
name = bottom;
position = "{267, -257}";
},
{
name = top;
position = "{267, 520}";
}
);
layerId = "CFBFE906-6BC9-42DE-B086-7F9578F7A428";
paths = (
{
closed = 1;
nodes = (
"382 -257 OFFCURVE",
"511 -161 OFFCURVE",
"511 -36 CURVE SMOOTH",
"511 35 OFFCURVE",
"470 72 OFFCURVE",
"383 79 CURVE SMOOTH",
"202 94 LINE SMOOTH",
"162 97 OFFCURVE",
"147 105 OFFCURVE",
"147 123 CURVE SMOOTH",
"147 132 OFFCURVE",
"151 138 OFFCURVE",
"175 165 CURVE SMOOTH",
"205 199 LINE",
"157 199 LINE",
"126 169 LINE SMOOTH",
"89 134 OFFCURVE",
"62 117 OFFCURVE",
"62 83 CURVE SMOOTH",
"62 41 OFFCURVE",
"106 14 OFFCURVE",
"183 8 CURVE SMOOTH",
"358 -5 LINE SMOOTH",
"428 -10 OFFCURVE",
"453 -27 OFFCURVE",
"453 -72 CURVE SMOOTH",
"453 -142 OFFCURVE",
"385 -188 OFFCURVE",
"265 -188 CURVE SMOOTH",
"180 -188 OFFCURVE",
"124 -159 OFFCURVE",
"124 -99 CURVE SMOOTH",
"124 -59 OFFCURVE",
"148 -34 OFFCURVE",
"197 22 CURVE",
"151 28 LINE",
"96 -27 LINE SMOOTH",
"50 -73 OFFCURVE",
"39 -107 OFFCURVE",
"39 -135 CURVE SMOOTH",
"39 -207 OFFCURVE",
"112 -257 OFFCURVE",
"226 -257 CURVE SMOOTH"
);
},
{
closed = 1;
nodes = (
"364 176 OFFCURVE",
"444 256 OFFCURVE",
"444 354 CURVE SMOOTH",
"444 441 OFFCURVE",
"383 498 OFFCURVE",
"299 513 CURVE",
"248 530 LINE",
"132 530 OFFCURVE",
"52 453 OFFCURVE",
"52 354 CURVE SMOOTH",
"52 250 OFFCURVE",
"132 176 OFFCURVE",
"248 176 CURVE SMOOTH"
);
},
{
closed = 1;
nodes = (
"179 225 OFFCURVE",
"140 300 OFFCURVE",
"140 369 CURVE SMOOTH",
"140 439 OFFCURVE",
"175 481 OFFCURVE",
"238 481 CURVE SMOOTH",
"315 481 OFFCURVE",
"356 408 OFFCURVE",
"356 336 CURVE SMOOTH",
"356 267 OFFCURVE",
"321 225 OFFCURVE",
"258 225 CURVE SMOOTH"
);
},
{
closed = 1;
nodes = (
"515 505 LINE",
"515 575 LINE",
"487 575 LINE",
"248 530 LINE",
"248 505 LINE"
);
}
);
width = 535;
}
);
leftKerningGroup = g;
rightKerningGroup = g;
unicode = 0067;
},
{
color = 6;
glyphname = h;
lastChange = "2023-09-29 09:16:19 +0000";
layers = (
{
anchors = (
{
name = bottom;
position = "{322, 0}";
},
{
name = center;
position = "{322, 400}";
},
{
name = top;
position = "{153, 742}";
}
);
layerId = "CFBFE906-6BC9-42DE-B086-7F9578F7A428";
paths = (
{
closed = 1;
nodes = (
"278 0 LINE",
"278 40 LINE",
"257 42 LINE SMOOTH",
"208 47 OFFCURVE",
"198 66 OFFCURVE",
"198 108 CURVE SMOOTH",
"198 409 LINE",
"239 440 OFFCURVE",
"276 455 OFFCURVE",
"331 455 CURVE SMOOTH",
"397 455 OFFCURVE",
"448 437 OFFCURVE",
"448 354 CURVE SMOOTH",
"448 108 LINE SMOOTH",
"448 66 OFFCURVE",
"438 47 OFFCURVE",
"389 42 CURVE SMOOTH",
"368 40 LINE",
"368 0 LINE",
"618 0 LINE",
"618 40 LINE",
"597 42 LINE SMOOTH",
"548 47 OFFCURVE",
"538 66 OFFCURVE",
"538 108 CURVE SMOOTH",
"538 394 LINE SMOOTH",
"538 480 OFFCURVE",
"481 530 OFFCURVE",
"386 530 CURVE SMOOTH",
"310 530 OFFCURVE",
"263 508 OFFCURVE",
"204 456 CURVE",
"198 456 LINE",
"198 800 LINE",
"184 800 LINE",
"30 756 LINE",
"30 721 LINE",
"76 720 OFFCURVE",
"108 712 OFFCURVE",
"108 662 CURVE SMOOTH",
"108 108 LINE SMOOTH",
"108 66 OFFCURVE",
"98 47 OFFCURVE",
"49 42 CURVE SMOOTH",
"28 40 LINE",
"28 0 LINE"
);
}
);
width = 644;
}
);
leftKerningGroup = h;
rightKerningGroup = n;
unicode = 0068;
},
{
color = 3;
glyphname = hbar;
lastChange = "2023-09-29 09:16:19 +0000";
layers = (
{
components = (
{
name = h;
}
);
layerId = "CFBFE906-6BC9-42DE-B086-7F9578F7A428";
paths = (
{
closed = 1;
nodes = (
"348 591 LINE",
"348 635 LINE",
"32 635 LINE",
"32 591 LINE"
);
}
);
width = 644;
}
);
leftKerningGroup = h;
rightKerningGroup = n;
unicode = 0127;
},
{
color = 6;
glyphname = idotless;
lastChange = "2023-09-29 09:16:19 +0000";
layers = (
{
anchors = (
{
name = bottom;
position = "{163, 0}";
},
{
name = ogonek;
position = "{229, 0}";
},
{
name = top;
position = "{152, 520}";
}
);
layerId = "CFBFE906-6BC9-42DE-B086-7F9578F7A428";
paths = (
{
closed = 1;
nodes = (
"287 0 LINE",
"287 40 LINE",
"266 42 LINE SMOOTH",
"217 47 OFFCURVE",
"207 66 OFFCURVE",
"207 108 CURVE SMOOTH",
"207 526 LINE",
"193 526 LINE",
"39 482 LINE",
"39 447 LINE",
"85 446 OFFCURVE",
"117 438 OFFCURVE",
"117 388 CURVE SMOOTH",
"117 108 LINE SMOOTH",
"117 66 OFFCURVE",
"107 47 OFFCURVE",
"58 42 CURVE SMOOTH",
"37 40 LINE",
"37 0 LINE"
);
}
);
width = 316;
}
);
leftKerningGroup = i;
rightKerningGroup = i;
unicode = 0131;
},
{
color = 6;
glyphname = jdotless;
lastChange = "2023-09-29 09:16:19 +0000";
layers = (
{
anchors = (
{
name = bottom;
position = "{151, -257}";
},
{
name = top;
position = "{151, 520}";
}
);
layerId = "CFBFE906-6BC9-42DE-B086-7F9578F7A428";
paths = (
{
closed = 1;
nodes = (
"136 -257 OFFCURVE",
"196 -144 OFFCURVE",
"196 -9 CURVE SMOOTH",
"196 526 LINE",
"182 526 LINE",
"28 482 LINE",
"28 447 LINE",
"85 446 OFFCURVE",
"106 430 OFFCURVE",
"106 388 CURVE SMOOTH",
"106 -56 LINE SMOOTH",
"106 -134 OFFCURVE",
"97 -201 OFFCURVE",
"56 -201 CURVE SMOOTH",
"48 -201 OFFCURVE",
"39 -201 OFFCURVE",
"16 -191 CURVE SMOOTH",
"-28 -171 LINE SMOOTH",
"-60 -157 OFFCURVE",
"-87 -188 OFFCURVE",
"-87 -213 CURVE SMOOTH",
"-87 -238 OFFCURVE",
"-42 -257 OFFCURVE",
"2 -257 CURVE SMOOTH"
);
}
);
width = 282;
}
);
leftKerningGroup = j;
rightKerningGroup = j;
unicode = 0237;
},
{
color = 6;
glyphname = k;
lastChange = "2023-09-29 09:16:19 +0000";
layers = (
{
anchors = (
{
name = bottom;
position = "{304, 0}";
},
{
name = top;
position = "{304, 800}";
}
);
layerId = "CFBFE906-6BC9-42DE-B086-7F9578F7A428";
paths = (
{
closed = 1;
nodes = (
"278 0 LINE",
"278 40 LINE",
"257 42 LINE SMOOTH",
"208 47 OFFCURVE",
"198 66 OFFCURVE",
"198 108 CURVE",
"198 800 LINE",
"184 800 LINE",
"30 756 LINE",
"30 721 LINE",
"76 720 OFFCURVE",
"108 712 OFFCURVE",
"108 662 CURVE SMOOTH",
"108 108 LINE SMOOTH",
"108 66 OFFCURVE",
"98 47 OFFCURVE",
"49 42 CURVE SMOOTH",
"28 40 LINE",
"28 0 LINE"
);
},
{
closed = 1;
nodes = (
"591 0 LINE",
"591 40 LINE",
"571 42 LINE SMOOTH",
"540 45 OFFCURVE",
"514 67 OFFCURVE",
"481 118 CURVE SMOOTH",
"334 348 LINE",
"269 290 LINE",
"381 118 LINE SMOOTH",
"406 80 OFFCURVE",
"420 44 OFFCURVE",
"360 41 CURVE SMOOTH",
"338 40 LINE",
"338 0 LINE"
);
},
{
closed = 1;
nodes = (
"439 415 LINE SMOOTH",
"475 448 OFFCURVE",
"507 475 OFFCURVE",
"560 478 CURVE SMOOTH",
"591 480 LINE",
"591 520 LINE",
"339 520 LINE",
"339 480 LINE",
"362 479 LINE SMOOTH",
"414 477 OFFCURVE",
"418 458 OFFCURVE",
"371 415 CURVE SMOOTH",
"139 199 LINE",
"178 176 LINE"
);
}
);
width = 615;
}
);
leftKerningGroup = h;
rightKerningGroup = k;
unicode = 006B;
},
{
color = 6;
glyphname = l;
lastChange = "2023-09-29 09:16:19 +0000";
layers = (
{
anchors = (
{
name = bottom;
position = "{154, 0}";
},
{
name = center;
position = "{154, 400}";
},
{
name = top;
position = "{154, 800}";
},
{
name = topright;
position = "{284, 800}";
}
);
layerId = "CFBFE906-6BC9-42DE-B086-7F9578F7A428";
paths = (
{
closed = 1;
nodes = (
"278 0 LINE",
"278 40 LINE",
"257 42 LINE SMOOTH",
"208 47 OFFCURVE",
"198 66 OFFCURVE",
"198 108 CURVE SMOOTH",
"198 685 LINE",
"198 800 LINE",
"184 800 LINE",
"30 756 LINE",
"30 721 LINE",
"76 720 OFFCURVE",
"108 712 OFFCURVE",
"108 662 CURVE SMOOTH",
"108 108 LINE SMOOTH",
"108 66 OFFCURVE",
"98 47 OFFCURVE",
"49 42 CURVE SMOOTH",
"28 40 LINE",
"28 0 LINE"
);
}
);
width = 306;
}
);
leftKerningGroup = l;
rightKerningGroup = l;
unicode = 006C;
},
{
color = 3;
glyphname = lcaron;
lastChange = "2023-09-29 09:16:19 +0000";
layers = (
{
components = (
{
name = l;
}
);
layerId = "CFBFE906-6BC9-42DE-B086-7F9578F7A428";
paths = (
{
closed = 1;
nodes = (
"345 600 OFFCURVE",
"383 641 OFFCURVE",
"383 702 CURVE SMOOTH",
"383 742 OFFCURVE",
"360 780 OFFCURVE",
"315 780 CURVE SMOOTH",
"281 780 OFFCURVE",
"256 756 OFFCURVE",
"256 724 CURVE SMOOTH",
"256 692 OFFCURVE",
"280 670 OFFCURVE",
"310 670 CURVE SMOOTH",
"341 670 OFFCURVE",
"364 693 OFFCURVE",
"364 725 CURVE",
"337 703 LINE",
"337 652 OFFCURVE",
"315 626 OFFCURVE",
"257 592 CURVE",
"277 564 LINE"
);
}
);
width = 318;
}
);
leftKerningGroup = l;
rightKerningGroup = l;
unicode = 013E;
},
{
color = 3;
glyphname = lslash;
lastChange = "2023-09-29 09:16:19 +0000";
layers = (
{
components = (
{
name = l;
transform = "{1, 0, 0, 1, 14, 0}";
}
);
guideLines = (
{
angle = 90;
position = "{622, 40}";
}
);
layerId = "CFBFE906-6BC9-42DE-B086-7F9578F7A428";
paths = (
{
closed = 1;
nodes = (
"296 416 LINE",
"296 463 LINE",
"46 361 LINE",
"46 314 LINE"
);
}
);
width = 336;
}
);
unicode = 0142;
},
{
color = 6;
glyphname = m;
lastChange = "2023-09-29 09:16:19 +0000";
layers = (
{
anchors = (
{
name = bottom;
position = "{471, 0}";
},
{
name = top;
position = "{471, 520}";
}
);
layerId = "CFBFE906-6BC9-42DE-B086-7F9578F7A428";
paths = (
{
closed = 1;
nodes = (
"287 0 LINE",
"287 40 LINE",
"266 42 LINE SMOOTH",
"217 47 OFFCURVE",
"207 66 OFFCURVE",
"207 108 CURVE SMOOTH",
"207 409 LINE",
"248 440 OFFCURVE",
"285 455 OFFCURVE",
"335 455 CURVE SMOOTH",
"386 455 OFFCURVE",
"427 437 OFFCURVE",
"427 358 CURVE SMOOTH",
"427 108 LINE SMOOTH",
"427 66 OFFCURVE",
"417 47 OFFCURVE",
"368 42 CURVE SMOOTH",
"347 40 LINE",
"347 0 LINE",
"597 0 LINE",
"597 40 LINE",
"576 42 LINE SMOOTH",
"527 47 OFFCURVE",
"517 66 OFFCURVE",
"517 108 CURVE SMOOTH",
"517 406 LINE",
"561 442 OFFCURVE",
"597 455 OFFCURVE",
"645 455 CURVE SMOOTH",
"696 455 OFFCURVE",
"737 437 OFFCURVE",
"737 358 CURVE SMOOTH",
"737 108 LINE SMOOTH",
"737 66 OFFCURVE",
"727 47 OFFCURVE",
"678 42 CURVE SMOOTH",
"657 40 LINE",
"657 0 LINE",
"907 0 LINE",
"907 40 LINE",
"886 42 LINE SMOOTH",
"837 47 OFFCURVE",
"827 66 OFFCURVE",
"827 108 CURVE SMOOTH",
"827 407 LINE SMOOTH",
"827 481 OFFCURVE",
"788 530 OFFCURVE",
"696 530 CURVE SMOOTH",
"619 530 OFFCURVE",
"573 502 OFFCURVE",
"492 425 CURVE",
"568 450 LINE",
"465 450 LINE",
"515 431 LINE",
"510 480 OFFCURVE",
"469 530 OFFCURVE",
"386 530 CURVE SMOOTH",
"305 530 OFFCURVE",
"260 501 OFFCURVE",
"184 430 CURVE",
"258 453 LINE",
"159 453 LINE",
"204 411 LINE",
"204 526 LINE",
"190 526 LINE",
"39 482 LINE",
"39 447 LINE",
"85 446 OFFCURVE",
"117 438 OFFCURVE",
"117 388 CURVE SMOOTH",
"117 108 LINE SMOOTH",
"117 66 OFFCURVE",
"107 47 OFFCURVE",
"58 42 CURVE SMOOTH",
"37 40 LINE",
"37 0 LINE"
);
}
);
width = 934;
}
);
leftKerningGroup = n;
rightKerningGroup = n;
unicode = 006D;
},
{
color = 6;
glyphname = n;
lastChange = "2023-09-29 09:16:19 +0000";
layers = (
{
anchors = (
{
name = bottom;
position = "{331, 0}";
},
{
name = top;
position = "{326, 520}";
}
);
layerId = "CFBFE906-6BC9-42DE-B086-7F9578F7A428";
paths = (
{
closed = 1;
nodes = (
"287 0 LINE",
"287 40 LINE",
"266 42 LINE SMOOTH",
"217 47 OFFCURVE",
"207 66 OFFCURVE",
"207 108 CURVE SMOOTH",
"207 409 LINE",
"248 440 OFFCURVE",
"285 455 OFFCURVE",
"340 455 CURVE SMOOTH",
"406 455 OFFCURVE",
"457 437 OFFCURVE",
"457 355 CURVE SMOOTH",
"457 108 LINE SMOOTH",
"457 66 OFFCURVE",
"447 47 OFFCURVE",
"398 42 CURVE SMOOTH",
"377 40 LINE",
"377 0 LINE",
"627 0 LINE",
"627 40 LINE",
"606 42 LINE SMOOTH",
"557 47 OFFCURVE",
"547 66 OFFCURVE",
"547 108 CURVE SMOOTH",
"547 395 LINE SMOOTH",
"547 480 OFFCURVE",
"490 530 OFFCURVE",
"395 530 CURVE SMOOTH",
"320 530 OFFCURVE",
"272 507 OFFCURVE",
"210 453 CURVE",
"204 453 LINE",
"204 526 LINE",
"190 526 LINE",
"39 482 LINE",
"39 447 LINE",
"85 446 OFFCURVE",
"117 438 OFFCURVE",
"117 388 CURVE SMOOTH",
"117 108 LINE SMOOTH",
"117 66 OFFCURVE",
"107 47 OFFCURVE",
"58 42 CURVE SMOOTH",
"37 40 LINE",
"37 0 LINE"
);
}
);
width = 653;
}
);
leftKerningGroup = n;
rightKerningGroup = n;
unicode = 006E;
},
{
color = 6;
glyphname = o;
lastChange = "2023-09-29 09:16:19 +0000";
layers = (
{
anchors = (
{
name = bottom;
position = "{319, 0}";
},
{
name = center;
position = "{319, 260}";
},
{
name = ogonek;
position = "{568, 10}";
},
{
name = top;
position = "{315, 520}";
},
{
name = topright;
position = "{610, 520}";
}
);
layerId = "CFBFE906-6BC9-42DE-B086-7F9578F7A428";
paths = (
{
closed = 1;
nodes = (
"481 -10 OFFCURVE",
"589 98 OFFCURVE",
"589 260 CURVE SMOOTH",
"589 421 OFFCURVE",
"480 530 OFFCURVE",
"318 530 CURVE SMOOTH",
"156 530 OFFCURVE",
"48 422 OFFCURVE",
"48 260 CURVE SMOOTH",
"48 99 OFFCURVE",
"157 -10 OFFCURVE",
"319 -10 CURVE SMOOTH"
);
},
{
closed = 1;
nodes = (
"224 44 OFFCURVE",
"145 143 OFFCURVE",
"145 286 CURVE SMOOTH",
"145 406 OFFCURVE",
"202 476 OFFCURVE",
"298 476 CURVE SMOOTH",
"413 476 OFFCURVE",
"492 377 OFFCURVE",
"492 234 CURVE SMOOTH",
"492 114 OFFCURVE",
"435 44 OFFCURVE",
"339 44 CURVE SMOOTH"
);
}
);
width = 637;
}
);
leftKerningGroup = o;
rightKerningGroup = o;
unicode = 006F;
},
{
color = 3;
glyphname = oslash;
lastChange = "2023-09-29 09:16:19 +0000";
layers = (
{
anchors = (
{
name = top;
position = "{308, 520}";
}
);
components = (
{
name = o;
}
);
layerId = "CFBFE906-6BC9-42DE-B086-7F9578F7A428";
paths = (
{
closed = 1;
nodes = (
"152 -48 LINE",
"542 570 LINE",
"488 570 LINE",
"98 -48 LINE"
);
}
);
width = 637;
}
);
leftKerningGroup = o;
rightKerningGroup = o;
unicode = 00F8;
},
{
color = 6;
glyphname = oe;
lastChange = "2023-09-29 09:16:19 +0000";
layers = (
{
anchors = (
{
name = bottom;
position = "{307, 0}";
},
{
name = center;
position = "{319, 260}";
},
{
name = ogonek;
position = "{1124, 10}";
},
{
name = top;
position = "{307, 520}";
},
{
name = topright;
position = "{610, 520}";
}
);
layerId = "CFBFE906-6BC9-42DE-B086-7F9578F7A428";
paths = (
{
closed = 1;
nodes = (
"431 -10 OFFCURVE",
"523 51 OFFCURVE",
"560 151 CURVE",
"556 379 LINE",
"515 473 OFFCURVE",
"426 530 OFFCURVE",
"318 530 CURVE SMOOTH",
"156 530 OFFCURVE",
"48 422 OFFCURVE",
"48 260 CURVE SMOOTH",
"48 99 OFFCURVE",
"157 -10 OFFCURVE",
"319 -10 CURVE SMOOTH"
);
},
{
closed = 1;
nodes = (
"224 44 OFFCURVE",
"145 143 OFFCURVE",
"145 286 CURVE SMOOTH",
"145 406 OFFCURVE",
"202 476 OFFCURVE",
"298 476 CURVE SMOOTH",
"403 476 OFFCURVE",
"482 377 OFFCURVE",
"482 234 CURVE SMOOTH",
"482 114 OFFCURVE",
"425 44 OFFCURVE",
"339 44 CURVE SMOOTH"
);
},
{
closed = 1;
nodes = (
"820 -10 OFFCURVE",
"877 20 OFFCURVE",
"933 94 CURVE",
"913 113 LINE",
"873 85 OFFCURVE",
"828 71 OFFCURVE",
"783 71 CURVE SMOOTH",
"656 71 OFFCURVE",
"573 161 OFFCURVE",
"573 284 CURVE SMOOTH",
"573 400 OFFCURVE",
"634 478 OFFCURVE",
"732 478 CURVE SMOOTH",
"799 478 OFFCURVE",
"836 422 OFFCURVE",
"821 354 CURVE",
"560 354 LINE",
"560 310 LINE",
"916 310 LINE",
"919 329 LINE",
"930 460 OFFCURVE",
"857 530 OFFCURVE",
"749 530 CURVE SMOOTH",
"600 530 OFFCURVE",
"482 412 OFFCURVE",
"482 261 CURVE SMOOTH",
"482 103 OFFCURVE",
"586 -10 OFFCURVE",
"732 -10 CURVE SMOOTH"
);
}
);
width = 975;
}
);
leftKerningGroup = o;
rightKerningGroup = e;
unicode = 0153;
},
{
color = 6;
glyphname = p;
lastChange = "2023-09-29 09:16:19 +0000";
layers = (
{
anchors = (
{
name = bottom;
position = "{323, 0}";
},
{
name = top;
position = "{323, 520}";
}
);
layerId = "CFBFE906-6BC9-42DE-B086-7F9578F7A428";
paths = (
{
closed = 1;
nodes = (
"485 -10 OFFCURVE",
"602 111 OFFCURVE",
"602 269 CURVE SMOOTH",
"602 422 OFFCURVE",
"506 530 OFFCURVE",
"371 530 CURVE SMOOTH",
"290 530 OFFCURVE",
"256 511 OFFCURVE",
"185 435 CURVE",
"186 401 LINE",
"220 435 OFFCURVE",
"255 450 OFFCURVE",
"325 450 CURVE SMOOTH",
"430 450 OFFCURVE",
"508 357 OFFCURVE",
"508 241 CURVE SMOOTH",
"508 114 OFFCURVE",
"449 42 OFFCURVE",
"340 42 CURVE SMOOTH",
"267 42 OFFCURVE",
"196 97 OFFCURVE",
"196 178 CURVE",
"170 57 LINE",
"219 3 OFFCURVE",
"267 -10 OFFCURVE",
"333 -10 CURVE SMOOTH"
);
},
{
closed = 1;
nodes = (
"297 -247 LINE",
"297 -207 LINE",
"276 -205 LINE SMOOTH",
"207 -198 OFFCURVE",
"196 -181 OFFCURVE",
"196 -139 CURVE SMOOTH",
"196 437 LINE",
"204 437 LINE",
"214 453 LINE",
"193 453 LINE",
"193 526 LINE",
"179 526 LINE",
"28 482 LINE",
"28 447 LINE",
"74 446 OFFCURVE",
"106 438 OFFCURVE",
"106 388 CURVE SMOOTH",
"106 -159 LINE SMOOTH",
"106 -187 OFFCURVE",
"90 -201 OFFCURVE",
"48 -205 CURVE SMOOTH",
"27 -207 LINE",
"27 -247 LINE"
);
}
);
width = 651;
}
);
leftKerningGroup = n;
rightKerningGroup = b;
unicode = 0070;
},
{
color = 6;
glyphname = thorn;
lastChange = "2023-09-29 09:16:19 +0000";
layers = (
{
anchors = (
{
name = bottom;
position = "{283, 0}";
},
{
name = top;
position = "{283, 520}";
}
);
layerId = "CFBFE906-6BC9-42DE-B086-7F9578F7A428";
paths = (
{
closed = 1;
nodes = (
"465 -10 OFFCURVE",
"582 111 OFFCURVE",
"582 269 CURVE SMOOTH",
"582 422 OFFCURVE",
"486 530 OFFCURVE",
"351 530 CURVE SMOOTH",
"270 530 OFFCURVE",
"236 511 OFFCURVE",
"165 435 CURVE",
"166 401 LINE",
"200 435 OFFCURVE",
"235 450 OFFCURVE",
"305 450 CURVE SMOOTH",
"410 450 OFFCURVE",
"488 357 OFFCURVE",
"488 241 CURVE SMOOTH",
"488 114 OFFCURVE",
"429 42 OFFCURVE",
"320 42 CURVE SMOOTH",
"247 42 OFFCURVE",
"176 97 OFFCURVE",
"176 178 CURVE",
"150 57 LINE",
"199 3 OFFCURVE",
"247 -10 OFFCURVE",
"313 -10 CURVE SMOOTH"
);
},
{
closed = 1;
nodes = (
"277 -247 LINE",
"277 -207 LINE",
"256 -205 LINE SMOOTH",
"187 -198 OFFCURVE",
"176 -181 OFFCURVE",
"176 -139 CURVE SMOOTH",
"176 437 LINE",
"184 437 LINE",
"194 453 LINE",
"173 453 LINE",
"173 526 LINE",
"159 526 LINE",
"86 388 LINE",
"86 -159 LINE SMOOTH",
"86 -187 OFFCURVE",
"70 -201 OFFCURVE",
"28 -205 CURVE SMOOTH",
"7 -207 LINE",
"7 -247 LINE"
);
},
{
closed = 1;
nodes = (
"126 -10 LINE",
"159 49 LINE",
"176 32 LINE",
"176 437 LINE",
"184 437 LINE",
"184 453 LINE",
"176 453 LINE",
"176 800 LINE",
"162 800 LINE",
"8 756 LINE",
"8 721 LINE",
"54 720 OFFCURVE",
"86 712 OFFCURVE",
"86 662 CURVE SMOOTH",
"86 -10 LINE"
);
}
);
width = 631;
}
);
leftKerningGroup = b;
rightKerningGroup = b;
unicode = 00FE;
},
{
color = 6;
glyphname = q;
lastChange = "2023-09-29 09:16:19 +0000";
layers = (
{
anchors = (
{
name = bottom;
position = "{319, 0}";
},
{
name = top;
position = "{319, 520}";
}
);
layerId = "CFBFE906-6BC9-42DE-B086-7F9578F7A428";
paths = (
{
closed = 1;
nodes = (
"360 -10 OFFCURVE",
"394 9 OFFCURVE",
"465 85 CURVE",
"464 119 LINE",
"430 85 OFFCURVE",
"395 70 OFFCURVE",
"325 70 CURVE SMOOTH",
"220 70 OFFCURVE",
"142 163 OFFCURVE",
"142 279 CURVE SMOOTH",
"142 406 OFFCURVE",
"201 478 OFFCURVE",
"320 478 CURVE SMOOTH",
"379 478 OFFCURVE",
"454 453 OFFCURVE",
"454 352 CURVE",
"520 463 LINE",
"471 506 OFFCURVE",
"413 530 OFFCURVE",
"327 530 CURVE SMOOTH",
"165 530 OFFCURVE",
"48 409 OFFCURVE",
"48 251 CURVE SMOOTH",
"48 98 OFFCURVE",
"144 -10 OFFCURVE",
"279 -10 CURVE SMOOTH"
);
},
{
closed = 1;
nodes = (
"623 -247 LINE",
"623 -207 LINE",
"602 -205 LINE SMOOTH",
"560 -201 OFFCURVE",
"544 -187 OFFCURVE",
"544 -159 CURVE SMOOTH",
"544 530 LINE",
"504 530 LINE",
"471 471 LINE",
"454 488 LINE",
"454 83 LINE",
"446 83 LINE",
"436 67 LINE",
"454 67 LINE",
"454 -139 LINE SMOOTH",
"454 -181 OFFCURVE",
"443 -198 OFFCURVE",
"374 -205 CURVE SMOOTH",
"353 -207 LINE",
"353 -247 LINE"
);
}
);
width = 630;
}
);
leftKerningGroup = d;
rightKerningGroup = u;
unicode = 0071;
},
{
color = 6;
glyphname = r;
lastChange = "2023-09-29 09:16:19 +0000";
layers = (
{
anchors = (
{
name = bottom;
position = "{173, 0}";
},
{
name = top;
position = "{222, 520}";
}
);
layerId = "CFBFE906-6BC9-42DE-B086-7F9578F7A428";
paths = (
{
closed = 1;
nodes = (
"307 0 LINE",
"307 40 LINE",
"286 42 LINE SMOOTH",
"223 48 OFFCURVE",
"207 62 OFFCURVE",
"207 108 CURVE SMOOTH",
"207 430 LINE",
"204 446 LINE",
"204 526 LINE",
"190 526 LINE",
"39 482 LINE",
"39 447 LINE",
"96 446 OFFCURVE",
"117 430 OFFCURVE",
"117 388 CURVE SMOOTH",
"117 108 LINE SMOOTH",
"117 62 OFFCURVE",
"103 46 OFFCURVE",
"58 42 CURVE SMOOTH",
"37 40 LINE",
"37 0 LINE"
);
},
{
closed = 1;
nodes = (
"223 410 OFFCURVE",
"272 474 OFFCURVE",
"313 451 CURVE SMOOTH",
"352 429 LINE SMOOTH",
"383 411 OFFCURVE",
"431 438 OFFCURVE",
"431 474 CURVE SMOOTH",
"431 508 OFFCURVE",
"406 528 OFFCURVE",
"358 528 CURVE SMOOTH",
"288 528 OFFCURVE",
"241 487 OFFCURVE",
"213 446 CURVE",
"202 446 LINE",
"207 381 LINE"
);
}
);
width = 443;
}
);
leftKerningGroup = n;
rightKerningGroup = r;
unicode = 0072;
},
{
color = 6;
glyphname = s;
lastChange = "2023-09-29 09:16:19 +0000";
layers = (
{
anchors = (
{
name = bottom;
position = "{228, 0}";
},
{
name = top;
position = "{228, 520}";
}
);
layerId = "CFBFE906-6BC9-42DE-B086-7F9578F7A428";
paths = (
{
closed = 1;
nodes = (
"307 -10 OFFCURVE",
"399 47 OFFCURVE",
"399 143 CURVE SMOOTH",
"399 218 OFFCURVE",
"360 250 OFFCURVE",
"286 288 CURVE SMOOTH",
"220 322 LINE SMOOTH",
"168 349 OFFCURVE",
"147 376 OFFCURVE",
"147 408 CURVE SMOOTH",
"147 448 OFFCURVE",
"180 483 OFFCURVE",
"238 483 CURVE SMOOTH",
"311 483 OFFCURVE",
"337 427 OFFCURVE",
"345 386 CURVE",
"384 386 LINE",
"384 502 LINE",
"349 518 OFFCURVE",
"307 530 OFFCURVE",
"253 530 CURVE SMOOTH",
"146 530 OFFCURVE",
"66 469 OFFCURVE",
"66 384 CURVE SMOOTH",
"66 323 OFFCURVE",
"93 286 OFFCURVE",
"180 240 CURVE SMOOTH",
"244 206 LINE SMOOTH",
"288 182 OFFCURVE",
"318 161 OFFCURVE",
"318 117 CURVE SMOOTH",
"318 72 OFFCURVE",
"281 37 OFFCURVE",
"220 37 CURVE SMOOTH",
"155 37 OFFCURVE",
"109 79 OFFCURVE",
"98 158 CURVE",
"59 158 LINE",
"59 33 LINE",
"118 5 OFFCURVE",
"157 -10 OFFCURVE",
"209 -10 CURVE SMOOTH"
);
}
);
width = 452;
}
);
leftKerningGroup = s;
rightKerningGroup = s;
unicode = 0073;
},
{
color = 6;
glyphname = germandbls;
lastChange = "2023-09-29 09:16:19 +0000";
layers = (
{
anchors = (
{
name = bottom;
position = "{307, 0}";
},
{
name = top;
position = "{307, 520}";
}
);
layerId = "CFBFE906-6BC9-42DE-B086-7F9578F7A428";
paths = (
{
closed = 1;
nodes = (
"583 -10 OFFCURVE",
"675 46 OFFCURVE",
"675 150 CURVE SMOOTH",
"675 222 OFFCURVE",
"634 253 OFFCURVE",
"562 295 CURVE SMOOTH",
"506 328 LINE SMOOTH",
"461 355 OFFCURVE",
"431 373 OFFCURVE",
"431 410 CURVE SMOOTH",
"431 447 OFFCURVE",
"462 476 OFFCURVE",
"496 503 CURVE SMOOTH",
"547 543 OFFCURVE",
"601 574 OFFCURVE",
"601 655 CURVE SMOOTH",
"601 761 OFFCURVE",
"503 804 OFFCURVE",
"404 804 CURVE SMOOTH",
"251 804 OFFCURVE",
"122 691 OFFCURVE",
"122 541 CURVE SMOOTH",
"122 520 LINE",
"58 520 LINE",
"33 477 LINE",
"33 452 LINE",
"122 452 LINE",
"122 88 LINE SMOOTH",
"122 59 OFFCURVE",
"105 46 OFFCURVE",
"64 42 CURVE SMOOTH",
"43 40 LINE",
"43 0 LINE",
"303 0 LINE",
"303 40 LINE",
"292 41 LINE SMOOTH",
"231 47 OFFCURVE",
"212 60 OFFCURVE",
"212 108 CURVE SMOOTH",
"212 588 LINE SMOOTH",
"212 685 OFFCURVE",
"271 751 OFFCURVE",
"371 751 CURVE SMOOTH",
"454 751 OFFCURVE",
"512 702 OFFCURVE",
"512 633 CURVE SMOOTH",
"512 591 OFFCURVE",
"489 557 OFFCURVE",
"451 528 CURVE SMOOTH",
"408 496 OFFCURVE",
"352 452 OFFCURVE",
"352 385 CURVE SMOOTH",
"352 327 OFFCURVE",
"382 295 OFFCURVE",
"458 250 CURVE SMOOTH",
"520 213 LINE SMOOTH",
"564 187 OFFCURVE",
"596 166 OFFCURVE",
"596 114 CURVE SMOOTH",
"596 72 OFFCURVE",
"559 37 OFFCURVE",
"501 37 CURVE SMOOTH",
"449 37 OFFCURVE",
"399 61 OFFCURVE",
"384 145 CURVE",
"345 145 LINE",
"345 20 LINE",
"381 0 OFFCURVE",
"444 -10 OFFCURVE",
"490 -10 CURVE SMOOTH"
);
}
);
width = 703;
}
);
leftKerningGroup = f;
unicode = 00DF;
},
{
color = 6;
glyphname = t;
lastChange = "2023-09-29 09:16:19 +0000";
layers = (
{
anchors = (
{
name = bottom;
position = "{227, 0}";
},
{
name = center;
position = "{217, 260}";
},
{
name = top;
position = "{217, 520}";
},
{
name = topright;
position = "{391, 520}";
}
);
layerId = "CFBFE906-6BC9-42DE-B086-7F9578F7A428";
paths = (
{
closed = 1;
nodes = (
"292 -10 OFFCURVE",
"359 25 OFFCURVE",
"407 73 CURVE",
"389 93 LINE",
"362 79 OFFCURVE",
"320 68 OFFCURVE",
"287 68 CURVE SMOOTH",
"231 68 OFFCURVE",
"187 79 OFFCURVE",
"187 160 CURVE SMOOTH",
"187 493 LINE",
"187 522 LINE",
"187 604 LINE",
"147 604 LINE",
"119 557 OFFCURVE",
"81 519 OFFCURVE",
"33 492 CURVE",
"33 452 LINE",
"96 452 LINE",
"96 126 LINE SMOOTH",
"96 30 OFFCURVE",
"148 -10 OFFCURVE",
"230 -10 CURVE SMOOTH"
);
},
{
closed = 1;
nodes = (
"371 452 LINE",
"396 495 LINE",
"396 520 LINE",
"143 520 LINE",
"143 452 LINE"
);
}
);
width = 413;
}
);
leftKerningGroup = t;
rightKerningGroup = t;
unicode = 0074;
},
{
color = 3;
glyphname = tcaron;
lastChange = "2023-09-29 09:16:19 +0000";
layers = (
{
components = (
{
name = t;
}
);
layerId = "CFBFE906-6BC9-42DE-B086-7F9578F7A428";
paths = (
{
closed = 1;
nodes = (
"345 600 OFFCURVE",
"383 641 OFFCURVE",
"383 702 CURVE SMOOTH",
"383 742 OFFCURVE",
"360 780 OFFCURVE",
"315 780 CURVE SMOOTH",
"281 780 OFFCURVE",
"256 756 OFFCURVE",
"256 724 CURVE SMOOTH",
"256 692 OFFCURVE",
"280 670 OFFCURVE",
"310 670 CURVE SMOOTH",
"341 670 OFFCURVE",
"364 693 OFFCURVE",
"364 725 CURVE",
"337 703 LINE",
"337 652 OFFCURVE",
"315 626 OFFCURVE",
"257 592 CURVE",
"277 564 LINE"
);
}
);
width = 413;
}
);
leftKerningGroup = t;
rightKerningGroup = t;
unicode = 0165;
},
{
color = 6;
glyphname = u;
lastChange = "2023-09-29 09:16:19 +0000";
layers = (
{
anchors = (
{
name = bottom;
position = "{321, 0}";
},
{
name = ogonek;
position = "{482, 0}";
},
{
name = top;
position = "{311, 520}";
},
{
name = topright;
position = "{614, 520}";
}
);
layerId = "CFBFE906-6BC9-42DE-B086-7F9578F7A428";
paths = (
{
closed = 1;
nodes = (
"337 -10 OFFCURVE",
"383 20 OFFCURVE",
"460 91 CURVE",
"385 67 LINE",
"441 67 LINE",
"446 119 LINE",
"401 82 OFFCURVE",
"362 65 OFFCURVE",
"303 65 CURVE SMOOTH",
"242 65 OFFCURVE",
"191 83 OFFCURVE",
"191 165 CURVE SMOOTH",
"191 528 LINE",
"174 528 LINE",
"28 508 LINE",
"28 473 LINE",
"71 473 OFFCURVE",
"101 472 OFFCURVE",
"101 430 CURVE SMOOTH",
"101 126 LINE SMOOTH",
"101 40 OFFCURVE",
"158 -10 OFFCURVE",
"252 -10 CURVE SMOOTH"
);
},
{
closed = 1;
nodes = (
"606 34 LINE",
"606 67 LINE",
"590 69 LINE SMOOTH",
"536 76 OFFCURVE",
"526 93 OFFCURVE",
"526 135 CURVE SMOOTH",
"526 528 LINE",
"509 528 LINE",
"358 508 LINE",
"358 473 LINE",
"406 473 OFFCURVE",
"436 472 OFFCURVE",
"436 430 CURVE SMOOTH",
"436 67 LINE",
"439 67 LINE",
"439 -2 LINE",
"453 -2 LINE"
);
}
);
width = 634;
}
);
leftKerningGroup = u;
rightKerningGroup = u;
unicode = 0075;
},
{
color = 3;
glyphname = uogonek;
lastChange = "2023-09-29 09:16:19 +0000";
layers = (
{
anchors = (
{
name = _ogonek;
position = "{487, 2}";
}
);
components = (
{
name = u;
}
);
layerId = "CFBFE906-6BC9-42DE-B086-7F9578F7A428";
paths = (
{
closed = 1;
nodes = (
"474 -257 OFFCURVE",
"505 -225 OFFCURVE",
"524 -206 CURVE",
"511 -190 LINE",
"500 -196 OFFCURVE",
"479 -206 OFFCURVE",
"448 -206 CURVE SMOOTH",
"404 -206 OFFCURVE",
"381 -183 OFFCURVE",
"381 -143 CURVE SMOOTH",
"381 -65 OFFCURVE",
"460 -9 OFFCURVE",
"512 12 CURVE",
"443 0 LINE",
"388 -22 OFFCURVE",
"312 -83 OFFCURVE",
"312 -161 CURVE SMOOTH",
"312 -224 OFFCURVE",
"358 -257 OFFCURVE",
"411 -257 CURVE SMOOTH"
);
}
);
width = 634;
}
);
leftKerningGroup = u;
rightKerningGroup = u;
unicode = 0173;
},
{
color = 6;
glyphname = v;
lastChange = "2023-09-29 09:16:19 +0000";
layers = (
{
anchors = (
{
name = bottom;
position = "{296, 0}";
},
{
name = top;
position = "{296, 520}";
}
);
layerId = "CFBFE906-6BC9-42DE-B086-7F9578F7A428";
paths = (
{
closed = 1;
nodes = (
"314 -8 LINE",
"493 412 LINE SMOOTH",
"510 452 OFFCURVE",
"531 472 OFFCURVE",
"563 477 CURVE SMOOTH",
"584 480 LINE",
"584 520 LINE",
"374 520 LINE",
"374 480 LINE",
"395 478 LINE SMOOTH",
"444 473 OFFCURVE",
"452 452 OFFCURVE",
"436 412 CURVE SMOOTH",
"292 50 LINE",
"324 50 LINE",
"189 412 LINE SMOOTH",
"174 452 OFFCURVE",
"187 475 OFFCURVE",
"228 478 CURVE SMOOTH",
"253 480 LINE",
"253 520 LINE",
"7 520 LINE",
"7 480 LINE",
"24 478 LINE SMOOTH",
"64 474 OFFCURVE",
"81 452 OFFCURVE",
"97 412 CURVE SMOOTH",
"264 -8 LINE"
);
}
);
width = 586;
}
);
leftKerningGroup = v;
rightKerningGroup = v;
unicode = 0076;
},
{
color = 6;
glyphname = w;
lastChange = "2023-09-29 09:16:19 +0000";
layers = (
{
anchors = (
{
name = bottom;
position = "{419, 0}";
},
{
name = top;
position = "{419, 520}";
}
);
layerId = "CFBFE906-6BC9-42DE-B086-7F9578F7A428";
paths = (
{
closed = 1;
nodes = (
"306 -8 LINE",
"435 373 LINE",
"412 369 LINE",
"525 -8 LINE",
"596 -8 LINE",
"740 412 LINE SMOOTH",
"754 452 OFFCURVE",
"778 472 OFFCURVE",
"810 477 CURVE SMOOTH",
"831 480 LINE",
"831 520 LINE",
"621 520 LINE",
"621 480 LINE",
"642 478 LINE SMOOTH",
"691 473 OFFCURVE",
"696 453 OFFCURVE",
"683 412 CURVE SMOOTH",
"570 49 LINE",
"587 49 LINE",
"481 412 LINE SMOOTH",
"469 453 OFFCURVE",
"481 476 OFFCURVE",
"522 478 CURVE SMOOTH",
"555 480 LINE",
"555 520 LINE",
"317 520 LINE",
"317 480 LINE",
"333 479 LINE SMOOTH",
"380 476 OFFCURVE",
"392 454 OFFCURVE",
"414 360 CURVE",
"411 453 LINE",
"281 49 LINE",
"300 49 LINE",
"185 412 LINE SMOOTH",
"172 452 OFFCURVE",
"185 475 OFFCURVE",
"226 478 CURVE SMOOTH",
"251 480 LINE",
"251 520 LINE",
"7 520 LINE",
"7 480 LINE",
"24 478 LINE SMOOTH",
"64 473 OFFCURVE",
"81 452 OFFCURVE",
"95 412 CURVE SMOOTH",
"238 -8 LINE"
);
}
);
width = 835;
}
);
leftKerningGroup = w;
rightKerningGroup = w;
unicode = 0077;
},
{
color = 6;
glyphname = x;
lastChange = "2023-09-29 09:16:19 +0000";
layers = (
{
anchors = (
{
name = bottom;
position = "{297, 0}";
},
{
name = top;
position = "{297, 520}";
}
);
layerId = "CFBFE906-6BC9-42DE-B086-7F9578F7A428";
paths = (
{
closed = 1;
nodes = (
"576 0 LINE",
"576 40 LINE",
"559 42 LINE SMOOTH",
"527 46 OFFCURVE",
"504 74 OFFCURVE",
"477 108 CURVE SMOOTH",
"237 412 LINE SMOOTH",
"205 452 OFFCURVE",
"227 474 OFFCURVE",
"256 477 CURVE SMOOTH",
"281 480 LINE",
"281 520 LINE",
"31 520 LINE",
"31 480 LINE",
"48 479 LINE SMOOTH",
"90 477 OFFCURVE",
"113 446 OFFCURVE",
"140 412 CURVE SMOOTH",
"380 108 LINE SMOOTH",
"412 68 OFFCURVE",
"390 45 OFFCURVE",
"351 42 CURVE SMOOTH",
"326 40 LINE",
"326 0 LINE"
);
},
{
closed = 1;
nodes = (
"237 0 LINE",
"237 40 LINE",
"206 43 LINE SMOOTH",
"167 47 OFFCURVE",
"160 73 OFFCURVE",
"189 108 CURVE SMOOTH",
"297 241 LINE",
"262 275 LINE",
"129 108 LINE SMOOTH",
"101 73 OFFCURVE",
"77 50 OFFCURVE",
"35 43 CURVE SMOOTH",
"17 40 LINE",
"17 0 LINE"
);
},
{
closed = 1;
nodes = (
"450 412 LINE SMOOTH",
"477 448 OFFCURVE",
"501 473 OFFCURVE",
"543 477 CURVE SMOOTH",
"571 480 LINE",
"571 520 LINE",
"351 520 LINE",
"351 480 LINE",
"382 477 LINE SMOOTH",
"421 473 OFFCURVE",
"417 448 OFFCURVE",
"390 412 CURVE SMOOTH",
"297 287 LINE",
"332 253 LINE"
);
}
);
width = 597;
}
);
unicode = 0078;
},
{
color = 6;
glyphname = y;
lastChange = "2023-09-29 09:16:19 +0000";
layers = (
{
anchors = (
{
name = bottom;
position = "{287, 0}";
},
{
name = top;
position = "{287, 520}";
}
);
layerId = "CFBFE906-6BC9-42DE-B086-7F9578F7A428";
paths = (
{
closed = 1;
nodes = (
"195 -247 LINE",
"475 412 LINE SMOOTH",
"492 452 OFFCURVE",
"513 472 OFFCURVE",
"545 477 CURVE SMOOTH",
"566 480 LINE",
"566 520 LINE",
"346 520 LINE",
"346 480 LINE",
"367 478 LINE SMOOTH",
"426 472 OFFCURVE",
"434 452 OFFCURVE",
"418 412 CURVE SMOOTH",
"288 86 LINE",
"317 87 LINE",
"179 412 LINE SMOOTH",
"162 452 OFFCURVE",
"179 474 OFFCURVE",
"228 478 CURVE SMOOTH",
"253 480 LINE",
"253 520 LINE",
"7 520 LINE",
"7 480 LINE",
"24 477 LINE SMOOTH",
"56 471 OFFCURVE",
"68 452 OFFCURVE",
"86 412 CURVE SMOOTH",
"260 23 LINE",
"92 -222 LINE",
"92 -247 LINE"
);
}
);
width = 569;
}
);
leftKerningGroup = y;
rightKerningGroup = y;
unicode = 0079;
},
{
color = 6;
glyphname = z;
lastChange = "2023-09-29 09:16:19 +0000";
layers = (
{
anchors = (
{
name = bottom;
position = "{262, 0}";
},
{
name = center;
position = "{262, 260}";
},
{
name = top;
position = "{262, 520}";
}
);
layerId = "CFBFE906-6BC9-42DE-B086-7F9578F7A428";
paths = (
{
closed = 1;
nodes = (
"477 177 LINE",
"436 177 LINE",
"422 83 OFFCURVE",
"390 53 OFFCURVE",
"301 51 CURVE SMOOTH",
"123 48 LINE",
"138 14 LINE",
"462 494 LINE",
"462 520 LINE",
"202 520 LINE SMOOTH",
"153 520 OFFCURVE",
"116 523 OFFCURVE",
"68 526 CURVE",
"51 359 LINE",
"92 359 LINE",
"99 433 OFFCURVE",
"135 467 OFFCURVE",
"209 469 CURVE SMOOTH",
"391 474 LINE",
"379 517 LINE",
"47 26 LINE",
"47 0 LINE",
"327 0 LINE SMOOTH",
"354 0 OFFCURVE",
"406 -2 OFFCURVE",
"461 -6 CURVE"
);
}
);
width = 523;
}
);
leftKerningGroup = z;
rightKerningGroup = z;
unicode = 007A;
},
{
color = 6;
glyphname = f_b;
lastChange = "2023-09-29 09:16:19 +0000";
layers = (
{
anchors = (
{
name = bottom;
position = "{737, 0}";
},
{
name = caret_1;
position = "{379, 0}";
},
{
name = top;
position = "{737, 800}";
}
);
layerId = "CFBFE906-6BC9-42DE-B086-7F9578F7A428";
paths = (
{
closed = 1;
nodes = (
"313 0 LINE",
"313 40 LINE",
"292 41 LINE SMOOTH",
"231 44 OFFCURVE",
"212 60 OFFCURVE",
"212 108 CURVE SMOOTH",
"212 452 LINE",
"357 452 LINE",
"382 495 LINE",
"382 520 LINE",
"212 520 LINE",
"212 563 LINE SMOOTH",
"212 680 OFFCURVE",
"296 747 OFFCURVE",
"356 747 CURVE SMOOTH",
"364 747 OFFCURVE",
"372 745 OFFCURVE",
"379 742 CURVE SMOOTH",
"461 707 LINE SMOOTH",
"477 700 OFFCURVE",
"511 721 OFFCURVE",
"511 749 CURVE SMOOTH",
"511 782 OFFCURVE",
"461 804 OFFCURVE",
"409 804 CURVE SMOOTH",
"266 804 OFFCURVE",
"122 681 OFFCURVE",
"122 526 CURVE SMOOTH",
"122 520 LINE",
"58 520 LINE",
"33 477 LINE",
"33 452 LINE",
"122 452 LINE",
"122 88 LINE SMOOTH",
"122 59 OFFCURVE",
"105 46 OFFCURVE",
"64 42 CURVE SMOOTH",
"43 40 LINE",
"43 0 LINE"
);
},
{
closed = 1;
nodes = (
"828 -10 OFFCURVE",
"945 106 OFFCURVE",
"945 269 CURVE SMOOTH",
"945 422 OFFCURVE",
"859 530 OFFCURVE",
"724 530 CURVE SMOOTH",
"643 530 OFFCURVE",
"609 511 OFFCURVE",
"538 435 CURVE",
"539 401 LINE",
"573 435 OFFCURVE",
"608 450 OFFCURVE",
"678 450 CURVE SMOOTH",
"783 450 OFFCURVE",
"861 357 OFFCURVE",
"861 241 CURVE SMOOTH",
"861 109 OFFCURVE",
"792 42 OFFCURVE",
"683 42 CURVE SMOOTH",
"614 42 OFFCURVE",
"549 67 OFFCURVE",
"549 168 CURVE",
"483 57 LINE",
"532 14 OFFCURVE",
"580 -10 OFFCURVE",
"676 -10 CURVE SMOOTH"
);
},
{
closed = 1;
nodes = (
"499 -10 LINE",
"532 49 LINE",
"549 32 LINE",
"549 437 LINE",
"557 437 LINE",
"557 453 LINE",
"549 453 LINE",
"549 800 LINE",
"535 800 LINE",
"381 756 LINE",
"459 732 LINE",
"459 -10 LINE"
);
}
);
width = 993;
}
);
leftKerningGroup = f;
leftMetricsKey = f;
rightKerningGroup = b;
rightMetricsKey = b;
},
{
color = 6;
glyphname = f_f;
lastChange = "2023-09-29 09:16:19 +0000";
layers = (
{
anchors = (
{
name = caret_1;
position = "{329, 0}";
}
);
layerId = "CFBFE906-6BC9-42DE-B086-7F9578F7A428";
paths = (
{
closed = 1;
nodes = (
"623 0 LINE",
"623 40 LINE",
"602 41 LINE SMOOTH",
"541 44 OFFCURVE",
"522 60 OFFCURVE",
"522 108 CURVE SMOOTH",
"522 452 LINE",
"667 452 LINE",
"692 495 LINE",
"692 520 LINE",
"522 520 LINE",
"522 563 LINE SMOOTH",
"522 680 OFFCURVE",
"596 747 OFFCURVE",
"646 747 CURVE SMOOTH",
"654 747 OFFCURVE",
"662 745 OFFCURVE",
"669 742 CURVE SMOOTH",
"741 711 LINE SMOOTH",
"767 700 OFFCURVE",
"801 721 OFFCURVE",
"801 749 CURVE SMOOTH",
"801 782 OFFCURVE",
"751 804 OFFCURVE",
"699 804 CURVE SMOOTH",
"566 804 OFFCURVE",
"432 681 OFFCURVE",
"432 526 CURVE SMOOTH",
"432 520 LINE",
"382 520 LINE",
"343 477 LINE",
"343 452 LINE",
"432 452 LINE",
"432 88 LINE SMOOTH",
"432 59 OFFCURVE",
"415 46 OFFCURVE",
"374 42 CURVE SMOOTH",
"353 40 LINE",
"353 0 LINE"
);
},
{
closed = 1;
nodes = (
"303 0 LINE",
"303 40 LINE",
"291 41 LINE SMOOTH",
"230 46 OFFCURVE",
"212 60 OFFCURVE",
"212 108 CURVE SMOOTH",
"212 452 LINE",
"373 452 LINE",
"412 495 LINE",
"412 520 LINE",
"212 520 LINE",
"212 553 LINE SMOOTH",
"212 670 OFFCURVE",
"303 722 OFFCURVE",
"363 722 CURVE SMOOTH",
"371 722 OFFCURVE",
"379 720 OFFCURVE",
"386 717 CURVE SMOOTH",
"496 670 LINE SMOOTH",
"522 659 OFFCURVE",
"537 687 OFFCURVE",
"537 715 CURVE SMOOTH",
"537 746 OFFCURVE",
"461 774 OFFCURVE",
"409 774 CURVE SMOOTH",
"266 774 OFFCURVE",
"122 671 OFFCURVE",
"122 516 CURVE",
"123 520 LINE",
"58 520 LINE",
"33 477 LINE",
"33 452 LINE",
"122 452 LINE",
"122 88 LINE SMOOTH",
"122 59 OFFCURVE",
"105 46 OFFCURVE",
"64 42 CURVE SMOOTH",
"43 40 LINE",
"43 0 LINE"
);
}
);
width = 706;
}
);
leftKerningGroup = f;
leftMetricsKey = f;
rightKerningGroup = f;
rightMetricsKey = f;
},
{
color = 6;
glyphname = f_f_i;
lastChange = "2023-09-29 09:16:19 +0000";
layers = (
{
anchors = (
{
name = caret_1;
position = "{319, 0}";
},
{
name = caret_2;
position = "{642, 0}";
}
);
layerId = "CFBFE906-6BC9-42DE-B086-7F9578F7A428";
paths = (
{
closed = 1;
nodes = (
"613 0 LINE",
"613 40 LINE",
"592 41 LINE SMOOTH",
"531 44 OFFCURVE",
"512 60 OFFCURVE",
"512 108 CURVE SMOOTH",
"512 452 LINE",
"793 452 LINE",
"822 495 LINE",
"822 520 LINE",
"512 520 LINE",
"512 563 LINE SMOOTH",
"512 680 OFFCURVE",
"586 747 OFFCURVE",
"666 747 CURVE SMOOTH",
"674 747 OFFCURVE",
"682 745 OFFCURVE",
"689 742 CURVE SMOOTH",
"771 701 LINE SMOOTH",
"796 689 OFFCURVE",
"831 711 OFFCURVE",
"831 739 CURVE SMOOTH",
"831 772 OFFCURVE",
"781 804 OFFCURVE",
"719 804 CURVE SMOOTH",
"556 804 OFFCURVE",
"422 681 OFFCURVE",
"422 526 CURVE SMOOTH",
"422 520 LINE",
"358 520 LINE",
"333 477 LINE",
"333 452 LINE",
"422 452 LINE",
"422 88 LINE SMOOTH",
"422 59 OFFCURVE",
"405 46 OFFCURVE",
"364 42 CURVE SMOOTH",
"343 40 LINE",
"343 0 LINE"
);
},
{
closed = 1;
nodes = (
"911 0 LINE",
"911 40 LINE",
"890 42 LINE SMOOTH",
"841 47 OFFCURVE",
"831 66 OFFCURVE",
"831 108 CURVE SMOOTH",
"831 520 LINE",
"817 520 LINE",
"663 482 LINE",
"741 488 LINE",
"741 108 LINE SMOOTH",
"741 66 OFFCURVE",
"731 47 OFFCURVE",
"682 42 CURVE SMOOTH",
"661 40 LINE",
"661 0 LINE"
);
},
{
closed = 1;
nodes = (
"303 0 LINE",
"303 40 LINE",
"291 41 LINE SMOOTH",
"230 46 OFFCURVE",
"212 60 OFFCURVE",
"212 108 CURVE SMOOTH",
"212 452 LINE",
"373 452 LINE",
"412 495 LINE",
"412 520 LINE",
"212 520 LINE",
"212 553 LINE SMOOTH",
"212 670 OFFCURVE",
"303 722 OFFCURVE",
"363 722 CURVE SMOOTH",
"371 722 OFFCURVE",
"379 720 OFFCURVE",
"386 717 CURVE SMOOTH",
"496 670 LINE SMOOTH",
"522 659 OFFCURVE",
"537 687 OFFCURVE",
"537 715 CURVE SMOOTH",
"537 746 OFFCURVE",
"461 774 OFFCURVE",
"409 774 CURVE SMOOTH",
"266 774 OFFCURVE",
"122 671 OFFCURVE",
"122 516 CURVE",
"123 520 LINE",
"58 520 LINE",
"33 477 LINE",
"33 452 LINE",
"122 452 LINE",
"122 88 LINE SMOOTH",
"122 59 OFFCURVE",
"105 46 OFFCURVE",
"64 42 CURVE SMOOTH",
"43 40 LINE",
"43 0 LINE"
);
}
);
width = 930;
}
);
leftKerningGroup = f;
leftMetricsKey = f;
rightKerningGroup = i;
},
{
color = 6;
glyphname = f_h;
lastChange = "2023-09-29 09:16:19 +0000";
layers = (
{
anchors = (
{
name = bottom_1;
position = "{215, 0}";
},
{
name = bottom_2;
position = "{718, 0}";
},
{
name = caret_1;
position = "{349, 0}";
},
{
name = center_2;
position = "{718, 400}";
},
{
name = top_1;
position = "{215, 800}";
},
{
name = top_2;
position = "{549, 742}";
}
);
layerId = "CFBFE906-6BC9-42DE-B086-7F9578F7A428";
paths = (
{
closed = 1;
nodes = (
"629 0 LINE",
"629 40 LINE",
"608 42 LINE SMOOTH",
"559 47 OFFCURVE",
"549 66 OFFCURVE",
"549 108 CURVE SMOOTH",
"549 409 LINE",
"590 440 OFFCURVE",
"627 455 OFFCURVE",
"682 455 CURVE SMOOTH",
"748 455 OFFCURVE",
"799 437 OFFCURVE",
"799 354 CURVE SMOOTH",
"799 108 LINE SMOOTH",
"799 66 OFFCURVE",
"789 47 OFFCURVE",
"740 42 CURVE SMOOTH",
"719 40 LINE",
"719 0 LINE",
"969 0 LINE",
"969 40 LINE",
"948 42 LINE SMOOTH",
"899 47 OFFCURVE",
"889 66 OFFCURVE",
"889 108 CURVE SMOOTH",
"889 394 LINE SMOOTH",
"889 480 OFFCURVE",
"832 530 OFFCURVE",
"737 530 CURVE SMOOTH",
"661 530 OFFCURVE",
"614 508 OFFCURVE",
"555 456 CURVE",
"549 456 LINE",
"549 800 LINE",
"535 800 LINE",
"381 756 LINE",
"459 722 LINE",
"459 108 LINE SMOOTH",
"459 66 OFFCURVE",
"449 47 OFFCURVE",
"400 42 CURVE SMOOTH",
"379 40 LINE",
"379 0 LINE"
);
},
{
closed = 1;
nodes = (
"313 0 LINE",
"313 40 LINE",
"292 41 LINE SMOOTH",
"231 44 OFFCURVE",
"212 60 OFFCURVE",
"212 108 CURVE SMOOTH",
"212 452 LINE",
"357 452 LINE",
"382 495 LINE",
"382 520 LINE",
"212 520 LINE",
"212 563 LINE SMOOTH",
"212 680 OFFCURVE",
"296 747 OFFCURVE",
"356 747 CURVE SMOOTH",
"364 747 OFFCURVE",
"372 745 OFFCURVE",
"379 742 CURVE SMOOTH",
"461 707 LINE SMOOTH",
"487 696 OFFCURVE",
"511 721 OFFCURVE",
"511 749 CURVE SMOOTH",
"511 782 OFFCURVE",
"461 804 OFFCURVE",
"409 804 CURVE SMOOTH",
"266 804 OFFCURVE",
"122 681 OFFCURVE",
"122 526 CURVE SMOOTH",
"122 520 LINE",
"58 520 LINE",
"33 477 LINE",
"33 452 LINE",
"122 452 LINE",
"122 88 LINE SMOOTH",
"122 59 OFFCURVE",
"105 46 OFFCURVE",
"64 42 CURVE SMOOTH",
"43 40 LINE",
"43 0 LINE"
);
}
);
width = 995;
}
);
leftMetricsKey = f;
rightKerningGroup = n;
rightMetricsKey = h;
},
{
color = 6;
glyphname = f_i;
lastChange = "2023-09-29 09:16:19 +0000";
layers = (
{
anchors = (
{
name = bottom;
position = "{572, 0}";
},
{
name = caret_1;
position = "{329, 0}";
},
{
name = ogonek;
position = "{643, 0}";
},
{
name = top;
position = "{566, 700}";
}
);
layerId = "CFBFE906-6BC9-42DE-B086-7F9578F7A428";
paths = (
{
closed = 1;
nodes = (
"313 0 LINE",
"313 40 LINE",
"292 41 LINE SMOOTH",
"231 44 OFFCURVE",
"212 60 OFFCURVE",
"212 108 CURVE SMOOTH",
"212 452 LINE",
"493 452 LINE",
"522 495 LINE",
"522 520 LINE",
"212 520 LINE",
"212 563 LINE SMOOTH",
"212 680 OFFCURVE",
"286 747 OFFCURVE",
"366 747 CURVE SMOOTH",
"374 747 OFFCURVE",
"382 745 OFFCURVE",
"389 742 CURVE SMOOTH",
"471 701 LINE SMOOTH",
"496 689 OFFCURVE",
"531 711 OFFCURVE",
"531 739 CURVE SMOOTH",
"531 772 OFFCURVE",
"481 804 OFFCURVE",
"419 804 CURVE SMOOTH",
"256 804 OFFCURVE",
"122 681 OFFCURVE",
"122 526 CURVE SMOOTH",
"122 520 LINE",
"58 520 LINE",
"33 477 LINE",
"33 452 LINE",
"122 452 LINE",
"122 88 LINE SMOOTH",
"122 59 OFFCURVE",
"105 46 OFFCURVE",
"64 42 CURVE SMOOTH",
"43 40 LINE",
"43 0 LINE"
);
},
{
closed = 1;
nodes = (
"611 0 LINE",
"611 40 LINE",
"590 42 LINE SMOOTH",
"541 47 OFFCURVE",
"531 66 OFFCURVE",
"531 108 CURVE SMOOTH",
"531 520 LINE",
"517 520 LINE",
"363 482 LINE",
"441 488 LINE",
"441 108 LINE SMOOTH",
"441 66 OFFCURVE",
"431 47 OFFCURVE",
"382 42 CURVE SMOOTH",
"361 40 LINE",
"361 0 LINE"
);
}
);
width = 640;
}
);
leftKerningGroup = f;
leftMetricsKey = f;
rightKerningGroup = i;
},
{
color = 6;
glyphname = f_k;
lastChange = "2023-09-29 09:16:19 +0000";
layers = (
{
anchors = (
{
name = bottom;
position = "{727, 0}";
},
{
name = caret_1;
position = "{339, 0}";
},
{
name = top;
position = "{727, 800}";
}
);
layerId = "CFBFE906-6BC9-42DE-B086-7F9578F7A428";
paths = (
{
closed = 1;
nodes = (
"313 0 LINE",
"313 40 LINE",
"292 41 LINE SMOOTH",
"231 44 OFFCURVE",
"212 60 OFFCURVE",
"212 108 CURVE SMOOTH",
"212 452 LINE",
"357 452 LINE",
"382 495 LINE",
"382 520 LINE",
"212 520 LINE",
"212 563 LINE SMOOTH",
"212 680 OFFCURVE",
"296 747 OFFCURVE",
"356 747 CURVE SMOOTH",
"364 747 OFFCURVE",
"372 745 OFFCURVE",
"379 742 CURVE SMOOTH",
"461 707 LINE SMOOTH",
"487 696 OFFCURVE",
"511 721 OFFCURVE",
"511 749 CURVE SMOOTH",
"511 782 OFFCURVE",
"461 804 OFFCURVE",
"409 804 CURVE SMOOTH",
"266 804 OFFCURVE",
"122 681 OFFCURVE",
"122 526 CURVE SMOOTH",
"122 520 LINE",
"58 520 LINE",
"33 477 LINE",
"33 452 LINE",
"122 452 LINE",
"122 88 LINE SMOOTH",
"122 59 OFFCURVE",
"105 46 OFFCURVE",
"64 42 CURVE SMOOTH",
"43 40 LINE",
"43 0 LINE"
);
},
{
closed = 1;
nodes = (
"629 0 LINE",
"629 40 LINE",
"608 42 LINE SMOOTH",
"559 47 OFFCURVE",
"549 66 OFFCURVE",
"549 108 CURVE",
"549 800 LINE",
"535 800 LINE",
"381 756 LINE",
"459 732 LINE",
"459 108 LINE SMOOTH",
"459 66 OFFCURVE",
"449 47 OFFCURVE",
"400 42 CURVE SMOOTH",
"379 40 LINE",
"379 0 LINE"
);
},
{
closed = 1;
nodes = (
"942 0 LINE",
"942 40 LINE",
"922 42 LINE SMOOTH",
"891 45 OFFCURVE",
"865 67 OFFCURVE",
"832 118 CURVE SMOOTH",
"685 348 LINE",
"623 290 LINE",
"735 118 LINE SMOOTH",
"760 80 OFFCURVE",
"774 44 OFFCURVE",
"714 41 CURVE SMOOTH",
"692 40 LINE",
"692 0 LINE"
);
},
{
closed = 1;
nodes = (
"790 415 LINE SMOOTH",
"826 448 OFFCURVE",
"858 475 OFFCURVE",
"911 478 CURVE SMOOTH",
"942 480 LINE",
"942 520 LINE",
"690 520 LINE",
"690 480 LINE",
"713 479 LINE SMOOTH",
"765 477 OFFCURVE",
"769 458 OFFCURVE",
"722 415 CURVE SMOOTH",
"490 199 LINE",
"529 176 LINE"
);
}
);
width = 966;
}
);
leftKerningGroup = f;
leftMetricsKey = f;
rightKerningGroup = k;
rightMetricsKey = k;
},
{
color = 6;
glyphname = f_l;
lastChange = "2023-09-29 09:16:19 +0000";
layers = (
{
anchors = (
{
name = bottom;
position = "{577, 0}";
},
{
name = caret_1;
position = "{349, 0}";
},
{
name = center;
position = "{577, 400}";
},
{
name = top;
position = "{577, 800}";
},
{
name = topright;
position = "{707, 800}";
}
);
layerId = "CFBFE906-6BC9-42DE-B086-7F9578F7A428";
paths = (
{
closed = 1;
nodes = (
"313 0 LINE",
"313 40 LINE",
"292 41 LINE SMOOTH",
"231 44 OFFCURVE",
"212 60 OFFCURVE",
"212 108 CURVE SMOOTH",
"212 452 LINE",
"357 452 LINE",
"382 495 LINE",
"382 520 LINE",
"212 520 LINE",
"212 563 LINE SMOOTH",
"212 680 OFFCURVE",
"296 747 OFFCURVE",
"356 747 CURVE SMOOTH",
"364 747 OFFCURVE",
"372 745 OFFCURVE",
"379 742 CURVE SMOOTH",
"461 707 LINE SMOOTH",
"487 696 OFFCURVE",
"511 721 OFFCURVE",
"511 749 CURVE SMOOTH",
"511 782 OFFCURVE",
"461 804 OFFCURVE",
"409 804 CURVE SMOOTH",
"266 804 OFFCURVE",
"122 681 OFFCURVE",
"122 526 CURVE SMOOTH",
"122 520 LINE",
"58 520 LINE",
"33 477 LINE",
"33 452 LINE",
"122 452 LINE",
"122 88 LINE SMOOTH",
"122 59 OFFCURVE",
"105 46 OFFCURVE",
"64 42 CURVE SMOOTH",
"43 40 LINE",
"43 0 LINE"
);
},
{
closed = 1;
nodes = (
"629 0 LINE",
"629 40 LINE",
"608 42 LINE SMOOTH",
"559 47 OFFCURVE",
"549 66 OFFCURVE",
"549 108 CURVE SMOOTH",
"549 685 LINE",
"549 800 LINE",
"535 800 LINE",
"381 756 LINE",
"459 732 LINE",
"459 108 LINE SMOOTH",
"459 66 OFFCURVE",
"449 47 OFFCURVE",
"400 42 CURVE SMOOTH",
"379 40 LINE",
"379 0 LINE"
);
}
);
width = 657;
}
);
leftKerningGroup = f;
leftMetricsKey = f;
rightKerningGroup = l;
rightMetricsKey = l;
},
{
color = 6;
glyphname = ordfeminine;
lastChange = "2023-09-29 09:16:19 +0000";
layers = (
{
layerId = "CFBFE906-6BC9-42DE-B086-7F9578F7A428";
paths = (
{
closed = 1;
nodes = (
"187 318 OFFCURVE",
"221 334 OFFCURVE",
"257 368 CURVE",
"261 368 LINE",
"265 337 OFFCURVE",
"282 320 OFFCURVE",
"309 320 CURVE SMOOTH",
"322 320 OFFCURVE",
"335 322 OFFCURVE",
"357 329 CURVE SMOOTH",
"383 337 LINE",
"383 358 LINE",
"325 362 OFFCURVE",
"315 370 OFFCURVE",
"316 405 CURVE SMOOTH",
"324 627 LINE SMOOTH",
"326 679 OFFCURVE",
"280 706 OFFCURVE",
"223 706 CURVE SMOOTH",
"152 706 OFFCURVE",
"79 657 OFFCURVE",
"59 597 CURVE SMOOTH",
"55 585 OFFCURVE",
"61 580 OFFCURVE",
"81 580 CURVE SMOOTH",
"109 580 OFFCURVE",
"129 588 OFFCURVE",
"131 601 CURVE SMOOTH",
"137 641 OFFCURVE",
"165 663 OFFCURVE",
"207 663 CURVE SMOOTH",
"244 663 OFFCURVE",
"264 648 OFFCURVE",
"263 610 CURVE SMOOTH",
"261 556 LINE",
"123 507 OFFCURVE",
"63 457 OFFCURVE",
"63 394 CURVE SMOOTH",
"63 350 OFFCURVE",
"100 318 OFFCURVE",
"150 318 CURVE SMOOTH"
);
},
{
closed = 1;
nodes = (
"150 370 OFFCURVE",
"131 386 OFFCURVE",
"131 412 CURVE SMOOTH",
"131 450 OFFCURVE",
"174 488 OFFCURVE",
"260 519 CURVE",
"256 407 LINE",
"227 381 OFFCURVE",
"203 370 OFFCURVE",
"179 370 CURVE SMOOTH"
);
}
);
width = 427;
}
);
unicode = 00AA;
},
{
color = 6;
glyphname = ordmasculine;
lastChange = "2023-09-29 09:16:19 +0000";
layers = (
{
layerId = "CFBFE906-6BC9-42DE-B086-7F9578F7A428";
paths = (
{
closed = 1;
nodes = (
"360 318 OFFCURVE",
"438 396 OFFCURVE",
"438 512 CURVE SMOOTH",
"438 628 OFFCURVE",
"360 706 OFFCURVE",
"243 706 CURVE SMOOTH",
"127 706 OFFCURVE",
"49 628 OFFCURVE",
"49 512 CURVE SMOOTH",
"49 396 OFFCURVE",
"127 318 OFFCURVE",
"244 318 CURVE SMOOTH"
);
},
{
closed = 1;
nodes = (
"174 359 OFFCURVE",
"119 430 OFFCURVE",
"119 531 CURVE SMOOTH",
"119 615 OFFCURVE",
"162 665 OFFCURVE",
"231 665 CURVE SMOOTH",
"313 665 OFFCURVE",
"368 594 OFFCURVE",
"368 493 CURVE SMOOTH",
"368 409 OFFCURVE",
"325 359 OFFCURVE",
"256 359 CURVE SMOOTH"
);
}
);
width = 487;
}
);
unicode = 00BA;
},
{
color = 6;
glyphname = zero;
lastChange = "2023-09-29 09:16:19 +0000";
layers = (
{
layerId = "CFBFE906-6BC9-42DE-B086-7F9578F7A428";
paths = (
{
closed = 1;
nodes = (
"455 -10 OFFCURVE",
"565 125 OFFCURVE",
"565 357 CURVE SMOOTH",
"565 579 OFFCURVE",
"470 710 OFFCURVE",
"312 710 CURVE SMOOTH",
"169 710 OFFCURVE",
"59 575 OFFCURVE",
"59 337 CURVE SMOOTH",
"59 121 OFFCURVE",
"154 -10 OFFCURVE",
"312 -10 CURVE SMOOTH"
);
},
{
closed = 1;
nodes = (
"223 44 OFFCURVE",
"160 158 OFFCURVE",
"160 337 CURVE SMOOTH",
"160 566 OFFCURVE",
"209 656 OFFCURVE",
"303 656 CURVE SMOOTH",
"398 656 OFFCURVE",
"465 533 OFFCURVE",
"465 354 CURVE SMOOTH",
"465 139 OFFCURVE",
"413 44 OFFCURVE",
"321 44 CURVE SMOOTH"
);
}
);
width = 624;
}
);
unicode = 0030;
},
{
color = 6;
glyphname = one;
lastChange = "2023-09-29 09:16:19 +0000";
layers = (
{
layerId = "CFBFE906-6BC9-42DE-B086-7F9578F7A428";
paths = (
{
closed = 1;
nodes = (
"343 0 LINE",
"343 40 LINE",
"312 42 LINE SMOOTH",
"270 46 OFFCURVE",
"254 60 OFFCURVE",
"254 88 CURVE SMOOTH",
"254 707 LINE",
"240 707 LINE",
"37 656 LINE",
"37 618 LINE",
"147 618 OFFCURVE",
"164 616 OFFCURVE",
"164 557 CURVE SMOOTH",
"164 108 LINE SMOOTH",
"164 66 OFFCURVE",
"153 49 OFFCURVE",
"84 42 CURVE SMOOTH",
"53 40 LINE",
"53 0 LINE"
);
}
);
width = 390;
}
);
unicode = 0031;
},
{
color = 6;
glyphname = two;
lastChange = "2023-09-29 09:16:19 +0000";
layers = (
{
layerId = "CFBFE906-6BC9-42DE-B086-7F9578F7A428";
paths = (
{
closed = 1;
nodes = (
"472 0 LINE",
"472 138 LINE",
"431 138 LINE",
"425 103 OFFCURVE",
"411 75 OFFCURVE",
"349 75 CURVE SMOOTH",
"95 75 LINE",
"121 39 LINE",
"258 179 OFFCURVE",
"454 351 OFFCURVE",
"454 527 CURVE SMOOTH",
"454 670 OFFCURVE",
"344 710 OFFCURVE",
"251 710 CURVE SMOOTH",
"155 710 OFFCURVE",
"60 657 OFFCURVE",
"40 537 CURVE",
"79 529 LINE",
"102 609 OFFCURVE",
"167 648 OFFCURVE",
"228 648 CURVE SMOOTH",
"311 648 OFFCURVE",
"360 598 OFFCURVE",
"360 512 CURVE SMOOTH",
"360 341 OFFCURVE",
"170 154 OFFCURVE",
"40 25 CURVE",
"40 0 LINE"
);
}
);
width = 530;
}
);
unicode = 0032;
},
{
color = 6;
glyphname = three;
lastChange = "2023-09-29 09:16:19 +0000";
layers = (
{
layerId = "CFBFE906-6BC9-42DE-B086-7F9578F7A428";
paths = (
{
closed = 1;
nodes = (
"370 -10 OFFCURVE",
"469 80 OFFCURVE",
"469 200 CURVE SMOOTH",
"469 305 OFFCURVE",
"399 373 OFFCURVE",
"288 381 CURVE",
"286 364 LINE",
"398 403 OFFCURVE",
"454 466 OFFCURVE",
"454 545 CURVE SMOOTH",
"454 644 OFFCURVE",
"380 710 OFFCURVE",
"264 710 CURVE SMOOTH",
"153 710 OFFCURVE",
"84 650 OFFCURVE",
"53 550 CURVE",
"93 538 LINE",
"123 606 OFFCURVE",
"168 648 OFFCURVE",
"238 648 CURVE SMOOTH",
"313 648 OFFCURVE",
"360 600 OFFCURVE",
"360 526 CURVE SMOOTH",
"360 448 OFFCURVE",
"296 391 OFFCURVE",
"170 363 CURVE",
"170 326 LINE",
"295 350 OFFCURVE",
"376 294 OFFCURVE",
"376 180 CURVE SMOOTH",
"376 93 OFFCURVE",
"327 42 OFFCURVE",
"249 42 CURVE SMOOTH",
"208 42 OFFCURVE",
"192 50 OFFCURVE",
"179 62 CURVE SMOOTH",
"125 112 LINE SMOOTH",
"98 137 OFFCURVE",
"43 120 OFFCURVE",
"43 85 CURVE SMOOTH",
"43 51 OFFCURVE",
"111 -10 OFFCURVE",
"234 -10 CURVE SMOOTH"
);
}
);
width = 528;
}
);
unicode = 0033;
},
{
color = 6;
glyphname = four;
lastChange = "2023-09-29 09:16:19 +0000";
layers = (
{
layerId = "CFBFE906-6BC9-42DE-B086-7F9578F7A428";
paths = (
{
closed = 1;
nodes = (
"509 0 LINE",
"509 40 LINE",
"488 42 LINE SMOOTH",
"446 46 OFFCURVE",
"430 60 OFFCURVE",
"430 88 CURVE SMOOTH",
"430 227 LINE",
"516 227 LINE",
"535 270 LINE",
"535 295 LINE",
"430 295 LINE",
"430 710 LINE",
"388 710 LINE",
"35 256 LINE",
"35 227 LINE",
"345 227 LINE",
"345 108 LINE SMOOTH",
"345 66 OFFCURVE",
"334 49 OFFCURVE",
"265 42 CURVE SMOOTH",
"244 40 LINE",
"244 0 LINE"
);
},
{
closed = 1;
nodes = (
"378 295 LINE",
"80 295 LINE",
"108 261 LINE",
"361 599 LINE",
"345 615 LINE",
"345 259 LINE"
);
}
);
width = 578;
}
);
unicode = 0034;
},
{
color = 6;
glyphname = five;
lastChange = "2023-09-29 09:16:19 +0000";
layers = (
{
layerId = "CFBFE906-6BC9-42DE-B086-7F9578F7A428";
paths = (
{
closed = 1;
nodes = (
"382 -10 OFFCURVE",
"481 87 OFFCURVE",
"481 214 CURVE SMOOTH",
"481 373 OFFCURVE",
"344 455 OFFCURVE",
"98 443 CURVE",
"133 413 LINE",
"169 670 LINE",
"130 625 LINE",
"453 625 LINE",
"453 742 LINE",
"412 742 LINE",
"406 708 OFFCURVE",
"391 700 OFFCURVE",
"330 700 CURVE SMOOTH",
"122 700 LINE",
"77 366 LINE",
"79 364 LINE",
"293 367 OFFCURVE",
"387 314 OFFCURVE",
"387 191 CURVE SMOOTH",
"387 101 OFFCURVE",
"337 42 OFFCURVE",
"244 42 CURVE SMOOTH",
"203 42 OFFCURVE",
"187 50 OFFCURVE",
"174 62 CURVE SMOOTH",
"120 112 LINE SMOOTH",
"93 137 OFFCURVE",
"38 120 OFFCURVE",
"38 85 CURVE SMOOTH",
"38 51 OFFCURVE",
"106 -10 OFFCURVE",
"229 -10 CURVE SMOOTH"
);
}
);
visible = 1;
width = 531;
}
);
unicode = 0035;
},
{
color = 6;
glyphname = six;
lastChange = "2023-09-29 09:16:19 +0000";
layers = (
{
layerId = "CFBFE906-6BC9-42DE-B086-7F9578F7A428";
paths = (
{
closed = 1;
nodes = (
"423 -10 OFFCURVE",
"521 85 OFFCURVE",
"521 218 CURVE SMOOTH",
"521 327 OFFCURVE",
"438 412 OFFCURVE",
"331 412 CURVE SMOOTH",
"264 412 OFFCURVE",
"214 389 OFFCURVE",
"164 335 CURVE",
"157 335 LINE",
"170 509 OFFCURVE",
"299 639 OFFCURVE",
"485 673 CURVE",
"481 704 LINE",
"221 680 OFFCURVE",
"56 513 OFFCURVE",
"56 273 CURVE SMOOTH",
"56 92 OFFCURVE",
"140 -10 OFFCURVE",
"287 -10 CURVE SMOOTH"
);
},
{
closed = 1;
nodes = (
"204 42 OFFCURVE",
"155 118 OFFCURVE",
"155 268 CURVE SMOOTH",
"155 285 LINE",
"193 320 OFFCURVE",
"231 335 OFFCURVE",
"283 335 CURVE SMOOTH",
"375 335 OFFCURVE",
"427 282 OFFCURVE",
"427 188 CURVE SMOOTH",
"427 102 OFFCURVE",
"375 42 OFFCURVE",
"301 42 CURVE SMOOTH"
);
}
);
width = 568;
}
);
unicode = 0036;
},
{
color = 6;
glyphname = seven;
lastChange = "2023-09-29 09:16:19 +0000";
layers = (
{
layerId = "CFBFE906-6BC9-42DE-B086-7F9578F7A428";
paths = (
{
closed = 1;
nodes = (
"194 0 LINE",
"478 675 LINE",
"478 700 LINE",
"29 700 LINE",
"29 568 LINE",
"70 568 LINE",
"76 597 OFFCURVE",
"90 625 OFFCURVE",
"152 625 CURVE SMOOTH",
"449 625 LINE",
"433 693 LINE",
"103 29 LINE",
"103 0 LINE"
);
}
);
width = 498;
}
);
unicode = 0037;
},
{
color = 6;
glyphname = eight;
lastChange = "2023-09-29 09:16:19 +0000";
layers = (
{
layerId = "CFBFE906-6BC9-42DE-B086-7F9578F7A428";
paths = (
{
closed = 1;
nodes = (
"403 -10 OFFCURVE",
"500 72 OFFCURVE",
"500 180 CURVE SMOOTH",
"500 245 OFFCURVE",
"465 295 OFFCURVE",
"390 338 CURVE SMOOTH",
"247 419 LINE SMOOTH",
"178 458 OFFCURVE",
"147 499 OFFCURVE",
"147 548 CURVE SMOOTH",
"147 612 OFFCURVE",
"199 656 OFFCURVE",
"274 656 CURVE SMOOTH",
"353 656 OFFCURVE",
"408 607 OFFCURVE",
"408 535 CURVE SMOOTH",
"408 478 OFFCURVE",
"374 431 OFFCURVE",
"301 388 CURVE",
"327 363 LINE",
"438 406 OFFCURVE",
"495 464 OFFCURVE",
"495 545 CURVE SMOOTH",
"495 643 OFFCURVE",
"411 710 OFFCURVE",
"291 710 CURVE SMOOTH",
"162 710 OFFCURVE",
"67 632 OFFCURVE",
"67 527 CURVE SMOOTH",
"67 460 OFFCURVE",
"107 402 OFFCURVE",
"183 359 CURVE SMOOTH",
"326 278 LINE SMOOTH",
"391 241 OFFCURVE",
"420 203 OFFCURVE",
"420 155 CURVE SMOOTH",
"420 90 OFFCURVE",
"365 44 OFFCURVE",
"287 44 CURVE SMOOTH",
"203 44 OFFCURVE",
"149 91 OFFCURVE",
"149 173 CURVE SMOOTH",
"149 236 OFFCURVE",
"179 289 OFFCURVE",
"243 327 CURVE",
"214 352 LINE",
"113 312 OFFCURVE",
"62 250 OFFCURVE",
"62 168 CURVE SMOOTH",
"62 63 OFFCURVE",
"149 -10 OFFCURVE",
"276 -10 CURVE SMOOTH"
);
}
);
width = 562;
}
);
unicode = 0038;
},
{
color = 6;
glyphname = nine;
lastChange = "2023-09-29 09:16:19 +0000";
layers = (
{
layerId = "CFBFE906-6BC9-42DE-B086-7F9578F7A428";
paths = (
{
closed = 1;
nodes = (
"376 11 OFFCURVE",
"512 186 OFFCURVE",
"512 427 CURVE SMOOTH",
"512 608 OFFCURVE",
"428 710 OFFCURVE",
"277 710 CURVE SMOOTH",
"128 710 OFFCURVE",
"47 602 OFFCURVE",
"47 488 CURVE SMOOTH",
"47 350 OFFCURVE",
"153 288 OFFCURVE",
"237 288 CURVE SMOOTH",
"327 288 OFFCURVE",
"374 331 OFFCURVE",
"413 374 CURVE",
"411 368 LINE",
"399 190 OFFCURVE",
"285 51 OFFCURVE",
"78 27 CURVE",
"87 -4 LINE"
);
},
{
closed = 1;
nodes = (
"420 365 LINE",
"420 376 LINE",
"396 376 LINE",
"396 365 LINE"
);
},
{
closed = 1;
nodes = (
"423 424 LINE",
"381 383 OFFCURVE",
"342 365 OFFCURVE",
"287 365 CURVE SMOOTH",
"197 365 OFFCURVE",
"141 413 OFFCURVE",
"141 512 CURVE SMOOTH",
"141 568 OFFCURVE",
"167 658 OFFCURVE",
"267 658 CURVE SMOOTH",
"376 658 OFFCURVE",
"413 563 OFFCURVE",
"413 432 CURVE SMOOTH",
"413 387 OFFCURVE",
"413 363 OFFCURVE",
"410 343 CURVE"
);
}
);
width = 569;
}
);
unicode = 0039;
},
{
color = 6;
glyphname = zero.dnom;
lastChange = "2023-09-29 09:16:19 +0000";
layers = (
{
layerId = "CFBFE906-6BC9-42DE-B086-7F9578F7A428";
paths = (
{
closed = 1;
nodes = (
"275 -6 OFFCURVE",
"335 71 OFFCURVE",
"335 192 CURVE SMOOTH",
"335 306 OFFCURVE",
"283 382 OFFCURVE",
"185 382 CURVE SMOOTH",
"95 382 OFFCURVE",
"35 304 OFFCURVE",
"35 181 CURVE SMOOTH",
"35 69 OFFCURVE",
"87 -6 OFFCURVE",
"185 -6 CURVE SMOOTH"
);
},
{
closed = 1;
nodes = (
"136 34 OFFCURVE",
"103 98 OFFCURVE",
"102 191 CURVE SMOOTH",
"101 292 OFFCURVE",
"129 342 OFFCURVE",
"180 342 CURVE SMOOTH",
"232 342 OFFCURVE",
"268 274 OFFCURVE",
"268 180 CURVE SMOOTH",
"268 87 OFFCURVE",
"241 34 OFFCURVE",
"190 34 CURVE SMOOTH"
);
}
);
width = 370;
}
);
leftKerningGroup = zero.dnom;
rightKerningGroup = zero.dnom;
},
{
color = 6;
glyphname = one.dnom;
lastChange = "2023-09-29 09:16:19 +0000";
layers = (
{
layerId = "CFBFE906-6BC9-42DE-B086-7F9578F7A428";
paths = (
{
closed = 1;
nodes = (
"205 0 LINE",
"205 27 LINE",
"180 30 LINE SMOOTH",
"159 33 OFFCURVE",
"154 39 OFFCURVE",
"154 62 CURVE SMOOTH",
"154 380 LINE",
"141 380 LINE",
"25 353 LINE",
"25 327 LINE",
"87 327 OFFCURVE",
"96 326 OFFCURVE",
"96 294 CURVE SMOOTH",
"96 67 LINE SMOOTH",
"96 42 OFFCURVE",
"89 32 OFFCURVE",
"66 30 CURVE SMOOTH",
"34 27 LINE",
"34 0 LINE"
);
}
);
width = 233;
}
);
leftKerningGroup = zero.dnom;
rightKerningGroup = zero.dnom;
},
{
color = 6;
glyphname = two.dnom;
lastChange = "2023-09-29 09:16:19 +0000";
layers = (
{
layerId = "CFBFE906-6BC9-42DE-B086-7F9578F7A428";
paths = (
{
closed = 1;
nodes = (
"263 0 LINE",
"263 76 LINE",
"240 76 LINE",
"237 61 OFFCURVE",
"229 46 OFFCURVE",
"196 46 CURVE SMOOTH",
"65 46 LINE",
"69 26 LINE",
"167 113 OFFCURVE",
"260 194 OFFCURVE",
"260 286 CURVE SMOOTH",
"260 360 OFFCURVE",
"195 382 OFFCURVE",
"151 382 CURVE SMOOTH",
"88 382 OFFCURVE",
"44 355 OFFCURVE",
"24 292 CURVE",
"58 285 LINE",
"74 320 OFFCURVE",
"100 338 OFFCURVE",
"131 338 CURVE SMOOTH",
"170 338 OFFCURVE",
"193 317 OFFCURVE",
"193 274 CURVE SMOOTH",
"193 204 OFFCURVE",
"111 109 OFFCURVE",
"27 24 CURVE",
"27 0 LINE"
);
}
);
width = 301;
}
);
leftKerningGroup = zero.dnom;
rightKerningGroup = zero.dnom;
},
{
color = 6;
glyphname = three.dnom;
lastChange = "2023-09-29 09:16:19 +0000";
layers = (
{
layerId = "CFBFE906-6BC9-42DE-B086-7F9578F7A428";
paths = (
{
closed = 1;
nodes = (
"206 -6 OFFCURVE",
"257 44 OFFCURVE",
"257 108 CURVE SMOOTH",
"257 165 OFFCURVE",
"218 201 OFFCURVE",
"159 207 CURVE",
"158 195 LINE",
"220 216 OFFCURVE",
"249 251 OFFCURVE",
"249 294 CURVE SMOOTH",
"249 347 OFFCURVE",
"206 382 OFFCURVE",
"146 382 CURVE SMOOTH",
"90 382 OFFCURVE",
"47 355 OFFCURVE",
"30 298 CURVE",
"62 286 LINE",
"76 313 OFFCURVE",
"95 338 OFFCURVE",
"132 338 CURVE SMOOTH",
"162 338 OFFCURVE",
"186 319 OFFCURVE",
"186 283 CURVE SMOOTH",
"186 245 OFFCURVE",
"153 215 OFFCURVE",
"96 200 CURVE",
"96 169 LINE",
"150 182 OFFCURVE",
"195 155 OFFCURVE",
"195 99 CURVE SMOOTH",
"195 57 OFFCURVE",
"169 31 OFFCURVE",
"135 31 CURVE SMOOTH",
"118 31 OFFCURVE",
"115 34 OFFCURVE",
"101 47 CURVE SMOOTH",
"79 67 LINE SMOOTH",
"62 82 OFFCURVE",
"28 80 OFFCURVE",
"28 50 CURVE SMOOTH",
"28 26 OFFCURVE",
"64 -6 OFFCURVE",
"130 -6 CURVE SMOOTH"
);
}
);
width = 293;
}
);
leftKerningGroup = zero.dnom;
rightKerningGroup = zero.dnom;
},
{
color = 6;
glyphname = four.dnom;
lastChange = "2023-09-29 09:16:19 +0000";
layers = (
{
layerId = "CFBFE906-6BC9-42DE-B086-7F9578F7A428";
paths = (
{
closed = 1;
nodes = (
"298 0 LINE",
"298 27 LINE",
"278 30 LINE SMOOTH",
"257 33 OFFCURVE",
"252 39 OFFCURVE",
"252 62 CURVE SMOOTH",
"252 119 LINE",
"303 119 LINE",
"314 145 LINE",
"314 158 LINE",
"252 158 LINE",
"252 382 LINE",
"212 382 LINE",
"22 139 LINE",
"22 119 LINE",
"199 119 LINE",
"199 67 LINE SMOOTH",
"199 42 OFFCURVE",
"192 33 OFFCURVE",
"169 30 CURVE SMOOTH",
"142 27 LINE",
"142 0 LINE"
);
},
{
closed = 1;
nodes = (
"210 158 LINE",
"46 158 LINE",
"67 144 LINE",
"207 324 LINE",
"199 331 LINE",
"199 141 LINE"
);
}
);
width = 340;
}
);
leftKerningGroup = zero.dnom;
rightKerningGroup = zero.dnom;
},
{
color = 6;
glyphname = five.dnom;
lastChange = "2023-09-29 09:16:19 +0000";
layers = (
{
layerId = "CFBFE906-6BC9-42DE-B086-7F9578F7A428";
paths = (
{
closed = 1;
nodes = (
"210 -6 OFFCURVE",
"263 46 OFFCURVE",
"263 115 CURVE SMOOTH",
"263 201 OFFCURVE",
"189 245 OFFCURVE",
"57 238 CURVE",
"85 222 LINE",
"103 360 LINE",
"75 330 LINE",
"249 330 LINE",
"249 396 LINE",
"226 396 LINE",
"223 380 OFFCURVE",
"215 376 OFFCURVE",
"182 376 CURVE SMOOTH",
"71 376 LINE",
"44 194 LINE",
"46 193 LINE",
"144 194 OFFCURVE",
"203 166 OFFCURVE",
"203 100 CURVE SMOOTH",
"203 53 OFFCURVE",
"174 30 OFFCURVE",
"133 30 CURVE SMOOTH",
"115 30 OFFCURVE",
"107 39 OFFCURVE",
"98 48 CURVE SMOOTH",
"77 67 LINE SMOOTH",
"60 82 OFFCURVE",
"26 80 OFFCURVE",
"26 50 CURVE SMOOTH",
"26 26 OFFCURVE",
"62 -6 OFFCURVE",
"130 -6 CURVE SMOOTH"
);
}
);
width = 295;
}
);
leftKerningGroup = zero.dnom;
rightKerningGroup = zero.dnom;
},
{
color = 6;
glyphname = six.dnom;
lastChange = "2023-09-29 09:16:19 +0000";
layers = (
{
layerId = "CFBFE906-6BC9-42DE-B086-7F9578F7A428";
paths = (
{
closed = 1;
nodes = (
"231 -6 OFFCURVE",
"283 45 OFFCURVE",
"283 117 CURVE SMOOTH",
"283 186 OFFCURVE",
"239 222 OFFCURVE",
"182 222 CURVE SMOOTH",
"151 222 OFFCURVE",
"123 209 OFFCURVE",
"99 182 CURVE",
"96 182 LINE",
"105 271 OFFCURVE",
"165 332 OFFCURVE",
"266 349 CURVE",
"262 379 LINE",
"122 365 OFFCURVE",
"33 276 OFFCURVE",
"33 147 CURVE SMOOTH",
"33 54 OFFCURVE",
"80 -6 OFFCURVE",
"157 -6 CURVE SMOOTH"
);
},
{
closed = 1;
nodes = (
"120 31 OFFCURVE",
"95 66 OFFCURVE",
"95 139 CURVE SMOOTH",
"95 151 LINE",
"114 168 OFFCURVE",
"139 177 OFFCURVE",
"159 177 CURVE SMOOTH",
"195 177 OFFCURVE",
"223 154 OFFCURVE",
"223 104 CURVE SMOOTH",
"223 56 OFFCURVE",
"197 31 OFFCURVE",
"163 31 CURVE SMOOTH"
);
}
);
width = 314;
}
);
leftKerningGroup = zero.dnom;
rightKerningGroup = zero.dnom;
},
{
color = 6;
glyphname = seven.dnom;
lastChange = "2023-09-29 09:16:19 +0000";
layers = (
{
layerId = "CFBFE906-6BC9-42DE-B086-7F9578F7A428";
paths = (
{
closed = 1;
nodes = (
"122 0 LINE",
"264 347 LINE",
"264 376 LINE",
"22 376 LINE",
"22 299 LINE",
"45 299 LINE",
"48 315 OFFCURVE",
"55 330 OFFCURVE",
"89 330 CURVE SMOOTH",
"248 330 LINE",
"233 363 LINE",
"64 26 LINE",
"64 0 LINE"
);
}
);
width = 283;
}
);
leftKerningGroup = zero.dnom;
rightKerningGroup = zero.dnom;
},
{
color = 6;
glyphname = eight.dnom;
lastChange = "2023-09-29 09:16:19 +0000";
layers = (
{
layerId = "CFBFE906-6BC9-42DE-B086-7F9578F7A428";
paths = (
{
closed = 1;
nodes = (
"150 227 LINE",
"166 193 LINE",
"221 213 OFFCURVE",
"274 244 OFFCURVE",
"274 296 CURVE SMOOTH",
"274 349 OFFCURVE",
"225 382 OFFCURVE",
"162 382 CURVE SMOOTH",
"94 382 OFFCURVE",
"40 341 OFFCURVE",
"40 284 CURVE SMOOTH",
"40 241 OFFCURVE",
"62 213 OFFCURVE",
"104 189 CURVE SMOOTH",
"153 161 LINE",
"135 193 LINE",
"86 184 OFFCURVE",
"37 140 OFFCURVE",
"37 88 CURVE SMOOTH",
"37 31 OFFCURVE",
"86 -6 OFFCURVE",
"154 -6 CURVE SMOOTH",
"223 -6 OFFCURVE",
"277 38 OFFCURVE",
"277 98 CURVE SMOOTH",
"277 142 OFFCURVE",
"257 170 OFFCURVE",
"208 196 CURVE SMOOTH"
);
},
{
closed = 1;
nodes = (
"92 323 OFFCURVE",
"117 345 OFFCURVE",
"155 345 CURVE SMOOTH",
"191 345 OFFCURVE",
"220 325 OFFCURVE",
"220 287 CURVE SMOOTH",
"220 261 OFFCURVE",
"200 237 OFFCURVE",
"170 216 CURVE",
"139 234 LINE SMOOTH",
"108 252 OFFCURVE",
"92 268 OFFCURVE",
"92 290 CURVE SMOOTH"
);
},
{
closed = 1;
nodes = (
"120 31 OFFCURVE",
"91 59 OFFCURVE",
"91 92 CURVE SMOOTH",
"91 125 OFFCURVE",
"107 152 OFFCURVE",
"134 172 CURVE",
"181 145 LINE SMOOTH",
"211 128 OFFCURVE",
"225 118 OFFCURVE",
"225 90 CURVE SMOOTH",
"225 57 OFFCURVE",
"198 31 OFFCURVE",
"160 31 CURVE SMOOTH"
);
}
);
width = 314;
}
);
leftKerningGroup = zero.dnom;
rightKerningGroup = zero.dnom;
},
{
color = 6;
glyphname = nine.dnom;
lastChange = "2023-09-29 09:16:19 +0000";
layers = (
{
layerId = "CFBFE906-6BC9-42DE-B086-7F9578F7A428";
paths = (
{
closed = 1;
nodes = (
"83 382 OFFCURVE",
"31 331 OFFCURVE",
"31 259 CURVE SMOOTH",
"31 190 OFFCURVE",
"75 154 OFFCURVE",
"132 154 CURVE SMOOTH",
"163 154 OFFCURVE",
"191 167 OFFCURVE",
"215 194 CURVE",
"218 194 LINE",
"209 105 OFFCURVE",
"149 43 OFFCURVE",
"48 27 CURVE",
"52 -3 LINE",
"192 10 OFFCURVE",
"281 100 OFFCURVE",
"281 229 CURVE SMOOTH",
"281 322 OFFCURVE",
"234 382 OFFCURVE",
"157 382 CURVE SMOOTH"
);
},
{
closed = 1;
nodes = (
"194 345 OFFCURVE",
"219 310 OFFCURVE",
"219 237 CURVE SMOOTH",
"219 225 LINE",
"200 208 OFFCURVE",
"175 199 OFFCURVE",
"155 199 CURVE SMOOTH",
"119 199 OFFCURVE",
"91 222 OFFCURVE",
"91 272 CURVE SMOOTH",
"91 320 OFFCURVE",
"117 345 OFFCURVE",
"151 345 CURVE SMOOTH"
);
}
);
width = 314;
}
);
leftKerningGroup = zero.dnom;
rightKerningGroup = zero.dnom;
},
{
color = 6;
glyphname = fraction;
lastChange = "2023-09-29 09:16:19 +0000";
layers = (
{
layerId = "CFBFE906-6BC9-42DE-B086-7F9578F7A428";
paths = (
{
closed = 1;
nodes = (
"-88 0 LINE",
"332 700 LINE",
"267 700 LINE",
"-153 0 LINE"
);
}
);
width = 180;
}
);
unicode = 2044;
},
{
color = 6;
glyphname = .notdef;
lastChange = "2023-09-29 09:16:19 +0000";
layers = (
{
layerId = "CFBFE906-6BC9-42DE-B086-7F9578F7A428";
paths = (
{
closed = 1;
nodes = (
"560 0 LINE",
"560 700 LINE",
"53 700 LINE",
"53 0 LINE"
);
},
{
closed = 1;
nodes = (
"147 652 LINE",
"466 652 LINE",
"466 48 LINE",
"147 48 LINE"
);
}
);
width = 613;
}
);
},
{
color = 6;
glyphname = period;
lastChange = "2023-09-29 09:16:19 +0000";
layers = (
{
layerId = "CFBFE906-6BC9-42DE-B086-7F9578F7A428";
paths = (
{
closed = 1;
nodes = (
"157 -10 OFFCURVE",
"186 15 OFFCURVE",
"186 54 CURVE SMOOTH",
"186 90 OFFCURVE",
"157 116 OFFCURVE",
"123 116 CURVE SMOOTH",
"88 116 OFFCURVE",
"59 90 OFFCURVE",
"59 54 CURVE SMOOTH",
"59 15 OFFCURVE",
"88 -10 OFFCURVE",
"123 -10 CURVE SMOOTH"
);
}
);
width = 245;
}
);
leftKerningGroup = period;
rightKerningGroup = period;
unicode = 002E;
},
{
color = 6;
glyphname = comma;
lastChange = "2023-09-29 09:16:19 +0000";
layers = (
{
layerId = "CFBFE906-6BC9-42DE-B086-7F9578F7A428";
paths = (
{
closed = 1;
nodes = (
"164 -112 OFFCURVE",
"204 -55 OFFCURVE",
"204 14 CURVE SMOOTH",
"204 73 OFFCURVE",
"175 112 OFFCURVE",
"128 112 CURVE SMOOTH",
"91 112 OFFCURVE",
"62 87 OFFCURVE",
"62 51 CURVE SMOOTH",
"62 16 OFFCURVE",
"89 -10 OFFCURVE",
"123 -10 CURVE SMOOTH",
"157 -10 OFFCURVE",
"183 16 OFFCURVE",
"183 51 CURVE",
"149 37 LINE",
"149 -48 OFFCURVE",
"128 -85 OFFCURVE",
"49 -139 CURVE",
"73 -170 LINE"
);
}
);
width = 262;
}
);
leftKerningGroup = period;
rightKerningGroup = period;
unicode = 002C;
},
{
color = 6;
glyphname = exclam;
lastChange = "2023-09-29 09:16:19 +0000";
layers = (
{
layerId = "CFBFE906-6BC9-42DE-B086-7F9578F7A428";
paths = (
{
closed = 1;
nodes = (
"164 194 LINE",
"173 315 OFFCURVE",
"181 416 OFFCURVE",
"190 527 CURVE SMOOTH",
"193 563 OFFCURVE",
"199 623 OFFCURVE",
"199 646 CURVE SMOOTH",
"199 687 OFFCURVE",
"179 710 OFFCURVE",
"143 710 CURVE SMOOTH",
"107 710 OFFCURVE",
"87 687 OFFCURVE",
"87 646 CURVE SMOOTH",
"87 623 OFFCURVE",
"93 563 OFFCURVE",
"96 527 CURVE SMOOTH",
"105 416 OFFCURVE",
"113 315 OFFCURVE",
"122 194 CURVE"
);
},
{
closed = 1;
nodes = (
"179 -10 OFFCURVE",
"207 15 OFFCURVE",
"207 52 CURVE SMOOTH",
"207 88 OFFCURVE",
"179 114 OFFCURVE",
"146 114 CURVE SMOOTH",
"112 114 OFFCURVE",
"84 88 OFFCURVE",
"84 52 CURVE SMOOTH",
"84 15 OFFCURVE",
"112 -10 OFFCURVE",
"146 -10 CURVE SMOOTH"
);
}
);
width = 287;
}
);
unicode = 0021;
},
{
color = 6;
glyphname = question;
lastChange = "2023-09-29 09:16:19 +0000";
layers = (
{
layerId = "CFBFE906-6BC9-42DE-B086-7F9578F7A428";
paths = (
{
closed = 1;
nodes = (
"188 206 LINE",
"174 250 OFFCURVE",
"167 277 OFFCURVE",
"167 294 CURVE SMOOTH",
"167 329 OFFCURVE",
"181 351 OFFCURVE",
"218 376 CURVE SMOOTH",
"274 413 LINE SMOOTH",
"328 449 OFFCURVE",
"351 486 OFFCURVE",
"351 536 CURVE SMOOTH",
"351 634 OFFCURVE",
"265 710 OFFCURVE",
"162 710 CURVE SMOOTH",
"95 710 OFFCURVE",
"38 689 OFFCURVE",
"38 657 CURVE SMOOTH",
"38 625 OFFCURVE",
"74 598 OFFCURVE",
"111 616 CURVE SMOOTH",
"149 635 LINE SMOOTH",
"183 652 OFFCURVE",
"197 654 OFFCURVE",
"208 654 CURVE SMOOTH",
"245 654 OFFCURVE",
"276 620 OFFCURVE",
"276 568 CURVE SMOOTH",
"276 534 OFFCURVE",
"262 502 OFFCURVE",
"223 477 CURVE SMOOTH",
"162 437 LINE SMOOTH",
"117 408 OFFCURVE",
"95 375 OFFCURVE",
"95 331 CURVE SMOOTH",
"95 293 OFFCURVE",
"113 250 OFFCURVE",
"148 193 CURVE"
);
},
{
closed = 1;
nodes = (
"206 -10 OFFCURVE",
"232 17 OFFCURVE",
"232 52 CURVE SMOOTH",
"232 87 OFFCURVE",
"205 114 OFFCURVE",
"171 114 CURVE SMOOTH",
"136 114 OFFCURVE",
"109 87 OFFCURVE",
"109 52 CURVE SMOOTH",
"109 17 OFFCURVE",
"136 -10 OFFCURVE",
"171 -10 CURVE SMOOTH"
);
}
);
width = 396;
}
);
unicode = 003F;
},
{
color = 6;
glyphname = bullet;
lastChange = "2023-09-29 09:16:19 +0000";
layers = (
{
layerId = "CFBFE906-6BC9-42DE-B086-7F9578F7A428";
paths = (
{
closed = 1;
nodes = (
"269 238 OFFCURVE",
"320 286 OFFCURVE",
"320 355 CURVE SMOOTH",
"320 423 OFFCURVE",
"269 471 OFFCURVE",
"205 471 CURVE SMOOTH",
"140 471 OFFCURVE",
"88 423 OFFCURVE",
"88 355 CURVE SMOOTH",
"88 286 OFFCURVE",
"140 238 OFFCURVE",
"205 238 CURVE SMOOTH"
);
}
);
width = 408;
}
);
unicode = 2022;
},
{
color = 6;
glyphname = asterisk;
lastChange = "2023-09-29 09:16:19 +0000";
layers = (
{
layerId = "CFBFE906-6BC9-42DE-B086-7F9578F7A428";
paths = (
{
closed = 1;
nodes = (
"174 368 OFFCURVE",
"183 396 OFFCURVE",
"200 432 CURVE SMOOTH",
"228 493 LINE",
"256 432 LINE SMOOTH",
"273 396 OFFCURVE",
"282 368 OFFCURVE",
"313 368 CURVE SMOOTH",
"336 368 OFFCURVE",
"354 384 OFFCURVE",
"354 404 CURVE SMOOTH",
"354 425 OFFCURVE",
"342 433 OFFCURVE",
"306 469 CURVE SMOOTH",
"259 516 LINE",
"324 524 LINE SMOOTH",
"358 528 OFFCURVE",
"409 528 OFFCURVE",
"409 570 CURVE SMOOTH",
"409 593 OFFCURVE",
"392 609 OFFCURVE",
"369 609 CURVE SMOOTH",
"350 609 OFFCURVE",
"334 598 OFFCURVE",
"305 582 CURVE SMOOTH",
"247 550 LINE",
"259 613 LINE SMOOTH",
"264 639 OFFCURVE",
"268 658 OFFCURVE",
"268 670 CURVE SMOOTH",
"268 693 OFFCURVE",
"251 710 OFFCURVE",
"228 710 CURVE SMOOTH",
"205 710 OFFCURVE",
"188 693 OFFCURVE",
"188 670 CURVE SMOOTH",
"188 658 OFFCURVE",
"192 639 OFFCURVE",
"197 613 CURVE SMOOTH",
"209 550 LINE",
"151 582 LINE SMOOTH",
"122 598 OFFCURVE",
"106 609 OFFCURVE",
"87 609 CURVE SMOOTH",
"64 609 OFFCURVE",
"47 593 OFFCURVE",
"47 570 CURVE SMOOTH",
"47 528 OFFCURVE",
"98 528 OFFCURVE",
"132 524 CURVE SMOOTH",
"197 516 LINE",
"150 469 LINE SMOOTH",
"114 433 OFFCURVE",
"102 425 OFFCURVE",
"102 404 CURVE SMOOTH",
"102 385 OFFCURVE",
"119 368 OFFCURVE",
"140 368 CURVE SMOOTH"
);
}
);
width = 456;
}
);
unicode = 002A;
},
{
color = 6;
glyphname = numbersign;
lastChange = "2023-09-29 09:16:19 +0000";
layers = (
{
layerId = "CFBFE906-6BC9-42DE-B086-7F9578F7A428";
paths = (
{
closed = 1;
nodes = (
"359 0 LINE",
"559 700 LINE",
"500 700 LINE",
"300 0 LINE"
);
},
{
closed = 1;
nodes = (
"536 200 LINE",
"560 288 LINE",
"593 250 LINE",
"-6 250 LINE",
"51 288 LINE",
"27 200 LINE"
);
},
{
closed = 1;
nodes = (
"137 0 LINE",
"337 700 LINE",
"278 700 LINE",
"78 0 LINE"
);
},
{
closed = 1;
nodes = (
"53 458 LINE",
"652 458 LINE",
"595 420 LINE",
"619 508 LINE",
"110 508 LINE",
"86 420 LINE"
);
}
);
width = 643;
}
);
unicode = 0023;
},
{
color = 6;
glyphname = slash;
lastChange = "2023-09-29 09:16:19 +0000";
layers = (
{
layerId = "CFBFE906-6BC9-42DE-B086-7F9578F7A428";
paths = (
{
closed = 1;
nodes = (
"77 -150 LINE",
"424 760 LINE",
"362 760 LINE",
"15 -150 LINE"
);
}
);
width = 439;
}
);
unicode = 002F;
},
{
color = 6;
glyphname = backslash;
lastChange = "2023-09-29 09:16:19 +0000";
layers = (
{
layerId = "CFBFE906-6BC9-42DE-B086-7F9578F7A428";
paths = (
{
closed = 1;
nodes = (
"424 -150 LINE",
"77 760 LINE",
"15 760 LINE",
"362 -150 LINE"
);
}
);
width = 439;
}
);
unicode = 005C;
},
{
color = 6;
glyphname = hyphen;
lastChange = "2023-09-29 09:16:19 +0000";
layers = (
{
layerId = "CFBFE906-6BC9-42DE-B086-7F9578F7A428";
paths = (
{
closed = 1;
nodes = (
"335 300 LINE",
"335 362 LINE",
"57 362 LINE",
"57 300 LINE"
);
}
);
width = 392;
}
);
leftKerningGroup = hyphen;
rightKerningGroup = hyphen;
unicode = 002D;
},
{
color = 6;
glyphname = endash;
lastChange = "2023-09-29 09:16:19 +0000";
layers = (
{
layerId = "CFBFE906-6BC9-42DE-B086-7F9578F7A428";
paths = (
{
closed = 1;
nodes = (
"524 305 LINE",
"524 357 LINE",
"46 357 LINE",
"46 305 LINE"
);
}
);
width = 570;
}
);
leftKerningGroup = hyphen;
rightKerningGroup = hyphen;
unicode = 2013;
},
{
color = 6;
glyphname = emdash;
lastChange = "2023-09-29 09:16:19 +0000";
layers = (
{
layerId = "CFBFE906-6BC9-42DE-B086-7F9578F7A428";
paths = (
{
closed = 1;
nodes = (
"1026 305 LINE",
"1026 357 LINE",
"46 357 LINE",
"46 305 LINE"
);
}
);
width = 1072;
}
);
leftKerningGroup = hyphen;
rightKerningGroup = hyphen;
unicode = 2014;
},
{
color = 6;
glyphname = underscore;
lastChange = "2023-09-29 09:16:19 +0000";
layers = (
{
layerId = "CFBFE906-6BC9-42DE-B086-7F9578F7A428";
paths = (
{
closed = 1;
nodes = (
"510 -108 LINE",
"510 -56 LINE",
"32 -56 LINE",
"32 -108 LINE"
);
}
);
width = 542;
}
);
unicode = 005F;
},
{
color = 6;
glyphname = parenleft;
lastChange = "2023-09-29 09:16:19 +0000";
layers = (
{
layerId = "CFBFE906-6BC9-42DE-B086-7F9578F7A428";
paths = (
{
closed = 1;
nodes = (
"138 305 LINE",
"138 497 OFFCURVE",
"198 622 OFFCURVE",
"308 746 CURVE",
"281 770 LINE",
"122 633 OFFCURVE",
"48 500 OFFCURVE",
"48 305 CURVE"
);
},
{
closed = 1;
nodes = (
"308 -136 LINE",
"198 -12 OFFCURVE",
"138 113 OFFCURVE",
"138 305 CURVE",
"48 305 LINE",
"48 110 OFFCURVE",
"122 -23 OFFCURVE",
"281 -160 CURVE"
);
}
);
width = 321;
}
);
unicode = 0028;
},
{
color = 6;
glyphname = braceleft;
lastChange = "2023-09-29 09:16:19 +0000";
layers = (
{
layerId = "CFBFE906-6BC9-42DE-B086-7F9578F7A428";
paths = (
{
closed = 1;
nodes = (
"293 -115 LINE",
"204 -115 OFFCURVE",
"168 -79 OFFCURVE",
"186 12 CURVE SMOOTH",
"215 161 LINE SMOOTH",
"231 245 OFFCURVE",
"201 290 OFFCURVE",
"127 305 CURVE",
"201 320 OFFCURVE",
"231 365 OFFCURVE",
"215 449 CURVE SMOOTH",
"186 598 LINE SMOOTH",
"168 689 OFFCURVE",
"204 725 OFFCURVE",
"293 725 CURVE",
"293 765 LINE",
"142 775 OFFCURVE",
"73 708 OFFCURVE",
"97 590 CURVE SMOOTH",
"129 431 LINE SMOOTH",
"143 362 OFFCURVE",
"124 330 OFFCURVE",
"65 326 CURVE SMOOTH",
"35 324 LINE",
"35 286 LINE",
"65 284 LINE SMOOTH",
"124 280 OFFCURVE",
"143 248 OFFCURVE",
"129 179 CURVE SMOOTH",
"97 20 LINE SMOOTH",
"73 -98 OFFCURVE",
"142 -165 OFFCURVE",
"293 -155 CURVE"
);
}
);
width = 328;
}
);
unicode = 007B;
},
{
color = 6;
glyphname = bracketleft;
lastChange = "2023-09-29 09:16:19 +0000";
layers = (
{
layerId = "CFBFE906-6BC9-42DE-B086-7F9578F7A428";
paths = (
{
closed = 1;
nodes = (
"296 -150 LINE",
"296 -110 LINE",
"245 -106 LINE SMOOTH",
"196 -102 OFFCURVE",
"186 -100 OFFCURVE",
"186 -58 CURVE SMOOTH",
"186 668 LINE SMOOTH",
"186 710 OFFCURVE",
"196 712 OFFCURVE",
"245 716 CURVE SMOOTH",
"296 720 LINE",
"296 760 LINE",
"102 760 LINE",
"102 -150 LINE"
);
}
);
width = 320;
}
);
unicode = 005B;
},
{
color = 6;
glyphname = quotesinglbase;
lastChange = "2023-09-29 09:16:19 +0000";
layers = (
{
layerId = "CFBFE906-6BC9-42DE-B086-7F9578F7A428";
paths = (
{
closed = 1;
nodes = (
"160 -108 OFFCURVE",
"200 -50 OFFCURVE",
"200 13 CURVE SMOOTH",
"200 70 OFFCURVE",
"169 104 OFFCURVE",
"126 104 CURVE SMOOTH",
"88 104 OFFCURVE",
"62 78 OFFCURVE",
"62 46 CURVE SMOOTH",
"62 12 OFFCURVE",
"87 -10 OFFCURVE",
"119 -10 CURVE SMOOTH",
"151 -10 OFFCURVE",
"175 13 OFFCURVE",
"175 47 CURVE",
"146 7 LINE",
"146 -44 OFFCURVE",
"129 -82 OFFCURVE",
"57 -125 CURVE",
"76 -152 LINE"
);
}
);
width = 258;
}
);
leftKerningGroup = period;
rightKerningGroup = period;
unicode = 201A;
},
{
color = 6;
glyphname = quotedblbase;
lastChange = "2023-09-29 09:16:19 +0000";
layers = (
{
layerId = "CFBFE906-6BC9-42DE-B086-7F9578F7A428";
paths = (
{
closed = 1;
nodes = (
"329 -108 OFFCURVE",
"369 -50 OFFCURVE",
"369 13 CURVE SMOOTH",
"369 70 OFFCURVE",
"338 104 OFFCURVE",
"295 104 CURVE SMOOTH",
"257 104 OFFCURVE",
"231 78 OFFCURVE",
"231 46 CURVE SMOOTH",
"231 12 OFFCURVE",
"256 -10 OFFCURVE",
"288 -10 CURVE SMOOTH",
"320 -10 OFFCURVE",
"344 13 OFFCURVE",
"344 47 CURVE",
"315 7 LINE",
"315 -44 OFFCURVE",
"298 -82 OFFCURVE",
"226 -125 CURVE",
"245 -152 LINE"
);
},
{
closed = 1;
nodes = (
"160 -108 OFFCURVE",
"200 -50 OFFCURVE",
"200 13 CURVE SMOOTH",
"200 70 OFFCURVE",
"169 104 OFFCURVE",
"126 104 CURVE SMOOTH",
"88 104 OFFCURVE",
"62 78 OFFCURVE",
"62 46 CURVE SMOOTH",
"62 12 OFFCURVE",
"87 -10 OFFCURVE",
"119 -10 CURVE SMOOTH",
"151 -10 OFFCURVE",
"175 13 OFFCURVE",
"175 47 CURVE",
"146 7 LINE",
"146 -44 OFFCURVE",
"129 -82 OFFCURVE",
"57 -125 CURVE",
"76 -152 LINE"
);
}
);
width = 427;
}
);
leftKerningGroup = period;
rightKerningGroup = period;
unicode = 201E;
},
{
color = 6;
glyphname = quotedblleft;
lastChange = "2023-09-29 09:16:19 +0000";
layers = (
{
layerId = "CFBFE906-6BC9-42DE-B086-7F9578F7A428";
paths = (
{
closed = 1;
nodes = (
"334 454 OFFCURVE",
"360 480 OFFCURVE",
"360 512 CURVE SMOOTH",
"360 546 OFFCURVE",
"335 568 OFFCURVE",
"303 568 CURVE SMOOTH",
"271 568 OFFCURVE",
"247 545 OFFCURVE",
"247 511 CURVE",
"276 551 LINE",
"276 602 OFFCURVE",
"293 640 OFFCURVE",
"365 683 CURVE",
"346 710 LINE",
"262 666 OFFCURVE",
"222 608 OFFCURVE",
"222 545 CURVE SMOOTH",
"222 488 OFFCURVE",
"253 454 OFFCURVE",
"296 454 CURVE SMOOTH"
);
},
{
closed = 1;
nodes = (
"165 454 OFFCURVE",
"191 480 OFFCURVE",
"191 512 CURVE SMOOTH",
"191 546 OFFCURVE",
"166 568 OFFCURVE",
"134 568 CURVE SMOOTH",
"102 568 OFFCURVE",
"78 545 OFFCURVE",
"78 511 CURVE",
"107 551 LINE",
"107 602 OFFCURVE",
"124 640 OFFCURVE",
"196 683 CURVE",
"177 710 LINE",
"93 666 OFFCURVE",
"53 608 OFFCURVE",
"53 545 CURVE SMOOTH",
"53 488 OFFCURVE",
"84 454 OFFCURVE",
"127 454 CURVE SMOOTH"
);
}
);
width = 421;
}
);
leftKerningGroup = quoteleft;
rightKerningGroup = quoteleft;
unicode = 201C;
},
{
color = 6;
glyphname = quotedblright;
lastChange = "2023-09-29 09:16:19 +0000";
layers = (
{
layerId = "CFBFE906-6BC9-42DE-B086-7F9578F7A428";
paths = (
{
closed = 1;
nodes = (
"334 498 OFFCURVE",
"374 556 OFFCURVE",
"374 619 CURVE SMOOTH",
"374 676 OFFCURVE",
"343 710 OFFCURVE",
"300 710 CURVE SMOOTH",
"262 710 OFFCURVE",
"236 684 OFFCURVE",
"236 652 CURVE SMOOTH",
"236 618 OFFCURVE",
"261 596 OFFCURVE",
"293 596 CURVE SMOOTH",
"325 596 OFFCURVE",
"349 619 OFFCURVE",
"349 653 CURVE",
"320 613 LINE",
"320 562 OFFCURVE",
"303 524 OFFCURVE",
"231 481 CURVE",
"250 454 LINE"
);
},
{
closed = 1;
nodes = (
"165 498 OFFCURVE",
"205 556 OFFCURVE",
"205 619 CURVE SMOOTH",
"205 676 OFFCURVE",
"174 710 OFFCURVE",
"131 710 CURVE SMOOTH",
"93 710 OFFCURVE",
"67 684 OFFCURVE",
"67 652 CURVE SMOOTH",
"67 618 OFFCURVE",
"92 596 OFFCURVE",
"124 596 CURVE SMOOTH",
"156 596 OFFCURVE",
"180 619 OFFCURVE",
"180 653 CURVE",
"151 613 LINE",
"151 562 OFFCURVE",
"134 524 OFFCURVE",
"62 481 CURVE",
"81 454 LINE"
);
}
);
width = 420;
}
);
leftKerningGroup = quoteright;
rightKerningGroup = quoteright;
unicode = 201D;
},
{
color = 6;
glyphname = quoteleft;
lastChange = "2023-09-29 09:16:19 +0000";
layers = (
{
layerId = "CFBFE906-6BC9-42DE-B086-7F9578F7A428";
paths = (
{
closed = 1;
nodes = (
"165 454 OFFCURVE",
"191 480 OFFCURVE",
"191 512 CURVE SMOOTH",
"191 546 OFFCURVE",
"166 568 OFFCURVE",
"134 568 CURVE SMOOTH",
"102 568 OFFCURVE",
"78 545 OFFCURVE",
"78 511 CURVE",
"107 551 LINE",
"107 602 OFFCURVE",
"124 640 OFFCURVE",
"196 683 CURVE",
"177 710 LINE",
"93 666 OFFCURVE",
"53 608 OFFCURVE",
"53 545 CURVE SMOOTH",
"53 488 OFFCURVE",
"84 454 OFFCURVE",
"127 454 CURVE SMOOTH"
);
}
);
width = 252;
}
);
leftKerningGroup = quoteleft;
rightKerningGroup = quoteleft;
unicode = 2018;
},
{
color = 6;
glyphname = quoteright;
lastChange = "2023-09-29 09:16:19 +0000";
layers = (
{
layerId = "CFBFE906-6BC9-42DE-B086-7F9578F7A428";
paths = (
{
closed = 1;
nodes = (
"165 498 OFFCURVE",
"205 556 OFFCURVE",
"205 619 CURVE SMOOTH",
"205 676 OFFCURVE",
"174 710 OFFCURVE",
"131 710 CURVE SMOOTH",
"93 710 OFFCURVE",
"67 684 OFFCURVE",
"67 652 CURVE SMOOTH",
"67 618 OFFCURVE",
"92 596 OFFCURVE",
"124 596 CURVE SMOOTH",
"156 596 OFFCURVE",
"180 619 OFFCURVE",
"180 653 CURVE",
"151 613 LINE",
"151 562 OFFCURVE",
"134 524 OFFCURVE",
"62 481 CURVE",
"81 454 LINE"
);
}
);
width = 251;
}
);
leftKerningGroup = quoteright;
rightKerningGroup = quoteright;
unicode = 2019;
},
{
color = 6;
glyphname = guilsinglleft;
lastChange = "2023-09-29 09:16:19 +0000";
layers = (
{
layerId = "CFBFE906-6BC9-42DE-B086-7F9578F7A428";
paths = (
{
closed = 1;
nodes = (
"416 21 LINE",
"327 139 OFFCURVE",
"263 189 OFFCURVE",
"175 260 CURVE",
"259 326 OFFCURVE",
"322 376 OFFCURVE",
"416 497 CURVE",
"386 520 LINE",
"265 397 OFFCURVE",
"184 337 OFFCURVE",
"50 278 CURVE",
"50 242 LINE",
"185 182 OFFCURVE",
"266 122 OFFCURVE",
"386 0 CURVE"
);
}
);
width = 456;
}
);
leftKerningGroup = guilsinglleft;
rightKerningGroup = guilsinglleft;
unicode = 2039;
},
{
color = 6;
glyphname = quotesingle;
lastChange = "2023-09-29 09:16:19 +0000";
layers = (
{
layerId = "CFBFE906-6BC9-42DE-B086-7F9578F7A428";
paths = (
{
closed = 1;
nodes = (
"123 465 LINE",
"143 600 LINE SMOOTH",
"148 630 OFFCURVE",
"152 646 OFFCURVE",
"152 665 CURVE SMOOTH",
"152 693 OFFCURVE",
"132 710 OFFCURVE",
"105 710 CURVE SMOOTH",
"78 710 OFFCURVE",
"58 693 OFFCURVE",
"58 665 CURVE SMOOTH",
"58 646 OFFCURVE",
"62 630 OFFCURVE",
"67 600 CURVE SMOOTH",
"87 465 LINE"
);
}
);
width = 210;
}
);
leftKerningGroup = quotesingle;
rightKerningGroup = quotesingle;
unicode = 0027;
},
{
color = 6;
glyphname = florin;
lastChange = "2023-09-29 09:16:19 +0000";
layers = (
{
layerId = "CFBFE906-6BC9-42DE-B086-7F9578F7A428";
paths = (
{
closed = 1;
nodes = (
"39 -257 OFFCURVE",
"47 -257 OFFCURVE",
"55 -257 CURVE SMOOTH",
"174 -257 OFFCURVE",
"246 -158 OFFCURVE",
"268 -33 CURVE SMOOTH",
"368 523 LINE SMOOTH",
"381 597 OFFCURVE",
"402 660 OFFCURVE",
"440 660 CURVE SMOOTH",
"450 660 OFFCURVE",
"458 660 OFFCURVE",
"482 646 CURVE SMOOTH",
"522 622 LINE SMOOTH",
"529 618 OFFCURVE",
"535 616 OFFCURVE",
"542 616 CURVE SMOOTH",
"567 616 OFFCURVE",
"589 643 OFFCURVE",
"589 660 CURVE SMOOTH",
"589 683 OFFCURVE",
"549 705 OFFCURVE",
"507 709 CURVE SMOOTH",
"499 710 OFFCURVE",
"491 710 OFFCURVE",
"483 710 CURVE SMOOTH",
"364 710 OFFCURVE",
"292 611 OFFCURVE",
"270 486 CURVE SMOOTH",
"170 -70 LINE SMOOTH",
"157 -144 OFFCURVE",
"137 -207 OFFCURVE",
"99 -207 CURVE SMOOTH",
"89 -207 OFFCURVE",
"81 -207 OFFCURVE",
"57 -193 CURVE SMOOTH",
"16 -169 LINE SMOOTH",
"10 -165 OFFCURVE",
"3 -164 OFFCURVE",
"-3 -164 CURVE SMOOTH",
"-28 -164 OFFCURVE",
"-50 -187 OFFCURVE",
"-50 -207 CURVE SMOOTH",
"-50 -230 OFFCURVE",
"-11 -252 OFFCURVE",
"31 -256 CURVE SMOOTH"
);
},
{
closed = 1;
nodes = (
"482 358 LINE",
"494 404 LINE",
"152 404 LINE",
"140 358 LINE"
);
}
);
width = 539;
}
);
unicode = 0192;
},
{
color = 6;
glyphname = at;
lastChange = "2023-09-29 09:16:19 +0000";
layers = (
{
layerId = "CFBFE906-6BC9-42DE-B086-7F9578F7A428";
paths = (
{
closed = 1;
nodes = (
"635 -175 OFFCURVE",
"734 -145 OFFCURVE",
"797 -90 CURVE",
"771 -60 LINE",
"717 -97 OFFCURVE",
"631 -122 OFFCURVE",
"533 -122 CURVE SMOOTH",
"300 -122 OFFCURVE",
"131 24 OFFCURVE",
"131 269 CURVE SMOOTH",
"131 492 OFFCURVE",
"284 661 OFFCURVE",
"502 661 CURVE SMOOTH",
"692 661 OFFCURVE",
"842 556 OFFCURVE",
"842 315 CURVE SMOOTH",
"842 175 OFFCURVE",
"773 81 OFFCURVE",
"694 81 CURVE SMOOTH",
"660 81 OFFCURVE",
"640 96 OFFCURVE",
"641 137 CURVE SMOOTH",
"650 408 LINE SMOOTH",
"652 475 OFFCURVE",
"596 515 OFFCURVE",
"517 515 CURVE SMOOTH",
"433 515 OFFCURVE",
"336 457 OFFCURVE",
"308 386 CURVE SMOOTH",
"301 368 OFFCURVE",
"316 364 OFFCURVE",
"336 364 CURVE SMOOTH",
"375 364 OFFCURVE",
"403 377 OFFCURVE",
"406 390 CURVE SMOOTH",
"418 441 OFFCURVE",
"444 466 OFFCURVE",
"490 466 CURVE SMOOTH",
"535 466 OFFCURVE",
"567 433 OFFCURVE",
"566 388 CURVE SMOOTH",
"564 316 LINE",
"540 308 LINE SMOOTH",
"363 249 OFFCURVE",
"308 183 OFFCURVE",
"309 116 CURVE SMOOTH",
"310 71 OFFCURVE",
"339 25 OFFCURVE",
"421 25 CURVE SMOOTH",
"461 25 OFFCURVE",
"503 38 OFFCURVE",
"556 89 CURVE",
"563 89 LINE",
"567 70 OFFCURVE",
"577 27 OFFCURVE",
"646 27 CURVE SMOOTH",
"789 27 OFFCURVE",
"922 131 OFFCURVE",
"922 346 CURVE SMOOTH",
"922 577 OFFCURVE",
"760 710 OFFCURVE",
"523 710 CURVE SMOOTH",
"243 710 OFFCURVE",
"46 509 OFFCURVE",
"46 258 CURVE SMOOTH",
"46 -13 OFFCURVE",
"236 -175 OFFCURVE",
"520 -175 CURVE SMOOTH"
);
},
{
closed = 1;
nodes = (
"424 93 OFFCURVE",
"402 110 OFFCURVE",
"401 139 CURVE SMOOTH",
"400 168 OFFCURVE",
"418 226 OFFCURVE",
"554 271 CURVE SMOOTH",
"563 274 LINE",
"558 126 LINE",
"535 110 OFFCURVE",
"509 93 OFFCURVE",
"467 93 CURVE SMOOTH"
);
}
);
width = 974;
}
);
unicode = 0040;
},
{
color = 6;
glyphname = ampersand;
lastChange = "2023-09-29 09:16:19 +0000";
layers = (
{
layerId = "CFBFE906-6BC9-42DE-B086-7F9578F7A428";
paths = (
{
closed = 1;
nodes = (
"738 0 LINE",
"738 40 LINE",
"673 45 OFFCURVE",
"653 62 OFFCURVE",
"603 112 CURVE SMOOTH",
"311 404 LINE SMOOTH",
"252 463 OFFCURVE",
"212 504 OFFCURVE",
"212 565 CURVE SMOOTH",
"212 619 OFFCURVE",
"252 662 OFFCURVE",
"319 662 CURVE SMOOTH",
"388 662 OFFCURVE",
"419 616 OFFCURVE",
"419 560 CURVE SMOOTH",
"419 490 OFFCURVE",
"365 438 OFFCURVE",
"294 398 CURVE",
"320 373 LINE",
"429 424 OFFCURVE",
"506 484 OFFCURVE",
"506 572 CURVE SMOOTH",
"506 665 OFFCURVE",
"411 710 OFFCURVE",
"332 710 CURVE SMOOTH",
"214 710 OFFCURVE",
"132 641 OFFCURVE",
"132 538 CURVE SMOOTH",
"132 459 OFFCURVE",
"186 408 OFFCURVE",
"250 344 CURVE SMOOTH",
"593 0 LINE"
);
},
{
closed = 1;
nodes = (
"403 -10 OFFCURVE",
"508 38 OFFCURVE",
"594 264 CURVE SMOOTH",
"628 353 OFFCURVE",
"656 365 OFFCURVE",
"721 370 CURVE",
"721 410 LINE",
"503 410 LINE",
"503 370 LINE",
"514 369 LINE SMOOTH",
"569 364 OFFCURVE",
"569 333 OFFCURVE",
"543 266 CURVE SMOOTH",
"468 74 OFFCURVE",
"385 39 OFFCURVE",
"305 39 CURVE SMOOTH",
"208 39 OFFCURVE",
"140 111 OFFCURVE",
"140 192 CURVE SMOOTH",
"140 273 OFFCURVE",
"190 324 OFFCURVE",
"262 361 CURVE",
"235 382 LINE",
"129 348 OFFCURVE",
"53 276 OFFCURVE",
"53 174 CURVE SMOOTH",
"53 70 OFFCURVE",
"129 -10 OFFCURVE",
"280 -10 CURVE SMOOTH"
);
}
);
width = 761;
}
);
unicode = 0026;
},
{
color = 6;
glyphname = paragraph;
lastChange = "2023-09-29 09:16:19 +0000";
layers = (
{
layerId = "CFBFE906-6BC9-42DE-B086-7F9578F7A428";
paths = (
{
closed = 1;
nodes = (
"272 -147 OFFCURVE",
"460 -34 OFFCURVE",
"460 251 CURVE SMOOTH",
"460 700 LINE",
"402 700 LINE",
"402 244 LINE SMOOTH",
"402 61 OFFCURVE",
"343 2 OFFCURVE",
"319 -22 CURVE",
"310 -22 LINE",
"320 -4 OFFCURVE",
"320 18 OFFCURVE",
"320 48 CURVE SMOOTH",
"320 700 LINE",
"262 700 LINE",
"262 25 LINE SMOOTH",
"262 -54 OFFCURVE",
"233 -91 OFFCURVE",
"195 -91 CURVE SMOOTH",
"182 -91 OFFCURVE",
"172 -87 OFFCURVE",
"157 -79 CURVE SMOOTH",
"133 -66 LINE SMOOTH",
"95 -45 OFFCURVE",
"65 -78 OFFCURVE",
"65 -103 CURVE SMOOTH",
"65 -128 OFFCURVE",
"110 -147 OFFCURVE",
"148 -147 CURVE SMOOTH"
);
},
{
closed = 1;
nodes = (
"234 700 LINE",
"114 700 OFFCURVE",
"35 621 OFFCURVE",
"35 511 CURVE SMOOTH",
"35 400 OFFCURVE",
"114 321 OFFCURVE",
"234 321 CURVE"
);
},
{
closed = 1;
nodes = (
"266 320 LINE",
"266 700 LINE",
"234 700 LINE",
"234 320 LINE"
);
},
{
closed = 1;
nodes = (
"460 592 LINE",
"460 634 OFFCURVE",
"470 655 OFFCURVE",
"529 659 CURVE SMOOTH",
"550 660 LINE",
"550 700 LINE",
"307 700 LINE",
"307 658 LINE",
"438 658 LINE",
"441 592 LINE"
);
}
);
width = 584;
}
);
unicode = 00B6;
},
{
color = 6;
glyphname = section;
lastChange = "2023-09-29 09:16:19 +0000";
layers = (
{
layerId = "CFBFE906-6BC9-42DE-B086-7F9578F7A428";
paths = (
{
closed = 1;
nodes = (
"261 -147 OFFCURVE",
"435 -44 OFFCURVE",
"435 121 CURVE SMOOTH",
"435 185 OFFCURVE",
"417 239 OFFCURVE",
"358 318 CURVE SMOOTH",
"302 393 LINE SMOOTH",
"269 438 OFFCURVE",
"214 500 OFFCURVE",
"214 559 CURVE SMOOTH",
"214 617 OFFCURVE",
"264 654 OFFCURVE",
"302 654 CURVE SMOOTH",
"315 654 OFFCURVE",
"324 651 OFFCURVE",
"340 642 CURVE SMOOTH",
"364 629 LINE SMOOTH",
"403 609 OFFCURVE",
"432 641 OFFCURVE",
"432 666 CURVE SMOOTH",
"432 691 OFFCURVE",
"387 710 OFFCURVE",
"349 710 CURVE SMOOTH",
"225 710 OFFCURVE",
"51 607 OFFCURVE",
"51 442 CURVE SMOOTH",
"51 378 OFFCURVE",
"72 320 OFFCURVE",
"128 245 CURVE SMOOTH",
"184 170 LINE SMOOTH",
"217 125 OFFCURVE",
"272 63 OFFCURVE",
"272 4 CURVE SMOOTH",
"272 -54 OFFCURVE",
"222 -91 OFFCURVE",
"184 -91 CURVE SMOOTH",
"171 -91 OFFCURVE",
"161 -87 OFFCURVE",
"146 -79 CURVE SMOOTH",
"122 -66 LINE SMOOTH",
"84 -45 OFFCURVE",
"54 -78 OFFCURVE",
"54 -103 CURVE SMOOTH",
"54 -128 OFFCURVE",
"99 -147 OFFCURVE",
"137 -147 CURVE SMOOTH"
);
},
{
closed = 1;
nodes = (
"316 -14 OFFCURVE",
"319 8 OFFCURVE",
"319 38 CURVE SMOOTH",
"319 107 OFFCURVE",
"276 170 OFFCURVE",
"236 221 CURVE SMOOTH",
"182 291 LINE SMOOTH",
"128 361 OFFCURVE",
"111 406 OFFCURVE",
"111 459 CURVE SMOOTH",
"111 522 OFFCURVE",
"147 571 OFFCURVE",
"171 595 CURVE",
"180 595 LINE",
"170 577 OFFCURVE",
"167 555 OFFCURVE",
"167 525 CURVE SMOOTH",
"167 456 OFFCURVE",
"210 394 OFFCURVE",
"250 343 CURVE SMOOTH",
"304 273 LINE SMOOTH",
"361 200 OFFCURVE",
"375 157 OFFCURVE",
"375 104 CURVE SMOOTH",
"375 41 OFFCURVE",
"339 -8 OFFCURVE",
"315 -32 CURVE",
"306 -32 LINE"
);
}
);
width = 486;
}
);
unicode = 00A7;
},
{
color = 6;
glyphname = copyright;
lastChange = "2023-09-29 09:16:19 +0000";
layers = (
{
layerId = "CFBFE906-6BC9-42DE-B086-7F9578F7A428";
paths = (
{
closed = 1;
nodes = (
"631 -10 OFFCURVE",
"781 140 OFFCURVE",
"781 351 CURVE SMOOTH",
"781 560 OFFCURVE",
"631 710 OFFCURVE",
"422 710 CURVE SMOOTH",
"213 710 OFFCURVE",
"63 560 OFFCURVE",
"63 351 CURVE SMOOTH",
"63 140 OFFCURVE",
"213 -10 OFFCURVE",
"422 -10 CURVE SMOOTH"
);
},
{
closed = 1;
nodes = (
"468 161 OFFCURVE",
"512 168 OFFCURVE",
"563 189 CURVE",
"563 291 LINE",
"537 291 LINE",
"517 212 OFFCURVE",
"483 196 OFFCURVE",
"433 196 CURVE SMOOTH",
"351 196 OFFCURVE",
"298 276 OFFCURVE",
"298 362 CURVE SMOOTH",
"298 447 OFFCURVE",
"348 510 OFFCURVE",
"426 510 CURVE SMOOTH",
"491 510 OFFCURVE",
"524 478 OFFCURVE",
"542 429 CURVE",
"568 429 LINE",
"568 514 LINE",
"535 530 OFFCURVE",
"497 545 OFFCURVE",
"435 545 CURVE SMOOTH",
"308 545 OFFCURVE",
"225 456 OFFCURVE",
"225 348 CURVE SMOOTH",
"225 240 OFFCURVE",
"302 161 OFFCURVE",
"425 161 CURVE SMOOTH"
);
},
{
closed = 1;
nodes = (
"246 43 OFFCURVE",
"121 169 OFFCURVE",
"121 351 CURVE SMOOTH",
"121 533 OFFCURVE",
"246 659 OFFCURVE",
"422 659 CURVE SMOOTH",
"598 659 OFFCURVE",
"723 533 OFFCURVE",
"723 351 CURVE SMOOTH",
"723 169 OFFCURVE",
"598 43 OFFCURVE",
"422 43 CURVE SMOOTH"
);
}
);
width = 844;
}
);
leftKerningGroup = copyright;
rightKerningGroup = copyright;
unicode = 00A9;
},
{
color = 6;
glyphname = registered;
lastChange = "2023-09-29 09:16:19 +0000";
layers = (
{
layerId = "CFBFE906-6BC9-42DE-B086-7F9578F7A428";
paths = (
{
closed = 1;
nodes = (
"631 -10 OFFCURVE",
"781 140 OFFCURVE",
"781 351 CURVE SMOOTH",
"781 560 OFFCURVE",
"631 710 OFFCURVE",
"422 710 CURVE SMOOTH",
"213 710 OFFCURVE",
"63 560 OFFCURVE",
"63 351 CURVE SMOOTH",
"63 140 OFFCURVE",
"213 -10 OFFCURVE",
"422 -10 CURVE SMOOTH"
);
},
{
closed = 1;
nodes = (
"246 43 OFFCURVE",
"121 169 OFFCURVE",
"121 351 CURVE SMOOTH",
"121 533 OFFCURVE",
"246 659 OFFCURVE",
"422 659 CURVE SMOOTH",
"598 659 OFFCURVE",
"723 533 OFFCURVE",
"723 351 CURVE SMOOTH",
"723 169 OFFCURVE",
"598 43 OFFCURVE",
"422 43 CURVE SMOOTH"
);
},
{
closed = 1;
nodes = (
"429 164 LINE",
"429 191 LINE",
"401 193 LINE SMOOTH",
"378 195 OFFCURVE",
"370 205 OFFCURVE",
"370 229 CURVE SMOOTH",
"370 337 LINE",
"398 337 LINE SMOOTH",
"460 337 OFFCURVE",
"476 283 OFFCURVE",
"491 208 CURVE SMOOTH",
"498 174 OFFCURVE",
"506 164 OFFCURVE",
"541 164 CURVE SMOOTH",
"595 164 LINE",
"595 191 LINE",
"586 192 LINE SMOOTH",
"568 194 OFFCURVE",
"562 203 OFFCURVE",
"559 224 CURVE SMOOTH",
"548 298 OFFCURVE",
"524 336 OFFCURVE",
"467 351 CURVE",
"544 365 OFFCURVE",
"566 409 OFFCURVE",
"566 449 CURVE SMOOTH",
"566 510 OFFCURVE",
"523 542 OFFCURVE",
"432 542 CURVE SMOOTH",
"250 542 LINE",
"250 515 LINE",
"272 513 LINE SMOOTH",
"295 511 OFFCURVE",
"304 501 OFFCURVE",
"304 477 CURVE SMOOTH",
"304 229 LINE SMOOTH",
"304 205 OFFCURVE",
"295 195 OFFCURVE",
"272 193 CURVE SMOOTH",
"250 191 LINE",
"250 164 LINE"
);
},
{
closed = 1;
nodes = (
"370 489 LINE SMOOTH",
"370 503 OFFCURVE",
"383 508 OFFCURVE",
"425 508 CURVE SMOOTH",
"468 508 OFFCURVE",
"496 482 OFFCURVE",
"496 442 CURVE SMOOTH",
"496 395 OFFCURVE",
"461 371 OFFCURVE",
"413 371 CURVE SMOOTH",
"370 371 LINE"
);
}
);
width = 844;
}
);
leftKerningGroup = copyright;
rightKerningGroup = copyright;
unicode = 00AE;
},
{
color = 6;
glyphname = trademark;
lastChange = "2023-09-29 09:16:19 +0000";
layers = (
{
layerId = "CFBFE906-6BC9-42DE-B086-7F9578F7A428";
paths = (
{
closed = 1;
nodes = (
"335 262 LINE",
"335 289 LINE",
"309 291 LINE SMOOTH",
"281 293 OFFCURVE",
"272 304 OFFCURVE",
"272 334 CURVE SMOOTH",
"272 667 LINE",
"333 665 LINE SMOOTH",
"388 663 OFFCURVE",
"402 648 OFFCURVE",
"412 581 CURVE",
"439 581 LINE",
"435 703 LINE",
"411 701 OFFCURVE",
"377 700 OFFCURVE",
"345 700 CURVE SMOOTH",
"132 700 LINE SMOOTH",
"100 700 OFFCURVE",
"66 701 OFFCURVE",
"42 703 CURVE",
"38 581 LINE",
"65 581 LINE",
"75 648 OFFCURVE",
"89 663 OFFCURVE",
"144 665 CURVE SMOOTH",
"205 667 LINE",
"205 334 LINE SMOOTH",
"205 304 OFFCURVE",
"196 293 OFFCURVE",
"168 291 CURVE SMOOTH",
"142 289 LINE",
"142 262 LINE"
);
},
{
closed = 1;
nodes = (
"629 262 LINE",
"632 289 LINE",
"618 290 LINE SMOOTH",
"576 293 OFFCURVE",
"564 303 OFFCURVE",
"567 344 CURVE SMOOTH",
"590 674 LINE",
"564 672 LINE",
"720 262 LINE",
"741 262 LINE",
"891 660 LINE",
"874 662 LINE",
"903 352 LINE SMOOTH",
"907 306 OFFCURVE",
"900 294 OFFCURVE",
"868 291 CURVE SMOOTH",
"847 289 LINE",
"847 262 LINE",
"1031 262 LINE",
"1031 289 LINE",
"1017 290 LINE SMOOTH",
"981 293 OFFCURVE",
"969 308 OFFCURVE",
"965 352 CURVE SMOOTH",
"939 618 LINE SMOOTH",
"935 658 OFFCURVE",
"943 669 OFFCURVE",
"981 672 CURVE SMOOTH",
"994 673 LINE",
"994 700 LINE",
"871 700 LINE",
"730 327 LINE",
"759 327 LINE",
"617 700 LINE",
"491 700 LINE",
"491 673 LINE",
"504 672 LINE SMOOTH",
"545 669 OFFCURVE",
"555 656 OFFCURVE",
"552 618 CURVE SMOOTH",
"528 344 LINE SMOOTH",
"524 304 OFFCURVE",
"516 293 OFFCURVE",
"482 290 CURVE SMOOTH",
"469 289 LINE",
"469 262 LINE"
);
}
);
width = 1083;
}
);
unicode = 2122;
},
{
color = 6;
glyphname = degree;
lastChange = "2023-09-29 09:16:19 +0000";
layers = (
{
layerId = "CFBFE906-6BC9-42DE-B086-7F9578F7A428";
paths = (
{
closed = 1;
nodes = (
"308 402 OFFCURVE",
"377 462 OFFCURVE",
"377 556 CURVE SMOOTH",
"377 650 OFFCURVE",
"308 710 OFFCURVE",
"220 710 CURVE SMOOTH",
"132 710 OFFCURVE",
"63 650 OFFCURVE",
"63 556 CURVE SMOOTH",
"63 462 OFFCURVE",
"132 402 OFFCURVE",
"220 402 CURVE SMOOTH"
);
},
{
closed = 1;
nodes = (
"163 442 OFFCURVE",
"126 484 OFFCURVE",
"126 556 CURVE SMOOTH",
"126 628 OFFCURVE",
"163 670 OFFCURVE",
"220 670 CURVE SMOOTH",
"277 670 OFFCURVE",
"314 628 OFFCURVE",
"314 556 CURVE SMOOTH",
"314 484 OFFCURVE",
"277 442 OFFCURVE",
"220 442 CURVE SMOOTH"
);
}
);
width = 440;
}
);
unicode = 00B0;
},
{
color = 6;
glyphname = bar;
lastChange = "2023-09-29 09:16:19 +0000";
layers = (
{
layerId = "CFBFE906-6BC9-42DE-B086-7F9578F7A428";
paths = (
{
closed = 1;
nodes = (
"172 -150 LINE",
"172 760 LINE",
"114 760 LINE",
"114 -150 LINE"
);
}
);
width = 286;
}
);
leftKerningGroup = bar;
rightKerningGroup = bar;
unicode = 007C;
},
{
color = 6;
glyphname = brokenbar;
lastChange = "2023-09-29 09:16:19 +0000";
layers = (
{
layerId = "CFBFE906-6BC9-42DE-B086-7F9578F7A428";
paths = (
{
closed = 1;
nodes = (
"172 380 LINE",
"172 760 LINE",
"114 760 LINE",
"114 380 LINE"
);
},
{
closed = 1;
nodes = (
"172 -150 LINE",
"172 230 LINE",
"114 230 LINE",
"114 -150 LINE"
);
}
);
width = 286;
}
);
leftKerningGroup = bar;
rightKerningGroup = bar;
unicode = 00A6;
},
{
color = 6;
glyphname = dagger;
lastChange = "2023-09-29 09:16:19 +0000";
layers = (
{
guideLines = (
{
angle = 90;
position = "{274, 758}";
},
{
angle = 90;
position = "{356, 758}";
}
);
layerId = "CFBFE906-6BC9-42DE-B086-7F9578F7A428";
paths = (
{
closed = 1;
nodes = (
"334 -146 LINE",
"334 -101 LINE",
"318 432 LINE",
"521 419 LINE",
"561 419 LINE",
"561 485 LINE",
"521 485 LINE",
"318 471 LINE",
"336 718 LINE",
"336 758 LINE",
"255 758 LINE",
"255 718 LINE",
"273 471 LINE",
"70 485 LINE",
"30 485 LINE",
"30 419 LINE",
"70 419 LINE",
"273 432 LINE",
"257 -101 LINE",
"257 -146 LINE"
);
}
);
width = 591;
}
);
unicode = 2020;
},
{
color = 6;
glyphname = daggerdbl;
lastChange = "2023-09-29 09:16:19 +0000";
layers = (
{
layerId = "CFBFE906-6BC9-42DE-B086-7F9578F7A428";
paths = (
{
closed = 1;
nodes = (
"362 -146 LINE",
"362 -106 LINE",
"344 141 LINE",
"547 127 LINE",
"587 127 LINE",
"587 193 LINE",
"547 193 LINE",
"344 180 LINE",
"344 432 LINE",
"547 419 LINE",
"587 419 LINE",
"587 485 LINE",
"547 485 LINE",
"344 471 LINE",
"362 718 LINE",
"362 758 LINE",
"281 758 LINE",
"281 718 LINE",
"299 471 LINE",
"96 485 LINE",
"56 485 LINE",
"56 419 LINE",
"96 419 LINE",
"299 432 LINE",
"299 180 LINE",
"96 193 LINE",
"56 193 LINE",
"56 127 LINE",
"96 127 LINE",
"299 141 LINE",
"281 -106 LINE",
"281 -146 LINE"
);
}
);
width = 643;
}
);
unicode = 2021;
},
{
color = 6;
glyphname = copyright.sups;
lastChange = "2023-09-29 09:16:19 +0000";
layers = (
{
layerId = "CFBFE906-6BC9-42DE-B086-7F9578F7A428";
paths = (
{
closed = 1;
nodes = (
"364 468 OFFCURVE",
"448 549 OFFCURVE",
"448 663 CURVE SMOOTH",
"448 775 OFFCURVE",
"364 856 OFFCURVE",
"251 856 CURVE SMOOTH",
"138 856 OFFCURVE",
"54 775 OFFCURVE",
"54 663 CURVE SMOOTH",
"54 549 OFFCURVE",
"138 468 OFFCURVE",
"251 468 CURVE SMOOTH"
);
},
{
closed = 1;
nodes = (
"158 499 OFFCURVE",
"90 568 OFFCURVE",
"90 663 CURVE SMOOTH",
"90 758 OFFCURVE",
"158 825 OFFCURVE",
"251 825 CURVE SMOOTH",
"344 825 OFFCURVE",
"412 758 OFFCURVE",
"412 663 CURVE SMOOTH",
"412 568 OFFCURVE",
"344 499 OFFCURVE",
"251 499 CURVE SMOOTH"
);
},
{
closed = 1;
nodes = (
"275 560 OFFCURVE",
"298 564 OFFCURVE",
"329 575 CURVE",
"329 635 LINE",
"312 635 LINE",
"302 592 OFFCURVE",
"282 584 OFFCURVE",
"260 584 CURVE SMOOTH",
"213 584 OFFCURVE",
"189 620 OFFCURVE",
"189 668 CURVE SMOOTH",
"189 715 OFFCURVE",
"213 743 OFFCURVE",
"256 743 CURVE SMOOTH",
"289 743 OFFCURVE",
"306 726 OFFCURVE",
"315 700 CURVE",
"332 700 LINE",
"332 750 LINE",
"311 759 OFFCURVE",
"288 767 OFFCURVE",
"260 767 CURVE SMOOTH",
"192 767 OFFCURVE",
"143 719 OFFCURVE",
"143 661 CURVE SMOOTH",
"143 603 OFFCURVE",
"188 560 OFFCURVE",
"255 560 CURVE SMOOTH"
);
}
);
width = 502;
}
);
},
{
color = 6;
glyphname = registered.sups;
lastChange = "2023-09-29 09:16:19 +0000";
layers = (
{
layerId = "CFBFE906-6BC9-42DE-B086-7F9578F7A428";
paths = (
{
closed = 1;
nodes = (
"258 562 LINE",
"258 579 LINE",
"245 580 LINE SMOOTH",
"232 581 OFFCURVE",
"228 586 OFFCURVE",
"228 599 CURVE SMOOTH",
"228 654 LINE",
"240 654 LINE SMOOTH",
"274 654 OFFCURVE",
"283 633 OFFCURVE",
"291 590 CURVE SMOOTH",
"295 572 OFFCURVE",
"299 562 OFFCURVE",
"318 562 CURVE SMOOTH",
"352 562 LINE",
"352 579 LINE",
"347 579 LINE SMOOTH",
"338 579 OFFCURVE",
"334 585 OFFCURVE",
"333 596 CURVE SMOOTH",
"327 636 OFFCURVE",
"314 654 OFFCURVE",
"277 663 CURVE",
"322 670 OFFCURVE",
"334 694 OFFCURVE",
"334 715 CURVE SMOOTH",
"334 748 OFFCURVE",
"310 765 OFFCURVE",
"258 765 CURVE SMOOTH",
"158 765 LINE",
"158 748 LINE",
"170 747 LINE SMOOTH",
"183 746 OFFCURVE",
"187 741 OFFCURVE",
"187 728 CURVE SMOOTH",
"187 599 LINE SMOOTH",
"187 586 OFFCURVE",
"183 581 OFFCURVE",
"170 580 CURVE SMOOTH",
"158 579 LINE",
"158 562 LINE"
);
},
{
closed = 1;
nodes = (
"228 733 LINE SMOOTH",
"228 740 OFFCURVE",
"235 743 OFFCURVE",
"254 743 CURVE SMOOTH",
"278 743 OFFCURVE",
"293 731 OFFCURVE",
"293 712 CURVE SMOOTH",
"293 687 OFFCURVE",
"274 675 OFFCURVE",
"248 675 CURVE SMOOTH",
"228 675 LINE"
);
},
{
closed = 1;
nodes = (
"364 468 OFFCURVE",
"448 549 OFFCURVE",
"448 663 CURVE SMOOTH",
"448 775 OFFCURVE",
"364 856 OFFCURVE",
"251 856 CURVE SMOOTH",
"138 856 OFFCURVE",
"54 775 OFFCURVE",
"54 663 CURVE SMOOTH",
"54 549 OFFCURVE",
"138 468 OFFCURVE",
"251 468 CURVE SMOOTH"
);
},
{
closed = 1;
nodes = (
"158 499 OFFCURVE",
"90 568 OFFCURVE",
"90 663 CURVE SMOOTH",
"90 758 OFFCURVE",
"158 825 OFFCURVE",
"251 825 CURVE SMOOTH",
"344 825 OFFCURVE",
"412 758 OFFCURVE",
"412 663 CURVE SMOOTH",
"412 568 OFFCURVE",
"344 499 OFFCURVE",
"251 499 CURVE SMOOTH"
);
}
);
width = 502;
}
);
},
{
color = 6;
glyphname = trademark.sups;
lastChange = "2023-09-29 09:16:19 +0000";
layers = (
{
guideLines = (
{
position = "{694, 765}";
},
{
position = "{701, 562}";
},
{
position = "{694, 745}";
}
);
layerId = "CFBFE906-6BC9-42DE-B086-7F9578F7A428";
paths = (
{
closed = 1;
nodes = (
"352 562 LINE",
"352 579 LINE",
"343 580 LINE SMOOTH",
"324 582 OFFCURVE",
"319 583 OFFCURVE",
"320 601 CURVE SMOOTH",
"331 752 LINE",
"320 752 LINE",
"386 562 LINE",
"417 562 LINE",
"477 746 LINE",
"470 747 LINE",
"483 605 LINE SMOOTH",
"485 584 OFFCURVE",
"482 581 OFFCURVE",
"467 580 CURVE SMOOTH",
"454 579 LINE",
"454 562 LINE",
"555 562 LINE",
"555 579 LINE",
"546 580 LINE SMOOTH",
"528 582 OFFCURVE",
"523 585 OFFCURVE",
"521 605 CURVE SMOOTH",
"509 718 LINE SMOOTH",
"506 744 OFFCURVE",
"510 745 OFFCURVE",
"528 747 CURVE SMOOTH",
"537 748 LINE",
"537 765 LINE",
"460 765 LINE",
"404 592 LINE",
"414 592 LINE",
"355 765 LINE",
"276 765 LINE",
"276 748 LINE",
"285 747 LINE SMOOTH",
"304 745 OFFCURVE",
"309 743 OFFCURVE",
"307 720 CURVE SMOOTH",
"296 601 LINE SMOOTH",
"294 583 OFFCURVE",
"291 582 OFFCURVE",
"275 580 CURVE SMOOTH",
"266 579 LINE",
"266 562 LINE"
);
},
{
closed = 1;
nodes = (
"209 765 LINE SMOOTH",
"225 765 OFFCURVE",
"241 765 OFFCURVE",
"252 766 CURVE",
"254 703 LINE",
"237 703 LINE",
"232 736 OFFCURVE",
"228 743 OFFCURVE",
"199 744 CURVE SMOOTH",
"176 745 LINE",
"176 595 LINE SMOOTH",
"176 583 OFFCURVE",
"180 581 OFFCURVE",
"194 580 CURVE SMOOTH",
"210 579 LINE",
"210 562 LINE",
"100 562 LINE",
"100 579 LINE",
"116 580 LINE SMOOTH",
"129 581 OFFCURVE",
"134 583 OFFCURVE",
"134 595 CURVE SMOOTH",
"134 745 LINE",
"111 744 LINE SMOOTH",
"82 743 OFFCURVE",
"78 736 OFFCURVE",
"73 703 CURVE",
"56 703 LINE",
"58 766 LINE",
"69 765 OFFCURVE",
"85 765 OFFCURVE",
"101 765 CURVE SMOOTH"
);
}
);
width = 611;
}
);
},
{
color = 6;
glyphname = H.circled;
lastChange = "2023-09-29 09:16:19 +0000";
layers = (
{
anchors = (
{
name = bottom;
position = "{446, 0}";
},
{
name = center;
position = "{446, 350}";
},
{
name = top;
position = "{446, 700}";
},
{
name = topleft;
position = "{31, 700}";
}
);
layerId = "CFBFE906-6BC9-42DE-B086-7F9578F7A428";
paths = (
{
closed = 1;
nodes = (
"619 -10 OFFCURVE",
"779 150 OFFCURVE",
"779 351 CURVE SMOOTH",
"779 550 OFFCURVE",
"619 710 OFFCURVE",
"420 710 CURVE SMOOTH",
"221 710 OFFCURVE",
"61 550 OFFCURVE",
"61 351 CURVE SMOOTH",
"61 150 OFFCURVE",
"221 -10 OFFCURVE",
"420 -10 CURVE SMOOTH"
);
},
{
closed = 1;
nodes = (
"249 38 OFFCURVE",
"110 181 OFFCURVE",
"110 351 CURVE SMOOTH",
"110 522 OFFCURVE",
"249 662 OFFCURVE",
"420 662 CURVE SMOOTH",
"591 662 OFFCURVE",
"730 522 OFFCURVE",
"730 351 CURVE SMOOTH",
"730 181 OFFCURVE",
"591 38 OFFCURVE",
"420 38 CURVE SMOOTH"
);
},
{
closed = 1;
nodes = (
"313 154 LINE",
"313 328 LINE",
"527 328 LINE",
"527 154 LINE",
"575 154 LINE",
"575 547 LINE",
"527 547 LINE",
"527 376 LINE",
"313 376 LINE",
"313 547 LINE",
"265 547 LINE",
"265 154 LINE"
);
}
);
width = 840;
}
);
leftKerningGroup = copyright;
rightKerningGroup = copyright;
unicode = 24BD;
},
{
color = 6;
glyphname = H.circled.sups;
lastChange = "2023-09-29 09:16:19 +0000";
layers = (
{
layerId = "CFBFE906-6BC9-42DE-B086-7F9578F7A428";
paths = (
{
closed = 1;
nodes = (
"130 445 OFFCURVE",
"56 518 OFFCURVE",
"56 610 CURVE SMOOTH",
"56 702 OFFCURVE",
"130 775 OFFCURVE",
"221 775 CURVE SMOOTH",
"312 775 OFFCURVE",
"386 702 OFFCURVE",
"386 610 CURVE SMOOTH",
"386 518 OFFCURVE",
"312 445 OFFCURVE",
"221 445 CURVE SMOOTH"
);
},
{
closed = 1;
nodes = (
"300 467 OFFCURVE",
"363 532 OFFCURVE",
"363 610 CURVE SMOOTH",
"363 689 OFFCURVE",
"300 753 OFFCURVE",
"221 753 CURVE SMOOTH",
"143 753 OFFCURVE",
"79 689 OFFCURVE",
"79 610 CURVE SMOOTH",
"79 532 OFFCURVE",
"143 467 OFFCURVE",
"221 467 CURVE SMOOTH"
);
},
{
closed = 1;
nodes = (
"270 520 LINE",
"270 600 LINE",
"172 600 LINE",
"172 520 LINE",
"150 520 LINE",
"150 700 LINE",
"172 700 LINE",
"172 622 LINE",
"270 622 LINE",
"270 700 LINE",
"292 700 LINE",
"292 520 LINE"
);
}
);
width = 442;
}
);
},
{
color = 3;
glyphname = cent;
lastChange = "2023-09-29 09:16:19 +0000";
layers = (
{
components = (
{
name = c;
transform = "{1, 0, 0, 1, 11, 0}";
}
);
layerId = "CFBFE906-6BC9-42DE-B086-7F9578F7A428";
paths = (
{
closed = 1;
nodes = (
"236 -149 LINE",
"361 669 LINE",
"311 669 LINE",
"186 -149 LINE"
);
}
);
width = 560;
}
);
unicode = 00A2;
},
{
color = 6;
glyphname = currency;
lastChange = "2023-09-29 09:16:19 +0000";
layers = (
{
layerId = "CFBFE906-6BC9-42DE-B086-7F9578F7A428";
paths = (
{
closed = 1;
nodes = (
"437 125 OFFCURVE",
"529 215 OFFCURVE",
"529 338 CURVE SMOOTH",
"529 461 OFFCURVE",
"437 551 OFFCURVE",
"315 551 CURVE SMOOTH",
"192 551 OFFCURVE",
"100 461 OFFCURVE",
"100 338 CURVE SMOOTH",
"100 215 OFFCURVE",
"192 125 OFFCURVE",
"315 125 CURVE SMOOTH"
);
},
{
closed = 1;
nodes = (
"208 197 LINE",
"172 232 LINE",
"73 134 LINE",
"110 99 LINE"
);
},
{
closed = 1;
nodes = (
"209 478 LINE",
"109 577 LINE",
"73 542 LINE",
"171 444 LINE"
);
},
{
closed = 1;
nodes = (
"220 174 OFFCURVE",
"157 238 OFFCURVE",
"157 338 CURVE SMOOTH",
"157 438 OFFCURVE",
"220 502 OFFCURVE",
"315 502 CURVE SMOOTH",
"409 502 OFFCURVE",
"472 438 OFFCURVE",
"472 338 CURVE SMOOTH",
"472 238 OFFCURVE",
"409 174 OFFCURVE",
"315 174 CURVE SMOOTH"
);
},
{
closed = 1;
nodes = (
"556 134 LINE",
"457 232 LINE",
"421 197 LINE",
"519 99 LINE"
);
},
{
closed = 1;
nodes = (
"556 542 LINE",
"520 577 LINE",
"420 478 LINE",
"458 444 LINE"
);
}
);
width = 629;
}
);
unicode = 00A4;
},
{
color = 3;
glyphname = dollar;
lastChange = "2023-09-29 09:16:19 +0000";
layers = (
{
components = (
{
name = S;
transform = "{1, 0, 0, 1, -12, 0}";
}
);
layerId = "CFBFE906-6BC9-42DE-B086-7F9578F7A428";
paths = (
{
closed = 1;
nodes = (
"207 -110 LINE",
"343 810 LINE",
"293 810 LINE",
"157 -110 LINE"
);
}
);
width = 538;
}
);
unicode = 0024;
},
{
color = 6;
glyphname = euro;
lastChange = "2023-09-29 09:16:19 +0000";
layers = (
{
layerId = "CFBFE906-6BC9-42DE-B086-7F9578F7A428";
paths = (
{
closed = 1;
nodes = (
"578 -10 OFFCURVE",
"661 4 OFFCURVE",
"756 42 CURVE",
"756 201 LINE",
"714 201 LINE",
"679 71 OFFCURVE",
"621 42 OFFCURVE",
"535 42 CURVE SMOOTH",
"366 42 OFFCURVE",
"267 202 OFFCURVE",
"267 366 CURVE SMOOTH",
"267 537 OFFCURVE",
"366 658 OFFCURVE",
"520 658 CURVE SMOOTH",
"638 658 OFFCURVE",
"704 600 OFFCURVE",
"725 520 CURVE",
"766 520 LINE",
"766 654 LINE",
"704 683 OFFCURVE",
"633 710 OFFCURVE",
"531 710 CURVE SMOOTH",
"321 710 OFFCURVE",
"166 543 OFFCURVE",
"166 340 CURVE SMOOTH",
"166 138 OFFCURVE",
"311 -10 OFFCURVE",
"518 -10 CURVE SMOOTH"
);
},
{
closed = 1;
nodes = (
"605 269 LINE",
"605 315 LINE",
"57 315 LINE",
"57 269 LINE"
);
},
{
closed = 1;
nodes = (
"625 399 LINE",
"625 445 LINE",
"77 445 LINE",
"77 399 LINE"
);
}
);
width = 834;
}
);
unicode = 20AC;
},
{
color = 6;
glyphname = sterling;
lastChange = "2023-09-29 09:16:19 +0000";
layers = (
{
layerId = "CFBFE906-6BC9-42DE-B086-7F9578F7A428";
paths = (
{
closed = 1;
nodes = (
"485 -32 OFFCURVE",
"568 49 OFFCURVE",
"574 101 CURVE SMOOTH",
"582 163 OFFCURVE",
"496 139 OFFCURVE",
"496 87 CURVE SMOOTH",
"496 85 LINE SMOOTH",
"496 53 OFFCURVE",
"487 29 OFFCURVE",
"463 29 CURVE SMOOTH",
"404 29 OFFCURVE",
"356 71 OFFCURVE",
"246 83 CURVE SMOOTH",
"226 85 OFFCURVE",
"202 86 OFFCURVE",
"174 84 CURVE",
"173 85 LINE",
"275 187 OFFCURVE",
"284 323 OFFCURVE",
"284 478 CURVE SMOOTH",
"284 597 OFFCURVE",
"327 654 OFFCURVE",
"379 654 CURVE SMOOTH",
"385 654 OFFCURVE",
"400 653 OFFCURVE",
"416 646 CURVE SMOOTH",
"466 624 LINE SMOOTH",
"487 615 OFFCURVE",
"521 635 OFFCURVE",
"521 666 CURVE SMOOTH",
"521 691 OFFCURVE",
"476 710 OFFCURVE",
"432 710 CURVE SMOOTH",
"288 710 OFFCURVE",
"185 597 OFFCURVE",
"185 421 CURVE SMOOTH",
"185 319 OFFCURVE",
"192 146 OFFCURVE",
"118 77 CURVE",
"102 73 OFFCURVE",
"86 67 OFFCURVE",
"68 61 CURVE SMOOTH",
"42 52 OFFCURVE",
"22 33 OFFCURVE",
"22 11 CURVE SMOOTH",
"22 0 OFFCURVE",
"31 -12 OFFCURVE",
"51 -12 CURVE SMOOTH",
"92 -12 OFFCURVE",
"116 12 OFFCURVE",
"137 33 CURVE SMOOTH",
"146 42 LINE",
"178 56 OFFCURVE",
"209 37 OFFCURVE",
"249 15 CURVE SMOOTH",
"280 -2 OFFCURVE",
"345 -32 OFFCURVE",
"395 -32 CURVE SMOOTH"
);
},
{
closed = 1;
nodes = (
"461 307 LINE",
"473 353 LINE",
"65 353 LINE",
"53 307 LINE"
);
}
);
width = 605;
}
);
unicode = 00A3;
},
{
color = 3;
glyphname = yen;
lastChange = "2023-09-29 09:16:19 +0000";
layers = (
{
components = (
{
name = Y;
transform = "{1, 0, 0, 1, 12, 0}";
}
);
layerId = "CFBFE906-6BC9-42DE-B086-7F9578F7A428";
paths = (
{
closed = 1;
nodes = (
"597 247 LINE",
"597 293 LINE",
"89 293 LINE",
"89 247 LINE"
);
},
{
closed = 1;
nodes = (
"287 389 LINE",
"287 435 LINE",
"89 435 LINE",
"89 389 LINE"
);
},
{
closed = 1;
nodes = (
"597 389 LINE",
"597 435 LINE",
"419 435 LINE",
"409 389 LINE"
);
}
);
width = 687;
}
);
unicode = 00A5;
},
{
color = 6;
glyphname = plus;
lastChange = "2023-09-29 09:16:19 +0000";
layers = (
{
layerId = "CFBFE906-6BC9-42DE-B086-7F9578F7A428";
paths = (
{
closed = 1;
nodes = (
"318 97 LINE",
"318 565 LINE",
"260 565 LINE",
"260 97 LINE"
);
},
{
closed = 1;
nodes = (
"528 305 LINE",
"528 357 LINE",
"50 357 LINE",
"50 305 LINE"
);
}
);
width = 578;
}
);
unicode = 002B;
},
{
color = 6;
glyphname = minus;
lastChange = "2023-09-29 09:16:19 +0000";
layers = (
{
layerId = "CFBFE906-6BC9-42DE-B086-7F9578F7A428";
paths = (
{
closed = 1;
nodes = (
"528 305 LINE",
"528 357 LINE",
"50 357 LINE",
"50 305 LINE"
);
}
);
width = 578;
}
);
unicode = 2212;
},
{
color = 6;
glyphname = multiply;
lastChange = "2023-09-29 09:16:19 +0000";
layers = (
{
layerId = "CFBFE906-6BC9-42DE-B086-7F9578F7A428";
paths = (
{
closed = 1;
nodes = (
"483 489 LINE",
"447 525 LINE",
"95 173 LINE",
"131 137 LINE"
);
},
{
closed = 1;
nodes = (
"481 178 LINE",
"136 523 LINE",
"97 484 LINE",
"442 139 LINE"
);
}
);
width = 578;
}
);
unicode = 00D7;
},
{
color = 3;
glyphname = divide;
lastChange = "2023-09-29 09:16:19 +0000";
layers = (
{
components = (
{
name = period;
transform = "{0.9434, 0, 0, 0.9434, 182, 137}";
},
{
name = period;
transform = "{0.9434, 0, 0, 0.9434, 182, 437}";
}
);
layerId = "CFBFE906-6BC9-42DE-B086-7F9578F7A428";
paths = (
{
closed = 1;
nodes = (
"528 305 LINE",
"528 357 LINE",
"50 357 LINE",
"50 305 LINE"
);
}
);
width = 578;
}
);
unicode = 00F7;
},
{
color = 6;
glyphname = equal;
lastChange = "2023-09-29 09:16:19 +0000";
layers = (
{
layerId = "CFBFE906-6BC9-42DE-B086-7F9578F7A428";
paths = (
{
closed = 1;
nodes = (
"528 394 LINE",
"528 446 LINE",
"50 446 LINE",
"50 394 LINE"
);
},
{
closed = 1;
nodes = (
"528 214 LINE",
"528 266 LINE",
"50 266 LINE",
"50 214 LINE"
);
}
);
width = 578;
}
);
unicode = 003D;
},
{
color = 6;
glyphname = notequal;
lastChange = "2023-09-29 09:16:19 +0000";
layers = (
{
layerId = "CFBFE906-6BC9-42DE-B086-7F9578F7A428";
paths = (
{
closed = 1;
nodes = (
"195 97 LINE",
"435 565 LINE",
"386 565 LINE",
"146 97 LINE"
);
},
{
closed = 1;
nodes = (
"529 214 LINE",
"529 266 LINE",
"51 266 LINE",
"51 214 LINE"
);
},
{
closed = 1;
nodes = (
"529 394 LINE",
"529 446 LINE",
"51 446 LINE",
"51 394 LINE"
);
}
);
width = 578;
}
);
unicode = 2260;
},
{
color = 6;
glyphname = greater;
lastChange = "2023-09-29 09:16:19 +0000";
layers = (
{
layerId = "CFBFE906-6BC9-42DE-B086-7F9578F7A428";
paths = (
{
closed = 1;
nodes = (
"531 300 LINE",
"531 362 LINE",
"53 542 LINE",
"53 487 LINE",
"478 332 LINE",
"478 330 LINE",
"53 175 LINE",
"53 120 LINE"
);
}
);
width = 578;
}
);
unicode = 003E;
},
{
color = 6;
glyphname = less;
lastChange = "2023-09-29 09:16:19 +0000";
layers = (
{
layerId = "CFBFE906-6BC9-42DE-B086-7F9578F7A428";
paths = (
{
closed = 1;
nodes = (
"525 175 LINE",
"100 330 LINE",
"100 332 LINE",
"525 487 LINE",
"525 542 LINE",
"47 362 LINE",
"47 300 LINE",
"525 120 LINE"
);
}
);
width = 578;
}
);
unicode = 003C;
},
{
color = 6;
glyphname = greaterequal;
lastChange = "2023-09-29 09:16:19 +0000";
layers = (
{
layerId = "CFBFE906-6BC9-42DE-B086-7F9578F7A428";
paths = (
{
closed = 1;
nodes = (
"527 195 LINE",
"102 330 LINE",
"102 332 LINE",
"527 467 LINE",
"527 522 LINE",
"49 362 LINE",
"49 300 LINE",
"527 140 LINE"
);
},
{
closed = 1;
nodes = (
"527 0 LINE",
"527 52 LINE",
"49 52 LINE",
"49 0 LINE"
);
}
);
width = 578;
}
);
unicode = 2265;
},
{
color = 6;
glyphname = lessequal;
lastChange = "2023-09-29 09:16:19 +0000";
layers = (
{
layerId = "CFBFE906-6BC9-42DE-B086-7F9578F7A428";
paths = (
{
closed = 1;
nodes = (
"529 300 LINE",
"529 362 LINE",
"51 522 LINE",
"51 467 LINE",
"476 332 LINE",
"476 330 LINE",
"51 195 LINE",
"51 140 LINE"
);
},
{
closed = 1;
nodes = (
"529 0 LINE",
"529 52 LINE",
"51 52 LINE",
"51 0 LINE"
);
}
);
width = 578;
}
);
unicode = 2264;
},
{
color = 6;
glyphname = plusminus;
lastChange = "2023-09-29 09:16:19 +0000";
layers = (
{
layerId = "CFBFE906-6BC9-42DE-B086-7F9578F7A428";
paths = (
{
closed = 1;
nodes = (
"528 305 LINE",
"528 357 LINE",
"50 357 LINE",
"50 305 LINE"
);
},
{
closed = 1;
nodes = (
"528 0 LINE",
"528 52 LINE",
"50 52 LINE",
"50 0 LINE"
);
},
{
closed = 1;
nodes = (
"318 127 LINE",
"318 535 LINE",
"260 535 LINE",
"260 127 LINE"
);
}
);
width = 578;
}
);
unicode = 00B1;
},
{
color = 6;
glyphname = approxequal;
lastChange = "2023-09-29 09:16:19 +0000";
layers = (
{
layerId = "CFBFE906-6BC9-42DE-B086-7F9578F7A428";
paths = (
{
closed = 1;
nodes = (
"121 393 OFFCURVE",
"146 407 OFFCURVE",
"186 407 CURVE SMOOTH",
"211 407 OFFCURVE",
"232 402 OFFCURVE",
"261 391 CURVE SMOOTH",
"294 378 LINE SMOOTH",
"313 371 OFFCURVE",
"342 360 OFFCURVE",
"377 360 CURVE SMOOTH",
"426 360 OFFCURVE",
"479 387 OFFCURVE",
"507 476 CURVE",
"479 485 LINE",
"459 439 OFFCURVE",
"434 425 OFFCURVE",
"394 425 CURVE SMOOTH",
"369 425 OFFCURVE",
"348 430 OFFCURVE",
"319 441 CURVE SMOOTH",
"286 454 LINE SMOOTH",
"267 461 OFFCURVE",
"238 472 OFFCURVE",
"203 472 CURVE SMOOTH",
"154 472 OFFCURVE",
"101 445 OFFCURVE",
"73 356 CURVE",
"101 347 LINE"
);
},
{
closed = 1;
nodes = (
"121 223 OFFCURVE",
"146 237 OFFCURVE",
"186 237 CURVE SMOOTH",
"211 237 OFFCURVE",
"232 232 OFFCURVE",
"261 221 CURVE SMOOTH",
"294 208 LINE SMOOTH",
"313 201 OFFCURVE",
"342 190 OFFCURVE",
"377 190 CURVE SMOOTH",
"426 190 OFFCURVE",
"479 217 OFFCURVE",
"507 306 CURVE",
"479 315 LINE",
"459 269 OFFCURVE",
"434 255 OFFCURVE",
"394 255 CURVE SMOOTH",
"369 255 OFFCURVE",
"348 260 OFFCURVE",
"319 271 CURVE SMOOTH",
"286 284 LINE SMOOTH",
"267 291 OFFCURVE",
"238 302 OFFCURVE",
"203 302 CURVE SMOOTH",
"154 302 OFFCURVE",
"101 275 OFFCURVE",
"73 186 CURVE",
"101 177 LINE"
);
}
);
width = 578;
}
);
unicode = 2248;
},
{
color = 6;
glyphname = asciitilde;
lastChange = "2023-09-29 09:16:19 +0000";
layers = (
{
layerId = "CFBFE906-6BC9-42DE-B086-7F9578F7A428";
paths = (
{
closed = 1;
nodes = (
"120 303 OFFCURVE",
"145 317 OFFCURVE",
"185 317 CURVE SMOOTH",
"210 317 OFFCURVE",
"231 312 OFFCURVE",
"260 301 CURVE SMOOTH",
"293 288 LINE SMOOTH",
"312 281 OFFCURVE",
"341 270 OFFCURVE",
"376 270 CURVE SMOOTH",
"425 270 OFFCURVE",
"478 297 OFFCURVE",
"506 386 CURVE",
"478 395 LINE",
"458 349 OFFCURVE",
"433 335 OFFCURVE",
"393 335 CURVE SMOOTH",
"368 335 OFFCURVE",
"347 340 OFFCURVE",
"318 351 CURVE SMOOTH",
"285 364 LINE SMOOTH",
"266 371 OFFCURVE",
"237 382 OFFCURVE",
"202 382 CURVE SMOOTH",
"153 382 OFFCURVE",
"100 355 OFFCURVE",
"72 266 CURVE",
"100 257 LINE"
);
}
);
width = 578;
}
);
unicode = 007E;
},
{
color = 6;
glyphname = logicalnot;
lastChange = "2023-09-29 09:16:19 +0000";
layers = (
{
layerId = "CFBFE906-6BC9-42DE-B086-7F9578F7A428";
paths = (
{
closed = 1;
nodes = (
"524 405 LINE",
"524 457 LINE",
"46 457 LINE",
"46 405 LINE"
);
},
{
closed = 1;
nodes = (
"524 197 LINE",
"524 455 LINE",
"466 455 LINE",
"466 197 LINE"
);
}
);
width = 578;
}
);
unicode = 00AC;
},
{
color = 6;
glyphname = asciicircum;
lastChange = "2023-09-29 09:16:19 +0000";
layers = (
{
layerId = "CFBFE906-6BC9-42DE-B086-7F9578F7A428";
paths = (
{
closed = 1;
nodes = (
"153 338 LINE",
"288 647 LINE",
"290 647 LINE",
"425 338 LINE",
"479 338 LINE",
"319 700 LINE",
"259 700 LINE",
"99 338 LINE"
);
}
);
width = 578;
}
);
unicode = 005E;
},
{
color = 6;
glyphname = infinity;
lastChange = "2023-09-29 09:16:19 +0000";
layers = (
{
layerId = "CFBFE906-6BC9-42DE-B086-7F9578F7A428";
paths = (
{
closed = 1;
nodes = (
"287 174 OFFCURVE",
"343 213 OFFCURVE",
"391 304 CURVE",
"371 323 LINE",
"339 280 OFFCURVE",
"310 221 OFFCURVE",
"223 221 CURVE SMOOTH",
"176 221 OFFCURVE",
"120 247 OFFCURVE",
"120 336 CURVE SMOOTH",
"120 389 OFFCURVE",
"157 437 OFFCURVE",
"221 437 CURVE SMOOTH",
"287 437 OFFCURVE",
"313 389 OFFCURVE",
"362 311 CURVE SMOOTH",
"389 268 LINE SMOOTH",
"422 216 OFFCURVE",
"465 174 OFFCURVE",
"553 174 CURVE SMOOTH",
"630 174 OFFCURVE",
"727 227 OFFCURVE",
"727 339 CURVE SMOOTH",
"727 435 OFFCURVE",
"647 484 OFFCURVE",
"573 484 CURVE SMOOTH",
"497 484 OFFCURVE",
"441 445 OFFCURVE",
"393 354 CURVE",
"403 325 LINE",
"435 368 OFFCURVE",
"474 437 OFFCURVE",
"559 437 CURVE SMOOTH",
"606 437 OFFCURVE",
"664 411 OFFCURVE",
"664 322 CURVE SMOOTH",
"664 269 OFFCURVE",
"627 221 OFFCURVE",
"563 221 CURVE SMOOTH",
"497 221 OFFCURVE",
"471 269 OFFCURVE",
"420 349 CURVE SMOOTH",
"394 390 LINE SMOOTH",
"361 442 OFFCURVE",
"319 484 OFFCURVE",
"231 484 CURVE SMOOTH",
"154 484 OFFCURVE",
"57 431 OFFCURVE",
"57 319 CURVE SMOOTH",
"57 223 OFFCURVE",
"135 174 OFFCURVE",
"209 174 CURVE SMOOTH"
);
}
);
width = 783;
}
);
unicode = 221E;
},
{
color = 6;
glyphname = integral;
lastChange = "2023-09-29 09:16:19 +0000";
layers = (
{
layerId = "CFBFE906-6BC9-42DE-B086-7F9578F7A428";
paths = (
{
closed = 1;
nodes = (
"220 -147 OFFCURVE",
"276 -34 OFFCURVE",
"276 101 CURVE SMOOTH",
"276 237 OFFCURVE",
"265 373 OFFCURVE",
"265 509 CURVE SMOOTH",
"265 587 OFFCURVE",
"269 654 OFFCURVE",
"310 654 CURVE SMOOTH",
"318 654 OFFCURVE",
"327 654 OFFCURVE",
"341 646 CURVE SMOOTH",
"375 627 LINE SMOOTH",
"406 610 OFFCURVE",
"433 641 OFFCURVE",
"433 666 CURVE SMOOTH",
"433 691 OFFCURVE",
"388 710 OFFCURVE",
"354 710 CURVE SMOOTH",
"230 710 OFFCURVE",
"175 597 OFFCURVE",
"175 462 CURVE SMOOTH",
"175 326 OFFCURVE",
"186 190 OFFCURVE",
"186 54 CURVE SMOOTH",
"186 -24 OFFCURVE",
"181 -91 OFFCURVE",
"150 -91 CURVE SMOOTH",
"142 -91 OFFCURVE",
"133 -91 OFFCURVE",
"110 -80 CURVE SMOOTH",
"75 -63 LINE SMOOTH",
"44 -47 OFFCURVE",
"17 -78 OFFCURVE",
"17 -103 CURVE SMOOTH",
"17 -128 OFFCURVE",
"62 -147 OFFCURVE",
"96 -147 CURVE SMOOTH"
);
}
);
width = 451;
}
);
unicode = 222B;
},
{
color = 6;
glyphname = product;
lastChange = "2023-09-29 09:16:19 +0000";
layers = (
{
guideLines = (
{
position = "{372, -136}";
}
);
layerId = "CFBFE906-6BC9-42DE-B086-7F9578F7A428";
paths = (
{
closed = 1;
nodes = (
"763 -136 LINE",
"763 -96 LINE",
"742 -95 LINE SMOOTH",
"663 -91 OFFCURVE",
"653 -70 OFFCURVE",
"653 -28 CURVE SMOOTH",
"653 592 LINE SMOOTH",
"653 634 OFFCURVE",
"663 655 OFFCURVE",
"742 659 CURVE SMOOTH",
"763 660 LINE",
"763 700 LINE",
"559 700 LINE",
"559 -28 LINE SMOOTH",
"559 -70 OFFCURVE",
"549 -91 OFFCURVE",
"470 -95 CURVE SMOOTH",
"449 -96 LINE",
"449 -136 LINE"
);
},
{
closed = 1;
nodes = (
"353 -136 LINE",
"353 -96 LINE",
"332 -95 LINE SMOOTH",
"253 -91 OFFCURVE",
"243 -70 OFFCURVE",
"243 -28 CURVE SMOOTH",
"243 700 LINE",
"39 700 LINE",
"39 660 LINE",
"60 659 LINE SMOOTH",
"139 655 OFFCURVE",
"149 634 OFFCURVE",
"149 592 CURVE SMOOTH",
"149 -28 LINE SMOOTH",
"149 -70 OFFCURVE",
"139 -91 OFFCURVE",
"60 -95 CURVE SMOOTH",
"39 -96 LINE",
"39 -136 LINE"
);
},
{
closed = 1;
nodes = (
"643 652 LINE",
"643 700 LINE",
"159 700 LINE",
"159 652 LINE"
);
}
);
width = 802;
}
);
unicode = 220F;
},
{
color = 6;
glyphname = summation;
lastChange = "2023-09-29 09:16:19 +0000";
layers = (
{
layerId = "CFBFE906-6BC9-42DE-B086-7F9578F7A428";
paths = (
{
closed = 1;
nodes = (
"571 62 LINE",
"529 62 LINE",
"499 -23 OFFCURVE",
"462 -68 OFFCURVE",
"361 -68 CURVE SMOOTH",
"72 -68 LINE",
"83 -126 LINE",
"424 303 LINE",
"378 323 LINE",
"33 -106 LINE",
"33 -136 LINE",
"401 -136 LINE SMOOTH",
"434 -136 OFFCURVE",
"488 -138 OFFCURVE",
"545 -142 CURVE"
);
},
{
closed = 1;
nodes = (
"424 302 LINE",
"150 670 LINE",
"37 670 LINE",
"351 242 LINE"
);
},
{
closed = 1;
nodes = (
"556 544 LINE",
"542 706 LINE",
"504 702 OFFCURVE",
"465 700 OFFCURVE",
"401 700 CURVE SMOOTH",
"37 700 LINE",
"37 670 LINE",
"78 666 LINE",
"141 650 LINE",
"382 650 LINE SMOOTH",
"465 650 OFFCURVE",
"497 622 OFFCURVE",
"516 544 CURVE"
);
}
);
width = 620;
}
);
unicode = 2211;
},
{
color = 6;
glyphname = radical;
lastChange = "2023-09-29 09:16:19 +0000";
layers = (
{
layerId = "CFBFE906-6BC9-42DE-B086-7F9578F7A428";
paths = (
{
closed = 1;
nodes = (
"443 -136 LINE",
"693 700 LINE",
"636 700 LINE",
"424 -26 LINE",
"243 419 LINE",
"165 364 LINE",
"379 -136 LINE"
);
},
{
closed = 1;
nodes = (
"256 376 LINE",
"243 419 LINE",
"49 299 LINE",
"68 255 LINE"
);
}
);
width = 723;
}
);
unicode = 221A;
},
{
color = 6;
glyphname = partialdiff;
lastChange = "2023-09-29 09:16:19 +0000";
layers = (
{
layerId = "CFBFE906-6BC9-42DE-B086-7F9578F7A428";
paths = (
{
closed = 1;
nodes = (
"392 -10 OFFCURVE",
"510 156 OFFCURVE",
"510 396 CURVE SMOOTH",
"510 590 OFFCURVE",
"410 710 OFFCURVE",
"232 710 CURVE SMOOTH",
"151 710 OFFCURVE",
"85 684 OFFCURVE",
"85 652 CURVE SMOOTH",
"85 621 OFFCURVE",
"113 597 OFFCURVE",
"146 611 CURVE SMOOTH",
"204 635 LINE SMOOTH",
"227 645 OFFCURVE",
"249 650 OFFCURVE",
"276 650 CURVE SMOOTH",
"374 650 OFFCURVE",
"416 586 OFFCURVE",
"416 434 CURVE SMOOTH",
"416 184 OFFCURVE",
"356 44 OFFCURVE",
"245 44 CURVE SMOOTH",
"179 44 OFFCURVE",
"137 95 OFFCURVE",
"137 181 CURVE SMOOTH",
"137 283 OFFCURVE",
"191 361 OFFCURVE",
"280 361 CURVE SMOOTH",
"330 361 OFFCURVE",
"376 338 OFFCURVE",
"424 276 CURVE",
"432 339 LINE",
"381 393 OFFCURVE",
"321 412 OFFCURVE",
"254 412 CURVE SMOOTH",
"118 412 OFFCURVE",
"43 308 OFFCURVE",
"43 192 CURVE SMOOTH",
"43 71 OFFCURVE",
"125 -10 OFFCURVE",
"237 -10 CURVE SMOOTH"
);
}
);
width = 565;
}
);
unicode = 2202;
},
{
color = 6;
glyphname = percent;
lastChange = "2023-09-29 09:16:19 +0000";
layers = (
{
layerId = "CFBFE906-6BC9-42DE-B086-7F9578F7A428";
paths = (
{
closed = 1;
nodes = (
"253 0 LINE",
"673 700 LINE",
"608 700 LINE",
"188 0 LINE"
);
},
{
closed = 1;
nodes = (
"311 318 OFFCURVE",
"386 395 OFFCURVE",
"386 512 CURVE SMOOTH",
"386 634 OFFCURVE",
"310 706 OFFCURVE",
"207 706 CURVE SMOOTH",
"104 706 OFFCURVE",
"29 629 OFFCURVE",
"29 512 CURVE SMOOTH",
"29 390 OFFCURVE",
"105 318 OFFCURVE",
"208 318 CURVE SMOOTH"
);
},
{
closed = 1;
nodes = (
"144 364 OFFCURVE",
"104 440 OFFCURVE",
"104 528 CURVE SMOOTH",
"104 622 OFFCURVE",
"145 660 OFFCURVE",
"197 660 CURVE SMOOTH",
"271 660 OFFCURVE",
"311 584 OFFCURVE",
"311 496 CURVE SMOOTH",
"311 402 OFFCURVE",
"270 364 OFFCURVE",
"218 364 CURVE SMOOTH"
);
},
{
closed = 1;
nodes = (
"760 -6 OFFCURVE",
"835 71 OFFCURVE",
"835 188 CURVE SMOOTH",
"835 310 OFFCURVE",
"759 382 OFFCURVE",
"656 382 CURVE SMOOTH",
"553 382 OFFCURVE",
"478 304 OFFCURVE",
"478 188 CURVE SMOOTH",
"478 66 OFFCURVE",
"554 -6 OFFCURVE",
"657 -6 CURVE SMOOTH"
);
},
{
closed = 1;
nodes = (
"593 40 OFFCURVE",
"553 116 OFFCURVE",
"553 204 CURVE SMOOTH",
"553 297 OFFCURVE",
"594 336 OFFCURVE",
"646 336 CURVE SMOOTH",
"720 336 OFFCURVE",
"760 260 OFFCURVE",
"760 172 CURVE SMOOTH",
"760 78 OFFCURVE",
"719 40 OFFCURVE",
"667 40 CURVE SMOOTH"
);
}
);
width = 864;
}
);
leftKerningGroup = percent;
unicode = 0025;
},
{
color = 6;
glyphname = perthousand;
lastChange = "2023-09-29 09:16:19 +0000";
layers = (
{
layerId = "CFBFE906-6BC9-42DE-B086-7F9578F7A428";
paths = (
{
closed = 1;
nodes = (
"253 0 LINE",
"673 700 LINE",
"608 700 LINE",
"188 0 LINE"
);
},
{
closed = 1;
nodes = (
"311 318 OFFCURVE",
"386 395 OFFCURVE",
"386 512 CURVE SMOOTH",
"386 634 OFFCURVE",
"310 706 OFFCURVE",
"207 706 CURVE SMOOTH",
"104 706 OFFCURVE",
"29 629 OFFCURVE",
"29 512 CURVE SMOOTH",
"29 390 OFFCURVE",
"105 318 OFFCURVE",
"208 318 CURVE SMOOTH"
);
},
{
closed = 1;
nodes = (
"144 364 OFFCURVE",
"104 440 OFFCURVE",
"104 528 CURVE SMOOTH",
"104 622 OFFCURVE",
"145 660 OFFCURVE",
"197 660 CURVE SMOOTH",
"271 660 OFFCURVE",
"311 584 OFFCURVE",
"311 496 CURVE SMOOTH",
"311 402 OFFCURVE",
"270 364 OFFCURVE",
"218 364 CURVE SMOOTH"
);
},
{
closed = 1;
nodes = (
"760 -6 OFFCURVE",
"835 71 OFFCURVE",
"835 188 CURVE SMOOTH",
"835 310 OFFCURVE",
"759 382 OFFCURVE",
"656 382 CURVE SMOOTH",
"553 382 OFFCURVE",
"478 304 OFFCURVE",
"478 188 CURVE SMOOTH",
"478 66 OFFCURVE",
"554 -6 OFFCURVE",
"657 -6 CURVE SMOOTH"
);
},
{
closed = 1;
nodes = (
"593 40 OFFCURVE",
"553 116 OFFCURVE",
"553 204 CURVE SMOOTH",
"553 297 OFFCURVE",
"594 336 OFFCURVE",
"646 336 CURVE SMOOTH",
"720 336 OFFCURVE",
"760 260 OFFCURVE",
"760 172 CURVE SMOOTH",
"760 78 OFFCURVE",
"719 40 OFFCURVE",
"667 40 CURVE SMOOTH"
);
},
{
closed = 1;
nodes = (
"1180 -6 OFFCURVE",
"1255 71 OFFCURVE",
"1255 188 CURVE SMOOTH",
"1255 310 OFFCURVE",
"1179 382 OFFCURVE",
"1076 382 CURVE SMOOTH",
"973 382 OFFCURVE",
"898 304 OFFCURVE",
"898 188 CURVE SMOOTH",
"898 66 OFFCURVE",
"974 -6 OFFCURVE",
"1077 -6 CURVE SMOOTH"
);
},
{
closed = 1;
nodes = (
"1013 40 OFFCURVE",
"973 116 OFFCURVE",
"973 204 CURVE SMOOTH",
"973 297 OFFCURVE",
"1014 336 OFFCURVE",
"1066 336 CURVE SMOOTH",
"1140 336 OFFCURVE",
"1180 260 OFFCURVE",
"1180 172 CURVE SMOOTH",
"1180 78 OFFCURVE",
"1139 40 OFFCURVE",
"1087 40 CURVE SMOOTH"
);
}
);
width = 1283;
}
);
leftKerningGroup = percent;
unicode = 2030;
},
{
color = 6;
glyphname = upArrow;
lastChange = "2023-09-29 09:16:19 +0000";
layers = (
{
layerId = "CFBFE906-6BC9-42DE-B086-7F9578F7A428";
paths = (
{
closed = 1;
nodes = (
"24 393 LINE",
"147 455 OFFCURVE",
"218 505 OFFCURVE",
"319 621 CURVE",
"420 505 OFFCURVE",
"491 455 OFFCURVE",
"614 393 CURVE",
"562 379 LINE",
"601 445 LINE",
"478 520 OFFCURVE",
"399 599 OFFCURVE",
"331 710 CURVE",
"307 710 LINE",
"239 599 OFFCURVE",
"160 520 OFFCURVE",
"37 445 CURVE",
"76 379 LINE"
);
},
{
closed = 1;
nodes = (
"343 0 LINE",
"343 662 LINE",
"295 662 LINE",
"295 0 LINE"
);
}
);
width = 638;
}
);
unicode = 2191;
},
{
color = 6;
glyphname = northEastArrow;
lastChange = "2023-09-29 09:16:19 +0000";
layers = (
{
layerId = "CFBFE906-6BC9-42DE-B086-7F9578F7A428";
paths = (
{
closed = 1;
nodes = (
"581 641 LINE",
"547 675 LINE",
"26 154 LINE",
"60 120 LINE"
);
},
{
closed = 1;
nodes = (
"164 675 LINE",
"295 632 OFFCURVE",
"381 617 OFFCURVE",
"534 628 CURVE",
"523 475 OFFCURVE",
"538 389 OFFCURVE",
"581 258 CURVE",
"535 285 LINE",
"609 304 LINE",
"575 444 OFFCURVE",
"575 556 OFFCURVE",
"606 683 CURVE",
"589 700 LINE",
"462 669 OFFCURVE",
"350 669 OFFCURVE",
"210 703 CURVE",
"191 629 LINE"
);
}
);
width = 656;
}
);
unicode = 2197;
},
{
color = 6;
glyphname = rightArrow;
lastChange = "2023-09-29 09:16:19 +0000";
layers = (
{
layerId = "CFBFE906-6BC9-42DE-B086-7F9578F7A428";
paths = (
{
closed = 1;
nodes = (
"817 308 LINE",
"817 356 LINE",
"59 356 LINE",
"59 308 LINE"
);
},
{
closed = 1;
nodes = (
"548 627 LINE",
"610 504 OFFCURVE",
"660 433 OFFCURVE",
"776 332 CURVE",
"660 231 OFFCURVE",
"610 160 OFFCURVE",
"548 37 CURVE",
"534 89 LINE",
"600 50 LINE",
"675 173 OFFCURVE",
"754 252 OFFCURVE",
"865 320 CURVE",
"865 344 LINE",
"754 412 OFFCURVE",
"675 491 OFFCURVE",
"600 614 CURVE",
"534 575 LINE"
);
}
);
width = 923;
}
);
unicode = 2192;
},
{
color = 6;
glyphname = southEastArrow;
lastChange = "2023-09-29 09:16:19 +0000";
layers = (
{
layerId = "CFBFE906-6BC9-42DE-B086-7F9578F7A428";
paths = (
{
closed = 1;
nodes = (
"25 545 LINE",
"546 24 LINE",
"580 58 LINE",
"59 579 LINE"
);
},
{
closed = 1;
nodes = (
"209 -4 LINE",
"349 30 OFFCURVE",
"461 30 OFFCURVE",
"588 -1 CURVE",
"605 16 LINE",
"574 143 OFFCURVE",
"574 255 OFFCURVE",
"608 395 CURVE",
"534 414 LINE",
"580 441 LINE",
"537 310 OFFCURVE",
"522 224 OFFCURVE",
"533 71 CURVE",
"380 82 OFFCURVE",
"294 67 OFFCURVE",
"163 24 CURVE",
"190 70 LINE"
);
}
);
width = 656;
}
);
unicode = 2198;
},
{
color = 6;
glyphname = downArrow;
lastChange = "2023-09-29 09:16:19 +0000";
layers = (
{
layerId = "CFBFE906-6BC9-42DE-B086-7F9578F7A428";
paths = (
{
closed = 1;
nodes = (
"37 255 LINE",
"160 180 OFFCURVE",
"239 101 OFFCURVE",
"307 -10 CURVE",
"331 -10 LINE",
"399 101 OFFCURVE",
"478 180 OFFCURVE",
"601 255 CURVE",
"562 321 LINE",
"614 307 LINE",
"491 245 OFFCURVE",
"420 195 OFFCURVE",
"319 79 CURVE",
"218 195 OFFCURVE",
"147 245 OFFCURVE",
"24 307 CURVE",
"76 321 LINE"
);
},
{
closed = 1;
nodes = (
"295 38 LINE",
"343 38 LINE",
"343 700 LINE",
"295 700 LINE"
);
}
);
width = 638;
}
);
unicode = 2193;
},
{
color = 6;
glyphname = southWestArrow;
lastChange = "2023-09-29 09:16:19 +0000";
layers = (
{
layerId = "CFBFE906-6BC9-42DE-B086-7F9578F7A428";
paths = (
{
closed = 1;
nodes = (
"76 58 LINE",
"110 24 LINE",
"631 545 LINE",
"597 579 LINE"
);
},
{
closed = 1;
nodes = (
"493 24 LINE",
"362 67 OFFCURVE",
"276 82 OFFCURVE",
"123 71 CURVE",
"134 224 OFFCURVE",
"119 310 OFFCURVE",
"76 441 CURVE",
"122 414 LINE",
"48 395 LINE",
"82 255 OFFCURVE",
"82 143 OFFCURVE",
"51 16 CURVE",
"68 -1 LINE",
"195 30 OFFCURVE",
"307 30 OFFCURVE",
"447 -4 CURVE",
"466 70 LINE"
);
}
);
width = 656;
}
);
unicode = 2199;
},
{
color = 6;
glyphname = leftArrow;
lastChange = "2023-09-29 09:16:19 +0000";
layers = (
{
layerId = "CFBFE906-6BC9-42DE-B086-7F9578F7A428";
paths = (
{
closed = 1;
nodes = (
"864 356 LINE",
"106 356 LINE",
"106 308 LINE",
"864 308 LINE"
);
},
{
closed = 1;
nodes = (
"323 614 LINE",
"248 491 OFFCURVE",
"169 412 OFFCURVE",
"58 344 CURVE",
"58 320 LINE",
"169 252 OFFCURVE",
"248 173 OFFCURVE",
"323 50 CURVE",
"389 89 LINE",
"375 37 LINE",
"313 160 OFFCURVE",
"263 231 OFFCURVE",
"147 332 CURVE",
"263 433 OFFCURVE",
"313 504 OFFCURVE",
"375 627 CURVE",
"389 575 LINE"
);
}
);
width = 923;
}
);
unicode = 2190;
},
{
color = 6;
glyphname = northWestArrow;
lastChange = "2023-09-29 09:16:19 +0000";
layers = (
{
layerId = "CFBFE906-6BC9-42DE-B086-7F9578F7A428";
paths = (
{
closed = 1;
nodes = (
"631 154 LINE",
"110 675 LINE",
"76 641 LINE",
"597 120 LINE"
);
},
{
closed = 1;
nodes = (
"447 703 LINE",
"307 669 OFFCURVE",
"195 669 OFFCURVE",
"68 700 CURVE",
"51 683 LINE",
"82 556 OFFCURVE",
"82 444 OFFCURVE",
"48 304 CURVE",
"122 285 LINE",
"76 258 LINE",
"119 389 OFFCURVE",
"134 475 OFFCURVE",
"123 628 CURVE",
"276 617 OFFCURVE",
"362 632 OFFCURVE",
"493 675 CURVE",
"466 629 LINE"
);
}
);
width = 657;
}
);
unicode = 2196;
},
{
color = 6;
glyphname = whiteUpperLeftQuadrantSquare;
lastChange = "2023-09-29 09:16:19 +0000";
layers = (
{
layerId = "CFBFE906-6BC9-42DE-B086-7F9578F7A428";
paths = (
{
closed = 1;
nodes = (
"3089 -257 OFFCURVE",
"3180 -150 OFFCURVE",
"3180 -9 CURVE",
"3180 521 LINE",
"3071 521 LINE",
"3071 445 LINE",
"3039 490 OFFCURVE",
"2976 529 OFFCURVE",
"2891 529 CURVE SMOOTH",
"2754 529 OFFCURVE",
"2645 423 OFFCURVE",
"2646 262 CURVE SMOOTH",
"2646 101 OFFCURVE",
"2755 -9 OFFCURVE",
"2891 -9 CURVE SMOOTH",
"2976 -9 OFFCURVE",
"3039 33 OFFCURVE",
"3072 77 CURVE",
"3072 -9 LINE",
"3072 -113 OFFCURVE",
"3009 -164 OFFCURVE",
"2926 -164 CURVE SMOOTH",
"2851 -164 OFFCURVE",
"2794 -127 OFFCURVE",
"2778 -73 CURVE",
"2671 -73 LINE",
"2684 -189 OFFCURVE",
"2787 -257 OFFCURVE",
"2926 -257 CURVE SMOOTH"
);
},
{
closed = 1;
nodes = (
"198 0 LINE",
"198 306 LINE",
"541 306 LINE",
"541 0 LINE",
"649 0 LINE",
"649 700 LINE",
"541 700 LINE",
"541 394 LINE",
"198 394 LINE",
"198 700 LINE",
"90 700 LINE",
"90 0 LINE"
);
},
{
closed = 1;
nodes = (
"1104 -8 OFFCURVE",
"1186 65 OFFCURVE",
"1216 155 CURVE",
"1100 155 LINE",
"1079 114 OFFCURVE",
"1043 82 OFFCURVE",
"977 82 CURVE SMOOTH",
"897 82 OFFCURVE",
"836 134 OFFCURVE",
"828 220 CURVE",
"1226 220 LINE",
"1229 238 OFFCURVE",
"1230 255 OFFCURVE",
"1230 273 CURVE SMOOTH",
"1230 427 OFFCURVE",
"1125 530 OFFCURVE",
"977 530 CURVE SMOOTH",
"822 530 OFFCURVE",
"717 425 OFFCURVE",
"717 261 CURVE SMOOTH",
"717 98 OFFCURVE",
"827 -8 OFFCURVE",
"977 -8 CURVE SMOOTH"
);
},
{
closed = 1;
nodes = (
"840 390 OFFCURVE",
"899 439 OFFCURVE",
"971 440 CURVE SMOOTH",
"1052 440 OFFCURVE",
"1115 388 OFFCURVE",
"1117 308 CURVE",
"829 308 LINE"
);
},
{
closed = 1;
nodes = (
"1480 86 OFFCURVE",
"1402 151 OFFCURVE",
"1402 264 CURVE SMOOTH",
"1402 376 OFFCURVE",
"1480 437 OFFCURVE",
"1560 437 CURVE SMOOTH",
"1641 437 OFFCURVE",
"1718 373 OFFCURVE",
"1718 262 CURVE SMOOTH",
"1718 150 OFFCURVE",
"1641 86 OFFCURVE",
"1560 86 CURVE SMOOTH"
);
},
{
closed = 1;
nodes = (
"1622 -8 OFFCURVE",
"1685 32 OFFCURVE",
"1718 79 CURVE",
"1718 1 LINE",
"1826 1 LINE",
"1826 700 LINE",
"1718 700 LINE",
"1718 448 LINE",
"1678 497 OFFCURVE",
"1606 530 OFFCURVE",
"1538 530 CURVE SMOOTH",
"1400 530 OFFCURVE",
"1291 424 OFFCURVE",
"1291 264 CURVE SMOOTH",
"1291 103 OFFCURVE",
"1400 -8 OFFCURVE",
"1537 -8 CURVE SMOOTH"
);
},
{
closed = 1;
nodes = (
"2209 0 LINE",
"2407 520 LINE",
"2293 520 LINE",
"2146 96 LINE",
"1998 520 LINE",
"1883 520 LINE",
"2080 0 LINE"
);
},
{
closed = 1;
nodes = (
"2581 0 LINE",
"2581 520 LINE",
"2473 520 LINE",
"2473 0 LINE"
);
},
{
closed = 1;
nodes = (
"2562 584 OFFCURVE",
"2590 612 OFFCURVE",
"2590 646 CURVE SMOOTH",
"2590 681 OFFCURVE",
"2562 708 OFFCURVE",
"2527 708 CURVE SMOOTH",
"2492 708 OFFCURVE",
"2465 682 OFFCURVE",
"2465 646 CURVE SMOOTH",
"2465 611 OFFCURVE",
"2492 584 OFFCURVE",
"2527 584 CURVE SMOOTH"
);
},
{
closed = 1;
nodes = (
"2833 86 OFFCURVE",
"2756 151 OFFCURVE",
"2756 263 CURVE SMOOTH",
"2756 376 OFFCURVE",
"2833 436 OFFCURVE",
"2914 436 CURVE SMOOTH",
"2995 436 OFFCURVE",
"3072 373 OFFCURVE",
"3071 261 CURVE SMOOTH",
"3071 149 OFFCURVE",
"2995 86 OFFCURVE",
"2914 86 CURVE SMOOTH"
);
},
{
closed = 1;
nodes = (
"3449 260 OFFCURVE",
"3509 320 OFFCURVE",
"3509 395 CURVE SMOOTH",
"3509 469 OFFCURVE",
"3449 529 OFFCURVE",
"3375 529 CURVE SMOOTH",
"3301 529 OFFCURVE",
"3241 469 OFFCURVE",
"3241 395 CURVE SMOOTH",
"3241 320 OFFCURVE",
"3301 260 OFFCURVE",
"3375 260 CURVE SMOOTH"
);
},
{
closed = 1;
nodes = (
"3311 278 OFFCURVE",
"3259 331 OFFCURVE",
"3259 395 CURVE SMOOTH",
"3259 459 OFFCURVE",
"3311 511 OFFCURVE",
"3375 511 CURVE SMOOTH",
"3439 511 OFFCURVE",
"3491 459 OFFCURVE",
"3491 395 CURVE SMOOTH",
"3491 331 OFFCURVE",
"3439 278 OFFCURVE",
"3375 278 CURVE SMOOTH"
);
},
{
closed = 1;
nodes = (
"3335 321 LINE",
"3335 386 LINE",
"3415 386 LINE",
"3415 321 LINE",
"3433 321 LINE",
"3433 468 LINE",
"3415 468 LINE",
"3415 404 LINE",
"3335 404 LINE",
"3335 468 LINE",
"3317 468 LINE",
"3317 321 LINE"
);
}
);
width = 3509;
}
);
unicode = 25F0;
},
{
color = 6;
glyphname = dieresiscomb;
lastChange = "2023-09-29 09:16:19 +0000";
layers = (
{
anchors = (
{
name = _top;
position = "{286, 520}";
},
{
name = top;
position = "{286, 700}";
}
);
layerId = "CFBFE906-6BC9-42DE-B086-7F9578F7A428";
paths = (
{
closed = 1;
nodes = (
"417 594 OFFCURVE",
"442 617 OFFCURVE",
"442 651 CURVE SMOOTH",
"442 684 OFFCURVE",
"417 707 OFFCURVE",
"386 707 CURVE SMOOTH",
"354 707 OFFCURVE",
"329 684 OFFCURVE",
"329 651 CURVE SMOOTH",
"329 617 OFFCURVE",
"354 594 OFFCURVE",
"386 594 CURVE SMOOTH"
);
},
{
closed = 1;
nodes = (
"218 594 OFFCURVE",
"243 617 OFFCURVE",
"243 651 CURVE SMOOTH",
"243 684 OFFCURVE",
"218 707 OFFCURVE",
"187 707 CURVE SMOOTH",
"155 707 OFFCURVE",
"130 684 OFFCURVE",
"130 651 CURVE SMOOTH",
"130 617 OFFCURVE",
"155 594 OFFCURVE",
"187 594 CURVE SMOOTH"
);
}
);
width = 0;
}
);
unicode = 0308;
},
{
color = 6;
glyphname = dotaccentcomb;
lastChange = "2023-09-29 09:16:19 +0000";
layers = (
{
anchors = (
{
name = _top;
position = "{109, 520}";
},
{
name = top;
position = "{109, 700}";
}
);
layerId = "CFBFE906-6BC9-42DE-B086-7F9578F7A428";
paths = (
{
closed = 1;
nodes = (
"141 603 OFFCURVE",
"167 627 OFFCURVE",
"167 662 CURVE SMOOTH",
"167 696 OFFCURVE",
"141 720 OFFCURVE",
"109 720 CURVE SMOOTH",
"76 720 OFFCURVE",
"50 696 OFFCURVE",
"50 662 CURVE SMOOTH",
"50 627 OFFCURVE",
"76 603 OFFCURVE",
"109 603 CURVE SMOOTH"
);
}
);
width = 0;
}
);
unicode = 0307;
},
{
color = 6;
glyphname = gravecomb;
lastChange = "2023-09-29 09:16:19 +0000";
layers = (
{
anchors = (
{
name = _top;
position = "{303, 520}";
},
{
name = top;
position = "{303, 700}";
}
);
layerId = "CFBFE906-6BC9-42DE-B086-7F9578F7A428";
paths = (
{
closed = 1;
nodes = (
"390 590 LINE",
"308 688 LINE SMOOTH",
"294 704 OFFCURVE",
"282 717 OFFCURVE",
"268 730 CURVE SMOOTH",
"249 747 OFFCURVE",
"223 744 OFFCURVE",
"207 725 CURVE SMOOTH",
"190 705 OFFCURVE",
"192 680 OFFCURVE",
"212 663 CURVE SMOOTH",
"227 650 OFFCURVE",
"242 642 OFFCURVE",
"260 631 CURVE SMOOTH",
"372 566 LINE"
);
}
);
width = 0;
}
);
unicode = 0300;
},
{
color = 6;
glyphname = acutecomb;
lastChange = "2023-09-29 09:16:19 +0000";
layers = (
{
anchors = (
{
name = _top;
position = "{309, 520}";
},
{
name = top;
position = "{309, 700}";
}
);
layerId = "CFBFE906-6BC9-42DE-B086-7F9578F7A428";
paths = (
{
closed = 1;
nodes = (
"342 631 LINE SMOOTH",
"360 642 OFFCURVE",
"375 650 OFFCURVE",
"390 663 CURVE SMOOTH",
"423 691 OFFCURVE",
"399 740 OFFCURVE",
"363 740 CURVE SMOOTH",
"334 740 OFFCURVE",
"310 707 OFFCURVE",
"294 688 CURVE SMOOTH",
"212 590 LINE",
"230 566 LINE"
);
}
);
width = 0;
}
);
unicode = 0301;
},
{
color = 6;
glyphname = hungarumlautcomb;
lastChange = "2023-09-29 09:16:19 +0000";
layers = (
{
anchors = (
{
name = _top;
position = "{220, 520}";
},
{
name = top;
position = "{220, 700}";
}
);
layerId = "CFBFE906-6BC9-42DE-B086-7F9578F7A428";
paths = (
{
closed = 1;
nodes = (
"360 631 LINE SMOOTH",
"378 642 OFFCURVE",
"393 650 OFFCURVE",
"408 663 CURVE SMOOTH",
"428 680 OFFCURVE",
"430 705 OFFCURVE",
"413 725 CURVE SMOOTH",
"397 744 OFFCURVE",
"371 747 OFFCURVE",
"352 730 CURVE SMOOTH",
"338 717 OFFCURVE",
"326 704 OFFCURVE",
"312 688 CURVE SMOOTH",
"230 590 LINE",
"248 566 LINE"
);
},
{
closed = 1;
nodes = (
"180 631 LINE SMOOTH",
"198 642 OFFCURVE",
"213 650 OFFCURVE",
"228 663 CURVE SMOOTH",
"248 680 OFFCURVE",
"250 705 OFFCURVE",
"233 725 CURVE SMOOTH",
"217 744 OFFCURVE",
"191 747 OFFCURVE",
"172 730 CURVE SMOOTH",
"158 717 OFFCURVE",
"146 704 OFFCURVE",
"132 688 CURVE SMOOTH",
"50 590 LINE",
"68 566 LINE"
);
}
);
width = 0;
}
);
unicode = 030B;
},
{
color = 6;
glyphname = circumflexcomb;
lastChange = "2023-09-29 09:16:19 +0000";
layers = (
{
anchors = (
{
name = _top;
position = "{294, 520}";
},
{
name = top;
position = "{294, 700}";
}
);
layerId = "CFBFE906-6BC9-42DE-B086-7F9578F7A428";
paths = (
{
closed = 1;
nodes = (
"293 662 LINE",
"295 662 LINE",
"419 589 LINE",
"435 604 LINE",
"326 734 LINE",
"262 734 LINE",
"153 604 LINE",
"169 589 LINE"
);
}
);
width = 0;
}
);
unicode = 0302;
},
{
color = 6;
glyphname = caroncomb;
lastChange = "2023-09-29 09:16:19 +0000";
layers = (
{
anchors = (
{
name = _top;
position = "{294, 520}";
},
{
name = top;
position = "{294, 700}";
}
);
layerId = "CFBFE906-6BC9-42DE-B086-7F9578F7A428";
paths = (
{
closed = 1;
nodes = (
"326 591 LINE",
"435 721 LINE",
"419 736 LINE",
"295 663 LINE",
"293 663 LINE",
"169 736 LINE",
"153 721 LINE",
"262 591 LINE"
);
}
);
width = 0;
}
);
unicode = 030C;
},
{
color = 6;
glyphname = brevecomb;
lastChange = "2023-09-29 09:16:19 +0000";
layers = (
{
anchors = (
{
name = _top;
position = "{290, 520}";
},
{
name = top;
position = "{290, 700}";
}
);
layerId = "CFBFE906-6BC9-42DE-B086-7F9578F7A428";
paths = (
{
closed = 1;
nodes = (
"393 598 OFFCURVE",
"430 652 OFFCURVE",
"426 720 CURVE",
"393 720 LINE",
"387 689 OFFCURVE",
"357 662 OFFCURVE",
"290 662 CURVE SMOOTH",
"224 662 OFFCURVE",
"194 689 OFFCURVE",
"188 720 CURVE",
"154 720 LINE",
"150 652 OFFCURVE",
"187 598 OFFCURVE",
"290 598 CURVE SMOOTH"
);
}
);
width = 0;
}
);
unicode = 0306;
},
{
color = 6;
glyphname = ringcomb;
lastChange = "2023-09-29 09:16:19 +0000";
layers = (
{
anchors = (
{
name = _top;
position = "{249, 520}";
},
{
name = top;
position = "{249, 700}";
}
);
guideLines = (
{
angle = 90;
position = "{249, 520}";
}
);
layerId = "CFBFE906-6BC9-42DE-B086-7F9578F7A428";
paths = (
{
closed = 1;
nodes = (
"311 575 OFFCURVE",
"354 617 OFFCURVE",
"354 677 CURVE SMOOTH",
"354 735 OFFCURVE",
"310 777 OFFCURVE",
"249 777 CURVE SMOOTH",
"188 777 OFFCURVE",
"145 735 OFFCURVE",
"145 677 CURVE SMOOTH",
"145 617 OFFCURVE",
"188 575 OFFCURVE",
"249 575 CURVE SMOOTH"
);
},
{
closed = 1;
nodes = (
"222 608 OFFCURVE",
"199 639 OFFCURVE",
"199 686 CURVE SMOOTH",
"199 722 OFFCURVE",
"216 744 OFFCURVE",
"244 744 CURVE SMOOTH",
"277 744 OFFCURVE",
"300 712 OFFCURVE",
"300 665 CURVE SMOOTH",
"300 629 OFFCURVE",
"283 608 OFFCURVE",
"255 608 CURVE SMOOTH"
);
}
);
width = 0;
}
);
unicode = 030A;
},
{
color = 6;
glyphname = tildecomb;
lastChange = "2023-09-29 09:16:19 +0000";
layers = (
{
anchors = (
{
name = _top;
position = "{183, 520}";
},
{
name = top;
position = "{183, 700}";
}
);
layerId = "CFBFE906-6BC9-42DE-B086-7F9578F7A428";
paths = (
{
closed = 1;
nodes = (
"48 644 OFFCURVE",
"68 664 OFFCURVE",
"105 664 CURVE SMOOTH",
"121 664 OFFCURVE",
"136 659 OFFCURVE",
"161 648 CURVE SMOOTH",
"183 638 LINE SMOOTH",
"199 631 OFFCURVE",
"225 620 OFFCURVE",
"253 620 CURVE SMOOTH",
"290 620 OFFCURVE",
"334 638 OFFCURVE",
"362 726 CURVE",
"331 732 LINE",
"318 705 OFFCURVE",
"298 685 OFFCURVE",
"261 685 CURVE SMOOTH",
"245 685 OFFCURVE",
"230 690 OFFCURVE",
"205 701 CURVE SMOOTH",
"183 711 LINE SMOOTH",
"167 718 OFFCURVE",
"141 729 OFFCURVE",
"113 729 CURVE SMOOTH",
"76 729 OFFCURVE",
"32 711 OFFCURVE",
"4 623 CURVE",
"35 617 LINE"
);
}
);
width = 0;
}
);
unicode = 0303;
},
{
color = 6;
glyphname = macroncomb;
lastChange = "2023-09-29 09:16:19 +0000";
layers = (
{
anchors = (
{
name = _top;
position = "{319, 520}";
},
{
name = top;
position = "{319, 700}";
}
);
layerId = "CFBFE906-6BC9-42DE-B086-7F9578F7A428";
paths = (
{
closed = 1;
nodes = (
"458 646 LINE",
"458 704 LINE",
"180 704 LINE",
"180 646 LINE"
);
}
);
width = 0;
}
);
unicode = 0304;
},
{
color = 6;
glyphname = commaturnedabovecomb;
lastChange = "2023-09-29 09:16:19 +0000";
layers = (
{
anchors = (
{
name = _top;
position = "{232, 520}";
},
{
name = top;
position = "{232, 700}";
}
);
layerId = "CFBFE906-6BC9-42DE-B086-7F9578F7A428";
paths = (
{
closed = 1;
nodes = (
"270 594 OFFCURVE",
"295 618 OFFCURVE",
"295 650 CURVE SMOOTH",
"295 682 OFFCURVE",
"271 704 OFFCURVE",
"241 704 CURVE SMOOTH",
"210 704 OFFCURVE",
"187 681 OFFCURVE",
"187 649 CURVE",
"214 671 LINE",
"214 722 OFFCURVE",
"236 748 OFFCURVE",
"294 782 CURVE",
"274 810 LINE",
"206 774 OFFCURVE",
"168 733 OFFCURVE",
"168 672 CURVE SMOOTH",
"168 632 OFFCURVE",
"191 594 OFFCURVE",
"236 594 CURVE SMOOTH"
);
}
);
width = 0;
}
);
unicode = 0312;
},
{
color = 6;
glyphname = commaaccentcomb;
lastChange = "2023-09-29 09:16:19 +0000";
layers = (
{
anchors = (
{
name = _bottom;
position = "{232, 0}";
}
);
layerId = "CFBFE906-6BC9-42DE-B086-7F9578F7A428";
paths = (
{
closed = 1;
nodes = (
"257 -221 OFFCURVE",
"295 -180 OFFCURVE",
"295 -119 CURVE SMOOTH",
"295 -79 OFFCURVE",
"272 -41 OFFCURVE",
"227 -41 CURVE SMOOTH",
"193 -41 OFFCURVE",
"168 -65 OFFCURVE",
"168 -97 CURVE SMOOTH",
"168 -129 OFFCURVE",
"192 -151 OFFCURVE",
"222 -151 CURVE SMOOTH",
"253 -151 OFFCURVE",
"276 -128 OFFCURVE",
"276 -96 CURVE",
"249 -118 LINE",
"249 -169 OFFCURVE",
"227 -195 OFFCURVE",
"169 -229 CURVE",
"189 -257 LINE"
);
}
);
width = 0;
}
);
unicode = 0326;
},
{
color = 6;
glyphname = cedillacomb;
lastChange = "2023-09-29 09:16:19 +0000";
layers = (
{
anchors = (
{
name = _bottom;
position = "{334, 0}";
}
);
layerId = "CFBFE906-6BC9-42DE-B086-7F9578F7A428";
paths = (
{
closed = 1;
nodes = (
"389 -257 OFFCURVE",
"451 -209 OFFCURVE",
"451 -152 CURVE SMOOTH",
"451 -98 OFFCURVE",
"412 -72 OFFCURVE",
"349 -66 CURVE",
"403 1 LINE",
"368 9 LINE",
"276 -105 LINE",
"277 -107 LINE",
"346 -105 OFFCURVE",
"390 -127 OFFCURVE",
"390 -174 CURVE SMOOTH",
"390 -206 OFFCURVE",
"364 -217 OFFCURVE",
"345 -217 CURVE SMOOTH",
"336 -217 OFFCURVE",
"327 -210 OFFCURVE",
"308 -200 CURVE SMOOTH",
"285 -188 LINE SMOOTH",
"264 -177 OFFCURVE",
"241 -195 OFFCURVE",
"241 -216 CURVE SMOOTH",
"241 -239 OFFCURVE",
"272 -257 OFFCURVE",
"315 -257 CURVE SMOOTH"
);
}
);
width = 0;
}
);
unicode = 0327;
},
{
color = 6;
glyphname = ogonekcomb;
lastChange = "2023-09-29 09:16:19 +0000";
layers = (
{
anchors = (
{
name = _ogonek;
position = "{227, 0}";
}
);
layerId = "CFBFE906-6BC9-42DE-B086-7F9578F7A428";
paths = (
{
closed = 1;
nodes = (
"215 -257 OFFCURVE",
"246 -225 OFFCURVE",
"265 -206 CURVE",
"252 -190 LINE",
"241 -196 OFFCURVE",
"220 -206 OFFCURVE",
"189 -206 CURVE SMOOTH",
"145 -206 OFFCURVE",
"122 -183 OFFCURVE",
"122 -143 CURVE SMOOTH",
"122 -65 OFFCURVE",
"201 -9 OFFCURVE",
"227 0 CURVE",
"184 0 LINE",
"129 -22 OFFCURVE",
"53 -83 OFFCURVE",
"53 -161 CURVE SMOOTH",
"53 -224 OFFCURVE",
"99 -257 OFFCURVE",
"152 -257 CURVE SMOOTH"
);
}
);
width = 0;
}
);
unicode = 0328;
},
